<svg width="24" height="25" viewBox="0 0 24 25" fill="none" xmlns="http://www.w3.org/2000/svg">
<path d="M19.74 8.82994L14.3 2.82994C14.2065 2.72634 14.0924 2.64347 13.9649 2.58663C13.8375 2.5298 13.6995 2.50027 13.56 2.49994H6.56C6.22775 2.49597 5.89797 2.5575 5.5895 2.68099C5.28103 2.80449 4.9999 2.98754 4.76218 3.21969C4.52446 3.45184 4.33479 3.72855 4.20402 4.034C4.07324 4.33946 4.00392 4.66768 4 4.99994V19.9999C4.00392 20.3322 4.07324 20.6604 4.20402 20.9659C4.33479 21.2713 4.52446 21.548 4.76218 21.7802C4.9999 22.0123 5.28103 22.1954 5.5895 22.3189C5.89797 22.4424 6.22775 22.5039 6.56 22.4999H17.44C17.7723 22.5039 18.102 22.4424 18.4105 22.3189C18.719 22.1954 19.0001 22.0123 19.2378 21.7802C19.4755 21.548 19.6652 21.2713 19.796 20.9659C19.9268 20.6604 19.9961 20.3322 20 19.9999V9.49994C19.9994 9.2521 19.9067 9.01333 19.74 8.82994ZM17.65 9.49994H13.71C13.5038 9.47963 13.3139 9.37917 13.1811 9.22018C13.0483 9.0612 12.9833 8.85641 13 8.64994V4.49994H13.11L17.65 9.49994ZM17.44 20.4999H6.56C6.49037 20.504 6.42063 20.4943 6.35477 20.4713C6.28892 20.4484 6.22824 20.4126 6.17621 20.3662C6.12419 20.3197 6.08184 20.2635 6.0516 20.2006C6.02137 20.1378 6.00383 20.0696 6 19.9999V4.99994C6.00383 4.9303 6.02137 4.8621 6.0516 4.79925C6.08184 4.7364 6.12419 4.68014 6.17621 4.63369C6.22824 4.58724 6.28892 4.55152 6.35477 4.52856C6.42063 4.50561 6.49037 4.49588 6.56 4.49994H11V8.64994C10.9839 9.38656 11.2598 10.0997 11.7675 10.6336C12.2752 11.1676 12.9735 11.479 13.71 11.4999H18V19.9999C17.9962 20.0696 17.9786 20.1378 17.9484 20.2006C17.9182 20.2635 17.8758 20.3197 17.8238 20.3662C17.7718 20.4126 17.7111 20.4484 17.6452 20.4713C17.5794 20.4943 17.5096 20.504 17.44 20.4999Z" fill="#FF6C05"/>
<path d="M19.74 8.82994L14.3 2.82994C14.2065 2.72634 14.0924 2.64347 13.9649 2.58663C13.8375 2.5298 13.6995 2.50027 13.56 2.49994H6.56C6.22775 2.49597 5.89797 2.5575 5.5895 2.68099C5.28103 2.80449 4.9999 2.98754 4.76218 3.21969C4.52446 3.45184 4.33479 3.72855 4.20402 4.034C4.07324 4.33946 4.00392 4.66768 4 4.99994V19.9999C4.00392 20.3322 4.07324 20.6604 4.20402 20.9659C4.33479 21.2713 4.52446 21.548 4.76218 21.7802C4.9999 22.0123 5.28103 22.1954 5.5895 22.3189C5.89797 22.4424 6.22775 22.5039 6.56 22.4999H17.44C17.7723 22.5039 18.102 22.4424 18.4105 22.3189C18.719 22.1954 19.0001 22.0123 19.2378 21.7802C19.4755 21.548 19.6652 21.2713 19.796 20.9659C19.9268 20.6604 19.9961 20.3322 20 19.9999V9.49994C19.9994 9.2521 19.9067 9.01333 19.74 8.82994ZM17.65 9.49994H13.71C13.5038 9.47963 13.3139 9.37917 13.1811 9.22018C13.0483 9.0612 12.9833 8.85641 13 8.64994V4.49994H13.11L17.65 9.49994ZM17.44 20.4999H6.56C6.49037 20.504 6.42063 20.4943 6.35477 20.4713C6.28892 20.4484 6.22824 20.4126 6.17621 20.3662C6.12419 20.3197 6.08184 20.2635 6.0516 20.2006C6.02137 20.1378 6.00383 20.0696 6 19.9999V4.99994C6.00383 4.9303 6.02137 4.8621 6.0516 4.79925C6.08184 4.7364 6.12419 4.68014 6.17621 4.63369C6.22824 4.58724 6.28892 4.55152 6.35477 4.52856C6.42063 4.50561 6.49037 4.49588 6.56 4.49994H11V8.64994C10.9839 9.38656 11.2598 10.0997 11.7675 10.6336C12.2752 11.1676 12.9735 11.479 13.71 11.4999H18V19.9999C17.9962 20.0696 17.9786 20.1378 17.9484 20.2006C17.9182 20.2635 17.8758 20.3197 17.8238 20.3662C17.7718 20.4126 17.7111 20.4484 17.6452 20.4713C17.5794 20.4943 17.5096 20.504 17.44 20.4999Z" fill="url(#paint0_linear_97_12333)"/>
<defs>
<linearGradient id="paint0_linear_97_12333" x1="12" y1="2.49976" x2="12" y2="22.5001" gradientUnits="userSpaceOnUse">
<stop stop-color="#FFB906"/>
<stop offset="1" stop-color="#FF5C00"/>
</linearGradient>
</defs>
</svg>
