<svg width="28" height="32" viewBox="0 0 28 32" fill="none" xmlns="http://www.w3.org/2000/svg">
<g clip-path="url(#clip0_49_12037)">
<path d="M13.5063 25.5063C12.975 26.1438 12.025 26.1438 11.4375 25.5063L7.4375 21.5063C6.85625 20.975 6.85625 20.025 7.4375 19.4375C8.025 18.8563 8.975 18.8563 9.50625 19.4375L12.5 22.3813L18.4375 16.4375C19.025 15.8562 19.975 15.8562 20.5063 16.4375C21.1438 17.025 21.1438 17.975 20.5063 18.5063L13.5063 25.5063ZM8 0C8.83125 0 9.5 0.671875 9.5 1.5V4H18.5V1.5C18.5 0.671875 19.1688 0 20 0C20.8312 0 21.5 0.671875 21.5 1.5V4H24C26.2062 4 28 5.79063 28 8V28C28 30.2062 26.2062 32 24 32H4C1.79063 32 0 30.2062 0 28V8C0 5.79063 1.79063 4 4 4H6.5V1.5C6.5 0.671875 7.16875 0 8 0ZM25 12H3V28C3 28.55 3.4475 29 4 29H24C24.55 29 25 28.55 25 28V12Z" fill="#FFB706"/>
<path d="M13.5063 25.5063C12.975 26.1438 12.025 26.1438 11.4375 25.5063L7.4375 21.5063C6.85625 20.975 6.85625 20.025 7.4375 19.4375C8.025 18.8563 8.975 18.8563 9.50625 19.4375L12.5 22.3813L18.4375 16.4375C19.025 15.8562 19.975 15.8562 20.5063 16.4375C21.1438 17.025 21.1438 17.975 20.5063 18.5063L13.5063 25.5063ZM8 0C8.83125 0 9.5 0.671875 9.5 1.5V4H18.5V1.5C18.5 0.671875 19.1688 0 20 0C20.8312 0 21.5 0.671875 21.5 1.5V4H24C26.2062 4 28 5.79063 28 8V28C28 30.2062 26.2062 32 24 32H4C1.79063 32 0 30.2062 0 28V8C0 5.79063 1.79063 4 4 4H6.5V1.5C6.5 0.671875 7.16875 0 8 0ZM25 12H3V28C3 28.55 3.4475 29 4 29H24C24.55 29 25 28.55 25 28V12Z" fill="url(#paint0_linear_49_12037)"/>
</g>
<defs>
<linearGradient id="paint0_linear_49_12037" x1="14" y1="0" x2="14" y2="32" gradientUnits="userSpaceOnUse">
<stop stop-color="#FFB906"/>
<stop offset="1" stop-color="#FF5C00"/>
</linearGradient>
<clipPath id="clip0_49_12037">
<rect width="28" height="32" fill="white"/>
</clipPath>
</defs>
</svg>
