<svg width="54" height="54" viewBox="0 0 54 54" fill="none" xmlns="http://www.w3.org/2000/svg">
<path d="M18 13.5001V12.5439C18 10.3366 18.864 8.1339 20.9835 7.5084C24.4148 6.4959 29.5852 6.4959 33.0165 7.5084C35.136 8.1339 36 10.3366 36 12.5439V13.5001M41.625 16.8751L49.5 9.00015M12.375 16.8751L4.5 9.00015M13.5 40.5001L4.5 47.2501M11.25 27.0001H3.375M50.625 27.0001H42.75M40.5 40.5001L49.5 47.2501M27 29.2501V47.2501M11.25 20.2501C11.25 19.0567 11.7241 17.9121 12.568 17.0682C13.4119 16.2243 14.5565 15.7501 15.75 15.7501H38.25C39.4435 15.7501 40.5881 16.2243 41.432 17.0682C42.2759 17.9121 42.75 19.0567 42.75 20.2501V31.5001C42.75 35.6773 41.0906 39.6834 38.1369 42.6371C35.1832 45.5908 31.1772 47.2501 27 47.2501V47.2501C22.8228 47.2501 18.8168 45.5908 15.8631 42.6371C12.9094 39.6834 11.25 35.6773 11.25 31.5001V20.2501Z" stroke="#222222" stroke-width="4" stroke-linecap="round" stroke-linejoin="round"/>
<path d="M18 13.5001V12.5439C18 10.3366 18.864 8.1339 20.9835 7.5084C24.4148 6.4959 29.5852 6.4959 33.0165 7.5084C35.136 8.1339 36 10.3366 36 12.5439V13.5001M41.625 16.8751L49.5 9.00015M12.375 16.8751L4.5 9.00015M13.5 40.5001L4.5 47.2501M11.25 27.0001H3.375M50.625 27.0001H42.75M40.5 40.5001L49.5 47.2501M27 29.2501V47.2501M11.25 20.2501C11.25 19.0567 11.7241 17.9121 12.568 17.0682C13.4119 16.2243 14.5565 15.7501 15.75 15.7501H38.25C39.4435 15.7501 40.5881 16.2243 41.432 17.0682C42.2759 17.9121 42.75 19.0567 42.75 20.2501V31.5001C42.75 35.6773 41.0906 39.6834 38.1369 42.6371C35.1832 45.5908 31.1772 47.2501 27 47.2501V47.2501C22.8228 47.2501 18.8168 45.5908 15.8631 42.6371C12.9094 39.6834 11.25 35.6773 11.25 31.5001V20.2501Z" stroke="url(#paint0_linear_101_12383)" stroke-width="4" stroke-linecap="round" stroke-linejoin="round"/>
<defs>
<linearGradient id="paint0_linear_101_12383" x1="27" y1="6.74902" x2="27" y2="47.2501" gradientUnits="userSpaceOnUse">
<stop stop-color="#FFB906"/>
<stop offset="1" stop-color="#FF5C00"/>
</linearGradient>
</defs>
</svg>
