<svg width="32" height="32" viewBox="0 0 32 32" fill="none" xmlns="http://www.w3.org/2000/svg">
<path d="M9.93334 21.7333C10.1778 21.9778 10.4889 22.1 10.8667 22.1C11.2445 22.1 11.5556 21.9778 11.8 21.7333L15.6667 17.8667L19.5667 21.7667C19.8111 22.0111 20.1169 22.1276 20.484 22.116C20.8502 22.1053 21.1556 21.9778 21.4 21.7333C21.6445 21.4889 21.7667 21.1778 21.7667 20.8C21.7667 20.4222 21.6445 20.1111 21.4 19.8667L17.5333 16L21.4333 12.1C21.6778 11.8556 21.7942 11.5498 21.7827 11.1827C21.772 10.8164 21.6445 10.5111 21.4 10.2667C21.1556 10.0222 20.8445 9.9 20.4667 9.9C20.0889 9.9 19.7778 10.0222 19.5333 10.2667L15.6667 14.1333L11.7667 10.2333C11.5222 9.98889 11.2169 9.872 10.8507 9.88266C10.4836 9.89422 10.1778 10.0222 9.93334 10.2667C9.6889 10.5111 9.56668 10.8222 9.56668 11.2C9.56668 11.5778 9.6889 11.8889 9.93334 12.1333L13.8 16L9.90001 19.9C9.65557 20.1444 9.53912 20.4498 9.55068 20.816C9.56134 21.1831 9.6889 21.4889 9.93334 21.7333ZM15.6667 29.3333C13.8222 29.3333 12.0889 28.9831 10.4667 28.2827C8.84445 27.5831 7.43334 26.6333 6.23334 25.4333C5.03334 24.2333 4.08357 22.8222 3.38401 21.2C2.68357 19.5778 2.33334 17.8444 2.33334 16C2.33334 14.1556 2.68357 12.4222 3.38401 10.8C4.08357 9.17778 5.03334 7.76666 6.23334 6.56666C7.43334 5.36666 8.84445 4.41644 10.4667 3.716C12.0889 3.01644 13.8222 2.66666 15.6667 2.66666C17.5111 2.66666 19.2445 3.01644 20.8667 3.716C22.4889 4.41644 23.9 5.36666 25.1 6.56666C26.3 7.76666 27.2498 9.17778 27.9493 10.8C28.6498 12.4222 29 14.1556 29 16C29 17.8444 28.6498 19.5778 27.9493 21.2C27.2498 22.8222 26.3 24.2333 25.1 25.4333C23.9 26.6333 22.4889 27.5831 20.8667 28.2827C19.2445 28.9831 17.5111 29.3333 15.6667 29.3333ZM15.6667 26.6667C18.6222 26.6667 21.1391 25.628 23.2173 23.5507C25.2947 21.4724 26.3333 18.9556 26.3333 16C26.3333 13.0444 25.2947 10.5276 23.2173 8.44933C21.1391 6.372 18.6222 5.33333 15.6667 5.33333C12.7111 5.33333 10.1947 6.372 8.11734 8.44933C6.03912 10.5276 5.00001 13.0444 5.00001 16C5.00001 18.9556 6.03912 21.4724 8.11734 23.5507C10.1947 25.628 12.7111 26.6667 15.6667 26.6667Z" fill="#FFB706"/>
<path d="M9.93334 21.7333C10.1778 21.9778 10.4889 22.1 10.8667 22.1C11.2445 22.1 11.5556 21.9778 11.8 21.7333L15.6667 17.8667L19.5667 21.7667C19.8111 22.0111 20.1169 22.1276 20.484 22.116C20.8502 22.1053 21.1556 21.9778 21.4 21.7333C21.6445 21.4889 21.7667 21.1778 21.7667 20.8C21.7667 20.4222 21.6445 20.1111 21.4 19.8667L17.5333 16L21.4333 12.1C21.6778 11.8556 21.7942 11.5498 21.7827 11.1827C21.772 10.8164 21.6445 10.5111 21.4 10.2667C21.1556 10.0222 20.8445 9.9 20.4667 9.9C20.0889 9.9 19.7778 10.0222 19.5333 10.2667L15.6667 14.1333L11.7667 10.2333C11.5222 9.98889 11.2169 9.872 10.8507 9.88266C10.4836 9.89422 10.1778 10.0222 9.93334 10.2667C9.6889 10.5111 9.56668 10.8222 9.56668 11.2C9.56668 11.5778 9.6889 11.8889 9.93334 12.1333L13.8 16L9.90001 19.9C9.65557 20.1444 9.53912 20.4498 9.55068 20.816C9.56134 21.1831 9.6889 21.4889 9.93334 21.7333ZM15.6667 29.3333C13.8222 29.3333 12.0889 28.9831 10.4667 28.2827C8.84445 27.5831 7.43334 26.6333 6.23334 25.4333C5.03334 24.2333 4.08357 22.8222 3.38401 21.2C2.68357 19.5778 2.33334 17.8444 2.33334 16C2.33334 14.1556 2.68357 12.4222 3.38401 10.8C4.08357 9.17778 5.03334 7.76666 6.23334 6.56666C7.43334 5.36666 8.84445 4.41644 10.4667 3.716C12.0889 3.01644 13.8222 2.66666 15.6667 2.66666C17.5111 2.66666 19.2445 3.01644 20.8667 3.716C22.4889 4.41644 23.9 5.36666 25.1 6.56666C26.3 7.76666 27.2498 9.17778 27.9493 10.8C28.6498 12.4222 29 14.1556 29 16C29 17.8444 28.6498 19.5778 27.9493 21.2C27.2498 22.8222 26.3 24.2333 25.1 25.4333C23.9 26.6333 22.4889 27.5831 20.8667 28.2827C19.2445 28.9831 17.5111 29.3333 15.6667 29.3333ZM15.6667 26.6667C18.6222 26.6667 21.1391 25.628 23.2173 23.5507C25.2947 21.4724 26.3333 18.9556 26.3333 16C26.3333 13.0444 25.2947 10.5276 23.2173 8.44933C21.1391 6.372 18.6222 5.33333 15.6667 5.33333C12.7111 5.33333 10.1947 6.372 8.11734 8.44933C6.03912 10.5276 5.00001 13.0444 5.00001 16C5.00001 18.9556 6.03912 21.4724 8.11734 23.5507C10.1947 25.628 12.7111 26.6667 15.6667 26.6667Z" fill="url(#paint0_linear_441_3599)"/>
<defs>
<linearGradient id="paint0_linear_441_3599" x1="15.6667" y1="2.66666" x2="15.6667" y2="29.3333" gradientUnits="userSpaceOnUse">
<stop stop-color="#FFB906"/>
<stop offset="1" stop-color="#FF5C00"/>
</linearGradient>
</defs>
</svg>
