<svg width="54" height="54" viewBox="0 0 54 54" fill="none" xmlns="http://www.w3.org/2000/svg">
<path d="M23.8297 5.65437C25.8629 4.83005 28.1371 4.83005 30.1703 5.65437L47.0407 12.4944C47.7674 12.7887 48.3897 13.2933 48.8278 13.9435C49.2659 14.5937 49.5 15.3598 49.5 16.1439V37.1251C49.5046 33.9661 48.2966 30.9257 46.125 28.6314V17.4894L28.6875 24.2214V28.0734C27.1178 29.5351 25.9548 31.3796 25.3125 33.4261V24.2191L7.875 17.4376V37.8631C7.87529 37.9748 7.90883 38.0839 7.97134 38.1764C8.03385 38.269 8.1225 38.3409 8.226 38.3829L25.0987 45.2229C25.1527 45.2454 25.2068 45.2679 25.2608 45.2859L25.7378 45.4794C26.48 45.7812 27.3055 45.8092 28.0665 45.5581C28.953 46.5121 29.988 47.3244 31.1355 47.9589L30.168 48.3504C28.1355 49.1741 25.8622 49.1741 23.8297 48.3504L6.95925 41.5104C6.23257 41.216 5.61031 40.7114 5.17218 40.0613C4.73405 39.4111 4.5 38.6449 4.5 37.8609V16.1461C4.5 15.3621 4.73405 14.5959 5.17218 13.9457C5.61031 13.2955 6.23257 12.791 6.95925 12.4966L23.8297 5.65662V5.65437ZM28.9013 8.78187C27.6819 8.28777 26.3181 8.28777 25.0987 8.78187L20.79 10.5301L37.7258 17.1159L43.731 14.7984L28.899 8.78412L28.9013 8.78187ZM33.0547 18.9181L16.2338 12.3751L10.3275 14.7691L27.0023 21.2536L33.0547 18.9181ZM49.5 37.2669V37.1274V37.2669ZM45.378 42.9931C46.8491 40.9239 47.4892 38.3776 47.1714 35.8587C46.8536 33.3399 45.6011 31.0323 43.6621 29.3934C41.7231 27.7545 39.2392 26.9038 36.7026 27.01C34.166 27.1162 31.7618 28.1715 29.9666 29.9667C28.1714 31.7619 27.1161 34.1661 27.0099 36.7027C26.9037 39.2393 27.7544 41.7233 29.3933 43.6622C31.0322 45.6012 33.3398 46.8537 35.8586 47.1715C38.3775 47.4893 40.9238 46.8492 42.993 45.3781L48.87 51.2574C49.0245 51.4232 49.2108 51.5561 49.4178 51.6484C49.6248 51.7406 49.8482 51.7902 50.0748 51.7942C50.3014 51.7982 50.5265 51.7565 50.7366 51.6716C50.9467 51.5868 51.1376 51.4604 51.2978 51.3002C51.4581 51.14 51.5844 50.9491 51.6693 50.739C51.7541 50.5288 51.7958 50.3038 51.7918 50.0772C51.7878 49.8506 51.7382 49.6272 51.646 49.4202C51.5538 49.2132 51.4208 49.0269 51.255 48.8724L45.378 42.9931ZM43.875 37.1274C43.875 38.9176 43.1638 40.6345 41.898 41.9003C40.6321 43.1662 38.9152 43.8774 37.125 43.8774C35.3348 43.8774 33.6179 43.1662 32.352 41.9003C31.0862 40.6345 30.375 38.9176 30.375 37.1274C30.375 35.3372 31.0862 33.6203 32.352 32.3544C33.6179 31.0885 35.3348 30.3774 37.125 30.3774C38.9152 30.3774 40.6321 31.0885 41.898 32.3544C43.1638 33.6203 43.875 35.3372 43.875 37.1274Z" fill="#222222"/>
<path d="M23.8297 5.65437C25.8629 4.83005 28.1371 4.83005 30.1703 5.65437L47.0407 12.4944C47.7674 12.7887 48.3897 13.2933 48.8278 13.9435C49.2659 14.5937 49.5 15.3598 49.5 16.1439V37.1251C49.5046 33.9661 48.2966 30.9257 46.125 28.6314V17.4894L28.6875 24.2214V28.0734C27.1178 29.5351 25.9548 31.3796 25.3125 33.4261V24.2191L7.875 17.4376V37.8631C7.87529 37.9748 7.90883 38.0839 7.97134 38.1764C8.03385 38.269 8.1225 38.3409 8.226 38.3829L25.0987 45.2229C25.1527 45.2454 25.2068 45.2679 25.2608 45.2859L25.7378 45.4794C26.48 45.7812 27.3055 45.8092 28.0665 45.5581C28.953 46.5121 29.988 47.3244 31.1355 47.9589L30.168 48.3504C28.1355 49.1741 25.8622 49.1741 23.8297 48.3504L6.95925 41.5104C6.23257 41.216 5.61031 40.7114 5.17218 40.0613C4.73405 39.4111 4.5 38.6449 4.5 37.8609V16.1461C4.5 15.3621 4.73405 14.5959 5.17218 13.9457C5.61031 13.2955 6.23257 12.791 6.95925 12.4966L23.8297 5.65662V5.65437ZM28.9013 8.78187C27.6819 8.28777 26.3181 8.28777 25.0987 8.78187L20.79 10.5301L37.7258 17.1159L43.731 14.7984L28.899 8.78412L28.9013 8.78187ZM33.0547 18.9181L16.2338 12.3751L10.3275 14.7691L27.0023 21.2536L33.0547 18.9181ZM49.5 37.2669V37.1274V37.2669ZM45.378 42.9931C46.8491 40.9239 47.4892 38.3776 47.1714 35.8587C46.8536 33.3399 45.6011 31.0323 43.6621 29.3934C41.7231 27.7545 39.2392 26.9038 36.7026 27.01C34.166 27.1162 31.7618 28.1715 29.9666 29.9667C28.1714 31.7619 27.1161 34.1661 27.0099 36.7027C26.9037 39.2393 27.7544 41.7233 29.3933 43.6622C31.0322 45.6012 33.3398 46.8537 35.8586 47.1715C38.3775 47.4893 40.9238 46.8492 42.993 45.3781L48.87 51.2574C49.0245 51.4232 49.2108 51.5561 49.4178 51.6484C49.6248 51.7406 49.8482 51.7902 50.0748 51.7942C50.3014 51.7982 50.5265 51.7565 50.7366 51.6716C50.9467 51.5868 51.1376 51.4604 51.2978 51.3002C51.4581 51.14 51.5844 50.9491 51.6693 50.739C51.7541 50.5288 51.7958 50.3038 51.7918 50.0772C51.7878 49.8506 51.7382 49.6272 51.646 49.4202C51.5538 49.2132 51.4208 49.0269 51.255 48.8724L45.378 42.9931ZM43.875 37.1274C43.875 38.9176 43.1638 40.6345 41.898 41.9003C40.6321 43.1662 38.9152 43.8774 37.125 43.8774C35.3348 43.8774 33.6179 43.1662 32.352 41.9003C31.0862 40.6345 30.375 38.9176 30.375 37.1274C30.375 35.3372 31.0862 33.6203 32.352 32.3544C33.6179 31.0885 35.3348 30.3774 37.125 30.3774C38.9152 30.3774 40.6321 31.0885 41.898 32.3544C43.1638 33.6203 43.875 35.3372 43.875 37.1274Z" fill="url(#paint0_linear_101_12363)"/>
<defs>
<linearGradient id="paint0_linear_101_12363" x1="28.146" y1="5.03613" x2="28.146" y2="51.7945" gradientUnits="userSpaceOnUse">
<stop stop-color="#FFB906"/>
<stop offset="1" stop-color="#FF5C00"/>
</linearGradient>
</defs>
</svg>
