<svg width="94" height="94" viewBox="0 0 94 94" fill="none" xmlns="http://www.w3.org/2000/svg">
<path d="M78.3333 78.3333V58.75H58.75M15.6667 15.6666V35.25H35.25M78.0905 43.0833C77.2706 36.5715 74.4269 30.4814 69.9605 25.6723C65.4941 20.8632 59.6305 17.5778 53.1969 16.2797C46.7633 14.9815 40.0845 15.7362 34.1027 18.4371C28.121 21.138 23.1383 25.6489 19.8575 31.3333M15.9095 50.9166C16.7293 57.4285 19.5731 63.5186 24.0395 68.3277C28.5059 73.1368 34.3695 76.4221 40.8031 77.7203C47.2367 79.0184 53.9155 78.2638 59.8972 75.5629C65.879 72.8619 70.8617 68.3511 74.1425 62.6666" stroke="#222222" stroke-width="2" stroke-linecap="round" stroke-linejoin="round"/>
</svg>
