<svg width="24" height="25" viewBox="0 0 24 25" fill="none" xmlns="http://www.w3.org/2000/svg">
<g clip-path="url(#clip0_97_12320)">
<path d="M6.53333 13.0333H17.4667V15.0866H18.5333V11.9666H12.5333V9.83325H11.4667V11.9666H5.46667V15.0866H6.53333V13.0333Z" fill="#FF6C05"/>
<path d="M6.53333 13.0333H17.4667V15.0866H18.5333V11.9666H12.5333V9.83325H11.4667V11.9666H5.46667V15.0866H6.53333V13.0333Z" fill="url(#paint0_linear_97_12320)"/>
<path d="M9.33333 15.8333H2.66667C2.31304 15.8333 1.97391 15.9737 1.72386 16.2238C1.47381 16.4738 1.33333 16.813 1.33333 17.1666V21.1666C1.33333 21.5202 1.47381 21.8593 1.72386 22.1094C1.97391 22.3594 2.31304 22.4999 2.66667 22.4999H9.33333C9.68695 22.4999 10.0261 22.3594 10.2761 22.1094C10.5262 21.8593 10.6667 21.5202 10.6667 21.1666V17.1666C10.6667 16.813 10.5262 16.4738 10.2761 16.2238C10.0261 15.9737 9.68695 15.8333 9.33333 15.8333ZM2.66667 21.1666V17.1666H9.33333V21.1666H2.66667Z" fill="#FF6C05"/>
<path d="M9.33333 15.8333H2.66667C2.31304 15.8333 1.97391 15.9737 1.72386 16.2238C1.47381 16.4738 1.33333 16.813 1.33333 17.1666V21.1666C1.33333 21.5202 1.47381 21.8593 1.72386 22.1094C1.97391 22.3594 2.31304 22.4999 2.66667 22.4999H9.33333C9.68695 22.4999 10.0261 22.3594 10.2761 22.1094C10.5262 21.8593 10.6667 21.5202 10.6667 21.1666V17.1666C10.6667 16.813 10.5262 16.4738 10.2761 16.2238C10.0261 15.9737 9.68695 15.8333 9.33333 15.8333ZM2.66667 21.1666V17.1666H9.33333V21.1666H2.66667Z" fill="url(#paint1_linear_97_12320)"/>
<path d="M21.3333 15.8333H14.6667C14.313 15.8333 13.9739 15.9737 13.7239 16.2238C13.4738 16.4738 13.3333 16.813 13.3333 17.1666V21.1666C13.3333 21.5202 13.4738 21.8593 13.7239 22.1094C13.9739 22.3594 14.313 22.4999 14.6667 22.4999H21.3333C21.687 22.4999 22.0261 22.3594 22.2761 22.1094C22.5262 21.8593 22.6667 21.5202 22.6667 21.1666V17.1666C22.6667 16.813 22.5262 16.4738 22.2761 16.2238C22.0261 15.9737 21.687 15.8333 21.3333 15.8333ZM14.6667 21.1666V17.1666H21.3333V21.1666H14.6667Z" fill="#FF6C05"/>
<path d="M21.3333 15.8333H14.6667C14.313 15.8333 13.9739 15.9737 13.7239 16.2238C13.4738 16.4738 13.3333 16.813 13.3333 17.1666V21.1666C13.3333 21.5202 13.4738 21.8593 13.7239 22.1094C13.9739 22.3594 14.313 22.4999 14.6667 22.4999H21.3333C21.687 22.4999 22.0261 22.3594 22.2761 22.1094C22.5262 21.8593 22.6667 21.5202 22.6667 21.1666V17.1666C22.6667 16.813 22.5262 16.4738 22.2761 16.2238C22.0261 15.9737 21.687 15.8333 21.3333 15.8333ZM14.6667 21.1666V17.1666H21.3333V21.1666H14.6667Z" fill="url(#paint2_linear_97_12320)"/>
<path d="M8.66667 9.16667H15.3333C15.687 9.16667 16.0261 9.02619 16.2761 8.77614C16.5262 8.52609 16.6667 8.18695 16.6667 7.83333V3.83333C16.6667 3.47971 16.5262 3.14057 16.2761 2.89052C16.0261 2.64048 15.687 2.5 15.3333 2.5H8.66667C8.31305 2.5 7.97391 2.64048 7.72386 2.89052C7.47381 3.14057 7.33333 3.47971 7.33333 3.83333V7.83333C7.33333 8.18695 7.47381 8.52609 7.72386 8.77614C7.97391 9.02619 8.31305 9.16667 8.66667 9.16667ZM8.66667 3.83333H15.3333V7.83333H8.66667V3.83333Z" fill="#FF6C05"/>
<path d="M8.66667 9.16667H15.3333C15.687 9.16667 16.0261 9.02619 16.2761 8.77614C16.5262 8.52609 16.6667 8.18695 16.6667 7.83333V3.83333C16.6667 3.47971 16.5262 3.14057 16.2761 2.89052C16.0261 2.64048 15.687 2.5 15.3333 2.5H8.66667C8.31305 2.5 7.97391 2.64048 7.72386 2.89052C7.47381 3.14057 7.33333 3.47971 7.33333 3.83333V7.83333C7.33333 8.18695 7.47381 8.52609 7.72386 8.77614C7.97391 9.02619 8.31305 9.16667 8.66667 9.16667ZM8.66667 3.83333H15.3333V7.83333H8.66667V3.83333Z" fill="url(#paint3_linear_97_12320)"/>
</g>
<defs>
<linearGradient id="paint0_linear_97_12320" x1="12" y1="9.83325" x2="12" y2="15.0866" gradientUnits="userSpaceOnUse">
<stop stop-color="#FFB906"/>
<stop offset="1" stop-color="#FF5C00"/>
</linearGradient>
<linearGradient id="paint1_linear_97_12320" x1="6" y1="15.8333" x2="6" y2="22.4999" gradientUnits="userSpaceOnUse">
<stop stop-color="#FFB906"/>
<stop offset="1" stop-color="#FF5C00"/>
</linearGradient>
<linearGradient id="paint2_linear_97_12320" x1="18" y1="15.8333" x2="18" y2="22.4999" gradientUnits="userSpaceOnUse">
<stop stop-color="#FFB906"/>
<stop offset="1" stop-color="#FF5C00"/>
</linearGradient>
<linearGradient id="paint3_linear_97_12320" x1="12" y1="2.5" x2="12" y2="9.16667" gradientUnits="userSpaceOnUse">
<stop stop-color="#FFB906"/>
<stop offset="1" stop-color="#FF5C00"/>
</linearGradient>
<clipPath id="clip0_97_12320">
<rect width="24" height="24" fill="white" transform="translate(0 0.5)"/>
</clipPath>
</defs>
</svg>
