<svg width="54" height="54" viewBox="0 0 54 54" fill="none" xmlns="http://www.w3.org/2000/svg">
<g clip-path="url(#clip0_159_15)">
<path d="M21.4444 43.6667V43.3694C21.4444 41.1611 20.0667 39.2361 18.3417 37.8583C16.0902 36.0628 14.4525 33.6117 13.6553 30.8445C12.8581 28.0772 12.9408 25.1306 13.8919 22.4124C14.8431 19.6942 16.6157 17.3389 18.9643 15.6724C21.313 14.006 24.1216 13.1108 27.0014 13.1108C29.8812 13.1108 32.6898 14.006 35.0385 15.6724C37.3871 17.3389 39.1597 19.6942 40.1108 22.4124C41.062 25.1306 41.1447 28.0772 40.3475 30.8445C39.5503 33.6117 37.9126 36.0628 35.6611 37.8583C33.9333 39.2389 32.5556 41.1611 32.5556 43.3694V43.6667M21.4444 43.6667V49.2222C21.4444 49.9589 21.7371 50.6655 22.258 51.1864C22.779 51.7073 23.4855 52 24.2222 52H29.7778C30.5145 52 31.221 51.7073 31.742 51.1864C32.2629 50.6655 32.5556 49.9589 32.5556 49.2222V43.6667M21.4444 43.6667H32.5556M49.2222 27H52M4.77778 27H2M27 4.77778V2M42.7139 11.2861L44.6778 9.32222M11.2889 11.2861L9.32222 9.32222M27 35.3333V29.7778" stroke="#222222" stroke-width="4" stroke-linecap="round" stroke-linejoin="round"/>
<path d="M21.4444 43.6667V43.3694C21.4444 41.1611 20.0667 39.2361 18.3417 37.8583C16.0902 36.0628 14.4525 33.6117 13.6553 30.8445C12.8581 28.0772 12.9408 25.1306 13.8919 22.4124C14.8431 19.6942 16.6157 17.3389 18.9643 15.6724C21.313 14.006 24.1216 13.1108 27.0014 13.1108C29.8812 13.1108 32.6898 14.006 35.0385 15.6724C37.3871 17.3389 39.1597 19.6942 40.1108 22.4124C41.062 25.1306 41.1447 28.0772 40.3475 30.8445C39.5503 33.6117 37.9126 36.0628 35.6611 37.8583C33.9333 39.2389 32.5556 41.1611 32.5556 43.3694V43.6667M21.4444 43.6667V49.2222C21.4444 49.9589 21.7371 50.6655 22.258 51.1864C22.779 51.7073 23.4855 52 24.2222 52H29.7778C30.5145 52 31.221 51.7073 31.742 51.1864C32.2629 50.6655 32.5556 49.9589 32.5556 49.2222V43.6667M21.4444 43.6667H32.5556M49.2222 27H52M4.77778 27H2M27 4.77778V2M42.7139 11.2861L44.6778 9.32222M11.2889 11.2861L9.32222 9.32222M27 35.3333V29.7778" stroke="url(#paint0_linear_159_15)" stroke-width="4" stroke-linecap="round" stroke-linejoin="round"/>
</g>
<defs>
<linearGradient id="paint0_linear_159_15" x1="27" y1="2" x2="27" y2="52" gradientUnits="userSpaceOnUse">
<stop stop-color="#FFB906"/>
<stop offset="1" stop-color="#FF5C00"/>
</linearGradient>
<clipPath id="clip0_159_15">
<rect width="54" height="54" fill="white"/>
</clipPath>
</defs>
</svg>
