<svg width="24" height="25" viewBox="0 0 24 25" fill="none" xmlns="http://www.w3.org/2000/svg">
<g clip-path="url(#clip0_97_12326)">
<path d="M20.4933 10.6266C19.25 9.34489 17.6573 8.45697 15.9133 8.0733C14.6329 7.7515 13.32 7.57704 12 7.5533V4.01996C11.9791 3.42107 11.7219 2.85481 11.2846 2.44503C10.8474 2.03525 10.2656 1.81531 9.66665 1.8333C9.06766 1.81531 8.48592 2.03525 8.04866 2.44503C7.6114 2.85481 7.3542 3.42107 7.33332 4.01996V10.6866L6.26665 9.6333C5.79678 9.17239 5.16485 8.91419 4.50665 8.91419C3.84846 8.91419 3.21653 9.17239 2.74665 9.6333C2.51124 9.86074 2.32385 10.1331 2.1956 10.4343C2.06734 10.7354 2.00083 11.0593 1.99999 11.3866C1.98776 12.0213 2.22748 12.635 2.66665 13.0933L5.77332 16.7733C5.9232 17.7136 6.24646 18.6178 6.72666 19.44C7.07749 20.0722 7.52768 20.6439 8.05999 21.1333V22.4133C8.05789 22.5958 8.12584 22.7722 8.24986 22.9061C8.37387 23.0401 8.54451 23.1214 8.72666 23.1333H18C18.1821 23.1214 18.3528 23.0401 18.4768 22.9061C18.6008 22.7722 18.6688 22.5958 18.6667 22.4133V20.6133C19.9767 19.0535 20.686 17.0768 20.6667 15.04V11.04C20.6583 10.8863 20.5971 10.7403 20.4933 10.6266ZM19.3333 15.0733C19.3759 16.8458 18.7581 18.5708 17.6 19.9133C17.4528 20.0332 17.3574 20.205 17.3333 20.3933V21.8333H9.42665V20.8466C9.42682 20.7374 9.40016 20.6299 9.34901 20.5334C9.29786 20.4369 9.22379 20.3545 9.13332 20.2933C8.63371 19.8837 8.22116 19.3782 7.91999 18.8066C7.49532 18.0875 7.22302 17.2887 7.11999 16.46C7.11284 16.3157 7.05903 16.1777 6.96665 16.0666L3.68665 12.1866C3.57982 12.0812 3.495 11.9556 3.4371 11.8171C3.37921 11.6787 3.34939 11.5301 3.34939 11.38C3.34939 11.2299 3.37921 11.0813 3.4371 10.9428C3.495 10.8043 3.57982 10.6787 3.68665 10.5733C3.90616 10.3571 4.20189 10.2359 4.50999 10.2359C4.81808 10.2359 5.11381 10.3571 5.33332 10.5733L7.33332 12.5733V14.6666L8.66665 14V4.01996C8.69037 3.77591 8.80786 3.55058 8.99438 3.39142C9.18091 3.23225 9.42191 3.15167 9.66665 3.16663C9.9114 3.15167 10.1524 3.23225 10.3389 3.39142C10.5254 3.55058 10.6429 3.77591 10.6667 4.01996V11.8866L12 12.1733V8.8933C12.5595 8.90434 13.118 8.94439 13.6733 9.0133V12.5L14.74 12.7333V9.16663C15.0133 9.21997 15.2933 9.27996 15.58 9.3533C15.9256 9.44374 16.2661 9.55279 16.6 9.67997V13.1133L17.6667 13.3466V10.1666C18.2727 10.4725 18.8335 10.8606 19.3333 11.32V15.0733Z" fill="#FF6C05"/>
<path d="M20.4933 10.6266C19.25 9.34489 17.6573 8.45697 15.9133 8.0733C14.6329 7.7515 13.32 7.57704 12 7.5533V4.01996C11.9791 3.42107 11.7219 2.85481 11.2846 2.44503C10.8474 2.03525 10.2656 1.81531 9.66665 1.8333C9.06766 1.81531 8.48592 2.03525 8.04866 2.44503C7.6114 2.85481 7.3542 3.42107 7.33332 4.01996V10.6866L6.26665 9.6333C5.79678 9.17239 5.16485 8.91419 4.50665 8.91419C3.84846 8.91419 3.21653 9.17239 2.74665 9.6333C2.51124 9.86074 2.32385 10.1331 2.1956 10.4343C2.06734 10.7354 2.00083 11.0593 1.99999 11.3866C1.98776 12.0213 2.22748 12.635 2.66665 13.0933L5.77332 16.7733C5.9232 17.7136 6.24646 18.6178 6.72666 19.44C7.07749 20.0722 7.52768 20.6439 8.05999 21.1333V22.4133C8.05789 22.5958 8.12584 22.7722 8.24986 22.9061C8.37387 23.0401 8.54451 23.1214 8.72666 23.1333H18C18.1821 23.1214 18.3528 23.0401 18.4768 22.9061C18.6008 22.7722 18.6688 22.5958 18.6667 22.4133V20.6133C19.9767 19.0535 20.686 17.0768 20.6667 15.04V11.04C20.6583 10.8863 20.5971 10.7403 20.4933 10.6266ZM19.3333 15.0733C19.3759 16.8458 18.7581 18.5708 17.6 19.9133C17.4528 20.0332 17.3574 20.205 17.3333 20.3933V21.8333H9.42665V20.8466C9.42682 20.7374 9.40016 20.6299 9.34901 20.5334C9.29786 20.4369 9.22379 20.3545 9.13332 20.2933C8.63371 19.8837 8.22116 19.3782 7.91999 18.8066C7.49532 18.0875 7.22302 17.2887 7.11999 16.46C7.11284 16.3157 7.05903 16.1777 6.96665 16.0666L3.68665 12.1866C3.57982 12.0812 3.495 11.9556 3.4371 11.8171C3.37921 11.6787 3.34939 11.5301 3.34939 11.38C3.34939 11.2299 3.37921 11.0813 3.4371 10.9428C3.495 10.8043 3.57982 10.6787 3.68665 10.5733C3.90616 10.3571 4.20189 10.2359 4.50999 10.2359C4.81808 10.2359 5.11381 10.3571 5.33332 10.5733L7.33332 12.5733V14.6666L8.66665 14V4.01996C8.69037 3.77591 8.80786 3.55058 8.99438 3.39142C9.18091 3.23225 9.42191 3.15167 9.66665 3.16663C9.9114 3.15167 10.1524 3.23225 10.3389 3.39142C10.5254 3.55058 10.6429 3.77591 10.6667 4.01996V11.8866L12 12.1733V8.8933C12.5595 8.90434 13.118 8.94439 13.6733 9.0133V12.5L14.74 12.7333V9.16663C15.0133 9.21997 15.2933 9.27996 15.58 9.3533C15.9256 9.44374 16.2661 9.55279 16.6 9.67997V13.1133L17.6667 13.3466V10.1666C18.2727 10.4725 18.8335 10.8606 19.3333 11.32V15.0733Z" fill="url(#paint0_linear_97_12326)"/>
</g>
<defs>
<linearGradient id="paint0_linear_97_12326" x1="11.3333" y1="1.83228" x2="11.3333" y2="23.1333" gradientUnits="userSpaceOnUse">
<stop stop-color="#FFB906"/>
<stop offset="1" stop-color="#FF5C00"/>
</linearGradient>
<clipPath id="clip0_97_12326">
<rect width="24" height="24" fill="white" transform="translate(0 0.5)"/>
</clipPath>
</defs>
</svg>
