<svg width="94" height="94" viewBox="0 0 94 94" fill="none" xmlns="http://www.w3.org/2000/svg">
<path d="M31.3333 50.9167L41.125 60.7084L62.6667 39.1667" stroke="#222222" stroke-width="2" stroke-linecap="round" stroke-linejoin="round"/>
<path d="M82.25 47C82.25 51.6291 81.3382 56.2129 79.5668 60.4896C77.7953 64.7663 75.1988 68.6522 71.9255 71.9255C68.6522 75.1988 64.7663 77.7953 60.4896 79.5668C56.2129 81.3382 51.6291 82.25 47 82.25C42.3709 82.25 37.7871 81.3382 33.5104 79.5668C29.2337 77.7953 25.3478 75.1988 22.0745 71.9255C18.8012 68.6522 16.2047 64.7663 14.4332 60.4896C12.6618 56.2129 11.75 51.6291 11.75 47C11.75 37.6511 15.4638 28.6851 22.0745 22.0745C28.6851 15.4638 37.6511 11.75 47 11.75C56.3489 11.75 65.3149 15.4638 71.9255 22.0745C78.5362 28.6851 82.25 37.6511 82.25 47Z" stroke="#222222" stroke-width="2"/>
</svg>
