<svg width="140" height="168" viewBox="0 0 140 168" fill="none" xmlns="http://www.w3.org/2000/svg">
<g clip-path="url(#clip0_57_12075)">
<path d="M39.025 14.5181C39.9162 14.9466 40.6683 15.6181 41.1946 16.4552C41.7209 17.2924 42.0001 18.2612 42 19.2501C42 25.0601 44.184 28.4061 46.921 32.4801L47.124 32.7741C49.448 36.2321 52.5 40.7611 52.5 47.2501C52.5 53.8721 49.161 59.7101 44.072 63.1751C45.409 64.2951 46.592 65.6741 47.614 67.3261C50.946 72.7161 52.5 80.9551 52.5 92.785C52.5 104.769 50.89 119.161 48.265 130.655C46.963 136.367 45.346 141.638 43.421 145.593C42.5122 147.561 41.3083 149.378 39.851 150.983C38.409 152.46 36.19 154.035 33.25 154.035C30.31 154.035 28.091 152.46 26.656 150.983C25.1945 149.382 23.9902 147.564 23.086 145.593C21.154 141.631 19.537 136.367 18.235 130.648C15.5046 118.207 14.0852 105.515 14 92.7781C14 80.9481 15.554 72.7161 18.886 67.3261C19.8366 65.7615 21.0325 64.36 22.428 63.1751C19.8294 61.4108 17.7026 59.0369 16.2334 56.2608C14.7642 53.4847 13.9974 50.3909 14 47.2501C14 44.6741 14 40.2431 16.681 34.5241C19.306 28.9241 24.297 22.4911 33.467 15.1481C34.2399 14.5298 35.1717 14.1427 36.1551 14.0312C37.1385 13.9197 38.1334 14.0885 39.025 14.5181ZM24.5 47.2431V47.2501C24.5 49.5707 25.4219 51.7963 27.0628 53.4372C28.7038 55.0782 30.9294 56.0001 33.25 56.0001C35.5707 56.0001 37.7962 55.0782 39.4372 53.4372C41.0781 51.7963 42 49.5707 42 47.2501C42 44.1771 40.705 42.0491 38.206 38.3321L38.122 38.2061C36.519 35.8261 34.622 33.0051 33.278 29.3861C29.477 33.2501 27.377 36.4561 26.194 38.9761C24.5 42.5881 24.5 45.1571 24.5 47.2361V47.2431ZM27.818 72.8421C26.082 75.6561 24.5 81.424 24.5 92.785C24.5 103.992 26.026 117.6 28.469 128.317C29.701 133.707 31.101 138.082 32.522 140.994C32.781 141.533 33.026 141.981 33.25 142.359C33.474 141.981 33.719 141.533 33.978 140.994C35.399 138.082 36.799 133.7 38.031 128.317C40.481 117.607 42 103.999 42 92.785C42 81.424 40.418 75.6561 38.682 72.8421C38.1584 71.8947 37.3671 71.1228 36.407 70.6231C35.4129 70.1901 34.3333 69.989 33.25 70.0351C31.85 70.0351 30.849 70.2521 30.093 70.6231C29.1329 71.1228 28.3416 71.8947 27.818 72.8421ZM70 104.426C66.2915 103.804 62.6841 102.683 59.276 101.094C59.4809 97.1239 59.5392 93.1475 59.451 89.1731C62.608 91.2941 66.171 92.855 70 93.7231V73.5001C70 70.7153 71.1063 68.0446 73.0754 66.0754C75.0445 64.1063 77.7152 63.0001 80.5 63.0001H108.5C108.5 57.1249 106.856 51.3669 103.756 46.3767C100.655 41.3865 96.2201 37.3629 90.9528 34.7605C85.6854 32.1581 79.7952 31.0807 73.9478 31.65C68.1003 32.2193 62.5285 34.4126 57.862 37.9821C56.462 34.1111 54.467 31.1501 53.081 29.0921L52.801 28.6721C59.0902 24.2386 66.4765 21.6181 74.1536 21.0966C81.8307 20.5751 89.5035 22.1727 96.3345 25.7149C103.165 29.2572 108.892 34.6079 112.889 41.1832C116.886 47.7584 119 55.3053 119 63.0001H143.5C146.285 63.0001 148.955 64.1063 150.925 66.0754C152.894 68.0446 154 70.7153 154 73.5001V136.5C154 139.285 152.894 141.956 150.925 143.925C148.955 145.894 146.285 147 143.5 147H80.5C77.7152 147 75.0445 145.894 73.0754 143.925C71.1063 141.956 70 139.285 70 136.5V104.419V104.426ZM80.5 104.867V136.507H143.5V73.5071H117.67C115.489 81.9422 110.741 89.4911 104.082 95.1093C97.4225 100.728 89.1819 104.137 80.5 104.867ZM106.708 73.5071H80.5V94.3181C86.3814 93.6586 91.9584 91.3572 96.5931 87.6768C101.228 83.9966 104.733 79.0861 106.708 73.5071Z" fill="url(#paint0_linear_57_12075)"/>
</g>
<defs>
<linearGradient id="paint0_linear_57_12075" x1="84" y1="13.9978" x2="84" y2="154.035" gradientUnits="userSpaceOnUse">
<stop stop-color="#FFB906"/>
<stop offset="1" stop-color="#FF5C00"/>
</linearGradient>
<clipPath id="clip0_57_12075">
<rect width="140" height="168" fill="white"/>
</clipPath>
</defs>
</svg>
