<svg width="24" height="25" viewBox="0 0 24 25" fill="none" xmlns="http://www.w3.org/2000/svg">
<path fill-rule="evenodd" clip-rule="evenodd" d="M12.9 2.00004C15.3 2.15004 17.55 3.35004 19.2 5.00004C21.15 7.10004 22.2 9.65004 22.2 12.65C22.2 15.05 21.3 17.3 19.8 19.25C18.3 21.05 16.2 22.4 13.8 22.85C11.4 23.3 9 23 6.9 21.8C4.8 20.6 3.15 18.8 2.25 16.55C1.35 14.3 1.2 11.75 1.95 9.50004C2.7 7.10004 4.05 5.15004 6.15 3.80004C8.1 2.45004 10.5 1.85004 12.9 2.00004ZM13.65 21.35C15.6 20.9 17.4 19.85 18.75 18.2C19.95 16.55 20.7 14.6 20.55 12.5C20.55 10.1 19.65 7.70004 18 6.05004C16.5 4.55004 14.7 3.65004 12.6 3.50004C10.65 3.35004 8.55 3.80004 6.9 5.00004C5.25 6.20004 4.05 7.85004 3.45 9.95004C2.85 11.9 2.85 14 3.75 15.95C4.65 17.9 6 19.4 7.8 20.45C9.6 21.5 11.7 21.8 13.65 21.35Z" fill="#FF6C05"/>
<path fill-rule="evenodd" clip-rule="evenodd" d="M12.9 2.00004C15.3 2.15004 17.55 3.35004 19.2 5.00004C21.15 7.10004 22.2 9.65004 22.2 12.65C22.2 15.05 21.3 17.3 19.8 19.25C18.3 21.05 16.2 22.4 13.8 22.85C11.4 23.3 9 23 6.9 21.8C4.8 20.6 3.15 18.8 2.25 16.55C1.35 14.3 1.2 11.75 1.95 9.50004C2.7 7.10004 4.05 5.15004 6.15 3.80004C8.1 2.45004 10.5 1.85004 12.9 2.00004ZM13.65 21.35C15.6 20.9 17.4 19.85 18.75 18.2C19.95 16.55 20.7 14.6 20.55 12.5C20.55 10.1 19.65 7.70004 18 6.05004C16.5 4.55004 14.7 3.65004 12.6 3.50004C10.65 3.35004 8.55 3.80004 6.9 5.00004C5.25 6.20004 4.05 7.85004 3.45 9.95004C2.85 11.9 2.85 14 3.75 15.95C4.65 17.9 6 19.4 7.8 20.45C9.6 21.5 11.7 21.8 13.65 21.35Z" fill="url(#paint0_linear_97_12329)"/>
<path fill-rule="evenodd" clip-rule="evenodd" d="M9 7.99998L10.1655 7.37598L16.9155 11.876V13.124L10.1655 17.624L9 17V7.99998ZM10.5 9.40098V15.599L15.1485 12.5L10.5 9.40098Z" fill="#FF6C05"/>
<path fill-rule="evenodd" clip-rule="evenodd" d="M9 7.99998L10.1655 7.37598L16.9155 11.876V13.124L10.1655 17.624L9 17V7.99998ZM10.5 9.40098V15.599L15.1485 12.5L10.5 9.40098Z" fill="url(#paint1_linear_97_12329)"/>
<defs>
<linearGradient id="paint0_linear_97_12329" x1="11.8349" y1="1.97754" x2="11.8349" y2="23.0487" gradientUnits="userSpaceOnUse">
<stop stop-color="#FFB906"/>
<stop offset="1" stop-color="#FF5C00"/>
</linearGradient>
<linearGradient id="paint1_linear_97_12329" x1="12.9578" y1="7.37598" x2="12.9578" y2="17.624" gradientUnits="userSpaceOnUse">
<stop stop-color="#FFB906"/>
<stop offset="1" stop-color="#FF5C00"/>
</linearGradient>
</defs>
</svg>
