<svg width="113" height="153" viewBox="0 0 113 153" fill="none" xmlns="http://www.w3.org/2000/svg">
<g clip-path="url(#clip0_159_10)">
<path fill-rule="evenodd" clip-rule="evenodd" d="M81.3946 1.42812C84.0725 2.59812 85.6777 5.37445 85.3554 8.279L80.5829 51.2975L123.525 56.0762C125.989 56.3504 128.097 57.967 129.001 60.2748C129.905 62.5825 129.455 65.201 127.834 67.0752L56.2288 149.823C54.3165 152.033 51.1888 152.742 48.5109 151.572C45.833 150.402 44.2278 147.625 44.5501 144.721L49.3225 101.702L6.38005 96.9235C3.91682 96.6494 1.80842 95.0327 0.904513 92.725C0.000608981 90.4173 0.450119 87.7987 2.07189 85.9246L73.6767 3.17652C75.589 0.96666 78.7166 0.258118 81.3946 1.42812ZM20.4676 85.0624L57.4287 89.1755C61.0907 89.583 63.7295 92.8814 63.3232 96.5436L60.1819 124.859L109.438 67.9374L72.4768 63.8243C68.8147 63.4168 66.176 60.1184 66.5823 56.4562L69.7236 28.1412L20.4676 85.0624Z" fill="black"/>
<path fill-rule="evenodd" clip-rule="evenodd" d="M81.3946 1.42812C84.0725 2.59812 85.6777 5.37445 85.3554 8.279L80.5829 51.2975L123.525 56.0762C125.989 56.3504 128.097 57.967 129.001 60.2748C129.905 62.5825 129.455 65.201 127.834 67.0752L56.2288 149.823C54.3165 152.033 51.1888 152.742 48.5109 151.572C45.833 150.402 44.2278 147.625 44.5501 144.721L49.3225 101.702L6.38005 96.9235C3.91682 96.6494 1.80842 95.0327 0.904513 92.725C0.000608981 90.4173 0.450119 87.7987 2.07189 85.9246L73.6767 3.17652C75.589 0.96666 78.7166 0.258118 81.3946 1.42812ZM20.4676 85.0624L57.4287 89.1755C61.0907 89.583 63.7295 92.8814 63.3232 96.5436L60.1819 124.859L109.438 67.9374L72.4768 63.8243C68.8147 63.4168 66.176 60.1184 66.5823 56.4562L69.7236 28.1412L20.4676 85.0624Z" fill="url(#paint0_linear_159_10)"/>
</g>
<defs>
<linearGradient id="paint0_linear_159_10" x1="64.9527" y1="0.869629" x2="64.9527" y2="152.13" gradientUnits="userSpaceOnUse">
<stop stop-color="#FFB906"/>
<stop offset="1" stop-color="#FF5C00"/>
</linearGradient>
<clipPath id="clip0_159_10">
<rect width="113" height="152.15" fill="white" transform="translate(0 0.425293)"/>
</clipPath>
</defs>
</svg>
