<svg width="160" height="199" viewBox="0 0 160 199" fill="none" xmlns="http://www.w3.org/2000/svg">
<g clip-path="url(#clip0_57_12079)">
<path d="M91.9877 63.9389C88.2577 60.2114 83.1996 58.1184 77.9263 58.1203C72.6531 58.1221 67.5965 60.2187 63.869 63.9488C60.1416 67.6789 58.0486 72.7369 58.0504 78.0102C58.0523 83.2835 60.1489 88.3401 63.879 92.0675C65.7259 93.9132 67.9183 95.3769 70.331 96.3753C72.7437 97.3737 75.3293 97.887 77.9404 97.8861C83.2137 97.8842 88.2702 95.7877 91.9977 92.0576C95.7252 88.3275 97.8182 83.2694 97.8163 77.9962C97.8144 72.7229 95.7178 67.6663 91.9877 63.9389ZM70.9136 70.9835C71.8268 70.0253 72.9222 69.2594 74.1356 68.7307C75.3489 68.202 76.6558 67.9212 77.9792 67.9048C79.3027 67.8884 80.616 68.1368 81.8421 68.6353C83.0682 69.1337 84.1823 69.8723 85.1188 70.8075C86.0554 71.7428 86.7955 72.8558 87.2958 74.0812C87.796 75.3066 88.0462 76.6196 88.0317 77.943C88.0172 79.2665 87.7382 80.5737 87.2112 81.7879C86.6843 83.002 85.9199 84.0985 84.963 85.013C83.0881 86.8048 80.5866 87.7921 77.9933 87.7636C75.4 87.7352 72.9207 86.6933 71.0855 84.8608C69.2504 83.0282 68.205 80.5504 68.1728 77.9571C68.1407 75.3638 69.1244 72.8609 70.9136 70.9835ZM82.0975 144.315C84.8809 145.635 88.0048 146.062 91.0404 145.537C94.076 145.011 96.8747 143.559 99.0522 141.38L105.122 135.32L112.395 147.459C112.783 148.109 113.315 148.662 113.949 149.076C114.583 149.489 115.303 149.752 116.055 149.845C116.806 149.939 117.569 149.859 118.285 149.613C119.001 149.366 119.651 148.96 120.186 148.424L148.345 120.256C148.879 119.721 149.284 119.072 149.53 118.358C149.776 117.644 149.856 116.882 149.764 116.133C149.672 115.383 149.41 114.663 148.999 114.03C148.587 113.396 148.037 112.864 147.389 112.475L135.25 105.192L141.32 99.1221C143.495 96.9441 144.944 94.1468 145.468 91.1133C145.992 88.0797 145.565 84.9585 144.245 82.1772L155.389 71.0332C156.322 70.1003 156.846 68.8351 156.846 67.5159C156.846 66.1967 156.322 64.9315 155.389 63.9986L144.842 53.4516C140.48 49.0878 134.873 46.1817 128.792 45.1324C122.712 44.083 116.456 44.9419 110.883 47.591L101.56 38.2679C93.4752 30.183 83.3319 24.4652 72.2294 21.7343C61.1268 19.0034 49.4886 19.3635 38.5762 22.7757C34.8458 23.9426 31.4536 25.9958 28.6898 28.7596C25.926 31.5234 23.8728 34.9156 22.7059 38.646C15.7409 60.8842 21.7109 85.1523 38.1881 101.629L47.5212 110.963C44.8735 116.536 44.0154 122.792 45.0647 128.872C46.114 134.952 49.0193 140.559 53.3817 144.922L63.9287 155.469C64.8617 156.402 66.1269 156.926 67.4461 156.926C68.7653 156.926 70.0304 156.402 70.9634 155.469L82.1074 144.325L82.0975 144.315ZM41.5412 32.278C50.7203 29.4048 60.5107 29.0997 69.8509 31.3957C79.191 33.6917 87.7242 38.5012 94.525 45.3025L102.634 53.4118L102.604 53.4516L109.639 60.4862L109.669 60.4464L130.783 81.5603L130.753 81.6001L134.753 85.61C135.462 86.5678 135.805 87.7486 135.717 88.9374C135.629 90.1262 135.118 91.244 134.275 92.0874L92.0176 134.345C91.1718 135.191 90.0494 135.704 88.8561 135.79C87.6628 135.876 86.4785 135.529 85.5202 134.813L81.5303 130.823L81.4905 130.863L60.3766 109.749L60.4164 109.709L53.3817 102.674L53.3419 102.714L45.2327 94.5948C38.4296 87.795 33.6183 79.2623 31.3205 69.9222C29.0228 60.582 29.3263 50.791 32.1982 41.6111C32.8869 39.4154 34.0976 37.4193 35.7265 35.7939C37.3554 34.1685 39.354 32.962 41.5512 32.278H41.5412ZM74.4558 137.897L67.4411 144.912L60.4164 137.877C57.9462 135.411 56.168 132.338 55.2598 128.968C54.3517 125.597 54.3457 122.047 55.2424 118.674L74.4558 137.897ZM118.614 55.3122C121.986 54.4174 125.534 54.4244 128.903 55.3324C132.271 56.2405 135.342 58.0178 137.807 60.4862L144.832 67.5209L137.817 74.5257L118.614 55.3222V55.3122ZM112.365 128.067L127.987 112.445L136.803 117.719L117.649 136.882L112.375 128.067H112.365ZM141.27 148.365C140.777 147.91 140.381 147.361 140.105 146.749C139.83 146.137 139.681 145.477 139.668 144.806C139.654 144.135 139.777 143.469 140.027 142.847C140.278 142.225 140.652 141.66 141.126 141.186C141.601 140.712 142.167 140.339 142.789 140.089C143.411 139.84 144.078 139.718 144.748 139.733C145.419 139.747 146.08 139.897 146.691 140.173C147.302 140.449 147.851 140.846 148.305 141.34L165.896 158.932C166.372 159.39 166.751 159.939 167.011 160.546C167.272 161.153 167.409 161.806 167.415 162.467C167.421 163.127 167.295 163.782 167.045 164.394C166.795 165.005 166.425 165.561 165.958 166.028C165.491 166.495 164.935 166.864 164.324 167.114C163.713 167.365 163.057 167.491 162.397 167.485C161.736 167.479 161.084 167.342 160.477 167.081C159.87 166.82 159.321 166.441 158.862 165.966L141.27 148.375V148.365ZM155.349 127.261C154.417 128.194 153.893 129.459 153.893 130.778C153.893 132.097 154.417 133.362 155.349 134.295L162.404 141.35C163.338 142.283 164.605 142.806 165.925 142.805C167.245 142.804 168.511 142.279 169.444 141.345C170.376 140.411 170.9 139.144 170.899 137.824C170.898 136.504 170.373 135.238 169.439 134.305L162.384 127.261C161.451 126.328 160.186 125.804 158.867 125.804C157.547 125.804 156.282 126.328 155.349 127.261ZM127.191 162.454C126.321 161.51 125.849 160.266 125.875 158.983C125.901 157.699 126.422 156.475 127.329 155.567C128.236 154.658 129.459 154.136 130.742 154.108C132.026 154.081 133.27 154.55 134.216 155.419L141.28 162.474C142.213 163.408 142.736 164.674 142.736 165.995C142.735 167.315 142.209 168.58 141.275 169.513C140.341 170.446 139.074 170.97 137.754 170.969C136.434 170.968 135.168 170.443 134.235 169.508L127.181 162.454H127.191Z" fill="url(#paint0_linear_57_12079)"/>
</g>
<defs>
<linearGradient id="paint0_linear_57_12079" x1="95.3714" y1="19.9214" x2="95.3714" y2="170.969" gradientUnits="userSpaceOnUse">
<stop stop-color="#FFB906"/>
<stop offset="1" stop-color="#FF5C00"/>
</linearGradient>
<clipPath id="clip0_57_12079">
<rect width="160" height="199" fill="white" transform="matrix(-1 0 0 1 160 0)"/>
</clipPath>
</defs>
</svg>
