<svg width="32" height="32" viewBox="0 0 32 32" fill="none" xmlns="http://www.w3.org/2000/svg">
<path d="M5.33333 6.74667V26.6667C5.33333 27.3739 5.61429 28.0522 6.11438 28.5523C6.61448 29.0524 7.29276 29.3333 8 29.3333H24C24.5028 29.3335 24.9955 29.1915 25.4211 28.9238C25.8466 28.656 26.1879 28.2734 26.4053 27.82L27.6253 29.0413C27.8129 29.2289 28.0674 29.3343 28.3327 29.3343C28.598 29.3343 28.8524 29.2289 29.04 29.0413C29.2276 28.8537 29.333 28.5993 29.333 28.334C29.333 28.0687 29.2276 27.8143 29.04 27.6267L4.37333 2.96C4.28179 2.86175 4.17138 2.78295 4.04872 2.72829C3.92605 2.67364 3.79364 2.64425 3.65936 2.64188C3.52509 2.63951 3.39172 2.66421 3.2672 2.7145C3.14269 2.7648 3.02958 2.83966 2.93462 2.93462C2.83966 3.02958 2.7648 3.14269 2.7145 3.2672C2.66421 3.39172 2.63951 3.52509 2.64188 3.65936C2.64425 3.79364 2.67364 3.92605 2.72829 4.04872C2.78295 4.17138 2.86175 4.28179 2.96 4.37333L5.33333 6.74667ZM21.576 17.3333L26.6667 22.424V13.3333H18.6667C18.0133 13.3333 17.4133 13.0973 16.9493 12.7067L19.576 15.3333L21.576 17.3333ZM16 10.6667C16 11.32 16.236 11.92 16.6267 12.384L7.07467 2.832C7.36267 2.72533 7.67467 2.66667 8 2.66667H16V10.6667ZM18 10.6667V3.33333L26 11.3333H18.6667C18.4899 11.3333 18.3203 11.2631 18.1953 11.1381C18.0702 11.013 18 10.8435 18 10.6667Z" fill="#FFB706"/>
<path d="M5.33333 6.74667V26.6667C5.33333 27.3739 5.61429 28.0522 6.11438 28.5523C6.61448 29.0524 7.29276 29.3333 8 29.3333H24C24.5028 29.3335 24.9955 29.1915 25.4211 28.9238C25.8466 28.656 26.1879 28.2734 26.4053 27.82L27.6253 29.0413C27.8129 29.2289 28.0674 29.3343 28.3327 29.3343C28.598 29.3343 28.8524 29.2289 29.04 29.0413C29.2276 28.8537 29.333 28.5993 29.333 28.334C29.333 28.0687 29.2276 27.8143 29.04 27.6267L4.37333 2.96C4.28179 2.86175 4.17138 2.78295 4.04872 2.72829C3.92605 2.67364 3.79364 2.64425 3.65936 2.64188C3.52509 2.63951 3.39172 2.66421 3.2672 2.7145C3.14269 2.7648 3.02958 2.83966 2.93462 2.93462C2.83966 3.02958 2.7648 3.14269 2.7145 3.2672C2.66421 3.39172 2.63951 3.52509 2.64188 3.65936C2.64425 3.79364 2.67364 3.92605 2.72829 4.04872C2.78295 4.17138 2.86175 4.28179 2.96 4.37333L5.33333 6.74667ZM21.576 17.3333L26.6667 22.424V13.3333H18.6667C18.0133 13.3333 17.4133 13.0973 16.9493 12.7067L19.576 15.3333L21.576 17.3333ZM16 10.6667C16 11.32 16.236 11.92 16.6267 12.384L7.07467 2.832C7.36267 2.72533 7.67467 2.66667 8 2.66667H16V10.6667ZM18 10.6667V3.33333L26 11.3333H18.6667C18.4899 11.3333 18.3203 11.2631 18.1953 11.1381C18.0702 11.013 18 10.8435 18 10.6667Z" fill="url(#paint0_linear_49_12041)"/>
<defs>
<linearGradient id="paint0_linear_49_12041" x1="15.9874" y1="2.64172" x2="15.9874" y2="29.3343" gradientUnits="userSpaceOnUse">
<stop stop-color="#FFB906"/>
<stop offset="1" stop-color="#FF5C00"/>
</linearGradient>
</defs>
</svg>
