<svg width="216" height="44" viewBox="0 0 216 44" fill="none" xmlns="http://www.w3.org/2000/svg">
<path d="M55.992 33.2885C55.0533 33.2885 54.328 33.0325 53.816 32.5205C53.304 31.9872 53.048 31.2512 53.048 30.3125V13.4165C53.048 12.4565 53.304 11.7205 53.816 11.2085C54.3493 10.6965 55.0853 10.4405 56.024 10.4405H63.896C66.456 10.4405 68.4293 11.1018 69.816 12.4245C71.224 13.7258 71.928 15.5285 71.928 17.8325C71.928 20.1365 71.224 21.9498 69.816 23.2725C68.4293 24.5738 66.456 25.2245 63.896 25.2245H58.936V30.3125C58.936 31.2512 58.6907 31.9872 58.2 32.5205C57.7093 33.0325 56.9733 33.2885 55.992 33.2885ZM58.936 20.7125H62.872C63.9813 20.7125 64.8347 20.4778 65.432 20.0085C66.0293 19.5178 66.328 18.7925 66.328 17.8325C66.328 16.8512 66.0293 16.1258 65.432 15.6565C64.8347 15.1872 63.9813 14.9525 62.872 14.9525H58.936V20.7125ZM76.8885 33.2885C75.9498 33.2885 75.2245 33.0432 74.7125 32.5525C74.2218 32.0618 73.9765 31.3472 73.9765 30.4085V19.8165C73.9765 18.8992 74.2112 18.1952 74.6805 17.7045C75.1712 17.2138 75.8645 16.9685 76.7605 16.9685C77.6565 16.9685 78.3392 17.2138 78.8085 17.7045C79.2778 18.1952 79.5125 18.8992 79.5125 19.8165V21.1285H79.1925C79.4058 19.8485 79.9498 18.8352 80.8245 18.0885C81.7205 17.3418 82.8298 16.9472 84.1525 16.9045C84.7712 16.8832 85.2298 17.0432 85.5285 17.3845C85.8485 17.7045 86.0192 18.3125 86.0405 19.2085C86.0405 19.9765 85.8805 20.5845 85.5605 21.0325C85.2405 21.4805 84.6325 21.7472 83.7365 21.8325L83.0005 21.8965C81.8698 22.0032 81.0485 22.3232 80.5365 22.8565C80.0245 23.3685 79.7685 24.1365 79.7685 25.1605V30.4085C79.7685 31.3472 79.5232 32.0618 79.0325 32.5525C78.5418 33.0432 77.8272 33.2885 76.8885 33.2885ZM95.5383 33.3525C93.7889 33.3525 92.2636 33.0218 90.9623 32.3605C89.6609 31.6992 88.6476 30.7498 87.9223 29.5125C87.1969 28.2752 86.8343 26.8138 86.8343 25.1285C86.8343 23.8485 87.0369 22.7072 87.4423 21.7045C87.8476 20.6805 88.4343 19.8165 89.2023 19.1125C89.9703 18.3872 90.8876 17.8432 91.9543 17.4805C93.0209 17.0965 94.2156 16.9045 95.5383 16.9045C97.2876 16.9045 98.8129 17.2352 100.114 17.8965C101.416 18.5578 102.418 19.5072 103.122 20.7445C103.848 21.9605 104.21 23.4218 104.21 25.1285C104.21 26.3872 104.008 27.5285 103.602 28.5525C103.197 29.5765 102.61 30.4512 101.842 31.1765C101.096 31.8805 100.178 32.4245 99.0903 32.8085C98.0236 33.1712 96.8396 33.3525 95.5383 33.3525ZM95.5383 29.1605C96.1143 29.1605 96.6263 29.0218 97.0743 28.7445C97.5223 28.4458 97.8636 28.0085 98.0983 27.4325C98.3543 26.8352 98.4823 26.0672 98.4823 25.1285C98.4823 23.6992 98.2049 22.6752 97.6503 22.0565C97.0956 21.4165 96.3916 21.0965 95.5383 21.0965C94.9623 21.0965 94.4503 21.2352 94.0023 21.5125C93.5543 21.7898 93.2023 22.2272 92.9463 22.8245C92.6903 23.4005 92.5623 24.1685 92.5623 25.1285C92.5623 26.5365 92.8396 27.5605 93.3943 28.2005C93.9489 28.8405 94.6636 29.1605 95.5383 29.1605ZM114.92 33.3525C113.32 33.3525 111.997 33.1072 110.952 32.6165C109.928 32.1258 109.16 31.3898 108.648 30.4085C108.136 29.4058 107.88 28.1578 107.88 26.6645V21.4485H106.792C106.109 21.4485 105.576 21.2672 105.192 20.9045C104.829 20.5418 104.648 20.0192 104.648 19.3365C104.648 18.6538 104.829 18.1418 105.192 17.8005C105.576 17.4378 106.109 17.2565 106.792 17.2565H107.88V15.2725C107.88 14.3338 108.125 13.6192 108.616 13.1285C109.107 12.6378 109.811 12.3925 110.728 12.3925C111.645 12.3925 112.349 12.6378 112.84 13.1285C113.331 13.6192 113.576 14.3338 113.576 15.2725V17.2565H116.2C116.904 17.2565 117.437 17.4378 117.8 17.8005C118.184 18.1418 118.376 18.6538 118.376 19.3365C118.376 20.0192 118.184 20.5418 117.8 20.9045C117.437 21.2672 116.904 21.4485 116.2 21.4485H113.576V26.4725C113.576 27.2618 113.757 27.8485 114.12 28.2325C114.504 28.5952 115.101 28.7765 115.912 28.7765C116.211 28.7765 116.499 28.7445 116.776 28.6805C117.053 28.6165 117.309 28.5845 117.544 28.5845C117.885 28.5632 118.163 28.6698 118.376 28.9045C118.589 29.1178 118.696 29.6192 118.696 30.4085C118.696 31.0485 118.6 31.5925 118.408 32.0405C118.216 32.4672 117.875 32.7765 117.384 32.9685C117.085 33.0752 116.68 33.1605 116.168 33.2245C115.656 33.3098 115.24 33.3525 114.92 33.3525ZM128.101 33.3525C126.351 33.3525 124.826 33.0218 123.525 32.3605C122.223 31.6992 121.21 30.7498 120.485 29.5125C119.759 28.2752 119.397 26.8138 119.397 25.1285C119.397 23.8485 119.599 22.7072 120.005 21.7045C120.41 20.6805 120.997 19.8165 121.765 19.1125C122.533 18.3872 123.45 17.8432 124.517 17.4805C125.583 17.0965 126.778 16.9045 128.101 16.9045C129.85 16.9045 131.375 17.2352 132.677 17.8965C133.978 18.5578 134.981 19.5072 135.685 20.7445C136.41 21.9605 136.773 23.4218 136.773 25.1285C136.773 26.3872 136.57 27.5285 136.165 28.5525C135.759 29.5765 135.173 30.4512 134.405 31.1765C133.658 31.8805 132.741 32.4245 131.653 32.8085C130.586 33.1712 129.402 33.3525 128.101 33.3525ZM128.101 29.1605C128.677 29.1605 129.189 29.0218 129.637 28.7445C130.085 28.4458 130.426 28.0085 130.661 27.4325C130.917 26.8352 131.045 26.0672 131.045 25.1285C131.045 23.6992 130.767 22.6752 130.213 22.0565C129.658 21.4165 128.954 21.0965 128.101 21.0965C127.525 21.0965 127.013 21.2352 126.565 21.5125C126.117 21.7898 125.765 22.2272 125.509 22.8245C125.253 23.4005 125.125 24.1685 125.125 25.1285C125.125 26.5365 125.402 27.5605 125.957 28.2005C126.511 28.8405 127.226 29.1605 128.101 29.1605ZM151.159 33.3525C148.663 33.3525 146.519 32.8725 144.727 31.9125C142.935 30.9525 141.559 29.5978 140.599 27.8485C139.66 26.0992 139.191 24.0512 139.191 21.7045C139.191 19.9552 139.457 18.3658 139.991 16.9365C140.545 15.5072 141.335 14.2805 142.359 13.2565C143.404 12.2325 144.663 11.4538 146.135 10.9205C147.628 10.3658 149.303 10.0885 151.159 10.0885C152.14 10.0885 153.153 10.2058 154.199 10.4405C155.265 10.6538 156.204 10.9845 157.015 11.4325C157.612 11.7525 158.028 12.1578 158.263 12.6485C158.497 13.1392 158.572 13.6405 158.487 14.1525C158.423 14.6645 158.241 15.1232 157.943 15.5285C157.644 15.9338 157.26 16.2112 156.791 16.3605C156.321 16.4885 155.809 16.4138 155.255 16.1365C154.615 15.8378 153.975 15.6138 153.335 15.4645C152.716 15.2938 152.065 15.2085 151.383 15.2085C150.06 15.2085 148.951 15.4645 148.055 15.9765C147.18 16.4672 146.519 17.1925 146.071 18.1525C145.623 19.1125 145.399 20.2965 145.399 21.7045C145.399 23.1125 145.623 24.3072 146.071 25.2885C146.519 26.2485 147.18 26.9845 148.055 27.4965C148.951 27.9872 150.06 28.2325 151.383 28.2325C151.937 28.2325 152.535 28.1685 153.175 28.0405C153.815 27.8912 154.444 27.6672 155.063 27.3685C155.703 27.0912 156.268 27.0165 156.759 27.1445C157.271 27.2725 157.676 27.5285 157.975 27.9125C158.295 28.2965 158.497 28.7445 158.583 29.2565C158.668 29.7472 158.593 30.2378 158.359 30.7285C158.145 31.2192 157.761 31.6138 157.207 31.9125C156.46 32.3605 155.532 32.7125 154.423 32.9685C153.335 33.2245 152.247 33.3525 151.159 33.3525ZM168.257 33.3525C166.508 33.3525 164.982 33.0218 163.681 32.3605C162.38 31.6992 161.366 30.7498 160.641 29.5125C159.916 28.2752 159.553 26.8138 159.553 25.1285C159.553 23.8485 159.756 22.7072 160.161 21.7045C160.566 20.6805 161.153 19.8165 161.921 19.1125C162.689 18.3872 163.606 17.8432 164.673 17.4805C165.74 17.0965 166.934 16.9045 168.257 16.9045C170.006 16.9045 171.532 17.2352 172.833 17.8965C174.134 18.5578 175.137 19.5072 175.841 20.7445C176.566 21.9605 176.929 23.4218 176.929 25.1285C176.929 26.3872 176.726 27.5285 176.321 28.5525C175.916 29.5765 175.329 30.4512 174.561 31.1765C173.814 31.8805 172.897 32.4245 171.809 32.8085C170.742 33.1712 169.558 33.3525 168.257 33.3525ZM168.257 29.1605C168.833 29.1605 169.345 29.0218 169.793 28.7445C170.241 28.4458 170.582 28.0085 170.817 27.4325C171.073 26.8352 171.201 26.0672 171.201 25.1285C171.201 23.6992 170.924 22.6752 170.369 22.0565C169.814 21.4165 169.11 21.0965 168.257 21.0965C167.681 21.0965 167.169 21.2352 166.721 21.5125C166.273 21.7898 165.921 22.2272 165.665 22.8245C165.409 23.4005 165.281 24.1685 165.281 25.1285C165.281 26.5365 165.558 27.5605 166.113 28.2005C166.668 28.8405 167.382 29.1605 168.257 29.1605ZM187.507 33.3525C185.758 33.3525 184.232 33.0218 182.931 32.3605C181.63 31.6992 180.616 30.7498 179.891 29.5125C179.166 28.2752 178.803 26.8138 178.803 25.1285C178.803 23.8485 179.006 22.7072 179.411 21.7045C179.816 20.6805 180.403 19.8165 181.171 19.1125C181.939 18.3872 182.856 17.8432 183.923 17.4805C184.99 17.0965 186.184 16.9045 187.507 16.9045C189.256 16.9045 190.782 17.2352 192.083 17.8965C193.384 18.5578 194.387 19.5072 195.091 20.7445C195.816 21.9605 196.179 23.4218 196.179 25.1285C196.179 26.3872 195.976 27.5285 195.571 28.5525C195.166 29.5765 194.579 30.4512 193.811 31.1765C193.064 31.8805 192.147 32.4245 191.059 32.8085C189.992 33.1712 188.808 33.3525 187.507 33.3525ZM187.507 29.1605C188.083 29.1605 188.595 29.0218 189.043 28.7445C189.491 28.4458 189.832 28.0085 190.067 27.4325C190.323 26.8352 190.451 26.0672 190.451 25.1285C190.451 23.6992 190.174 22.6752 189.619 22.0565C189.064 21.4165 188.36 21.0965 187.507 21.0965C186.931 21.0965 186.419 21.2352 185.971 21.5125C185.523 21.7898 185.171 22.2272 184.915 22.8245C184.659 23.4005 184.531 24.1685 184.531 25.1285C184.531 26.5365 184.808 27.5605 185.363 28.2005C185.918 28.8405 186.632 29.1605 187.507 29.1605ZM201.605 33.2885C200.709 33.2885 200.016 33.0432 199.525 32.5525C199.034 32.0618 198.789 31.3472 198.789 30.4085V13.0325C198.789 12.0938 199.034 11.3792 199.525 10.8885C200.016 10.3978 200.709 10.1525 201.605 10.1525C202.522 10.1525 203.226 10.3978 203.717 10.8885C204.229 11.3792 204.485 12.0938 204.485 13.0325V23.5925H204.549L208.453 18.8565C208.986 18.2165 209.477 17.7472 209.925 17.4485C210.394 17.1285 211.024 16.9685 211.813 16.9685C212.602 16.9685 213.21 17.1605 213.637 17.5445C214.064 17.9285 214.288 18.4085 214.309 18.9845C214.33 19.5605 214.096 20.1365 213.605 20.7125L209.381 25.7045V23.7205L214.117 29.6725C214.586 30.2698 214.778 30.8565 214.693 31.4325C214.608 31.9872 214.33 32.4352 213.861 32.7765C213.413 33.1178 212.837 33.2885 212.133 33.2885C211.28 33.2885 210.597 33.1392 210.085 32.8405C209.573 32.5205 209.061 32.0298 208.549 31.3685L204.549 26.4405H204.485V30.4085C204.485 32.3285 203.525 33.2885 201.605 33.2885Z" fill="white"/>
<g clip-path="url(#clip0_4_98)">
<path d="M12.1719 7.40674V3.56299C12.1719 3.05328 12.3744 2.56444 12.7348 2.20402C13.0952 1.8436 13.584 1.64111 14.0938 1.64111C14.6035 1.64111 15.0923 1.8436 15.4527 2.20402C15.8131 2.56444 16.0156 3.05328 16.0156 3.56299V7.40674C16.0156 7.91645 15.8131 8.40529 15.4527 8.76571C15.0923 9.12613 14.6035 9.32861 14.0938 9.32861C13.584 9.32861 13.0952 9.12613 12.7348 8.76571C12.3744 8.40529 12.1719 7.91645 12.1719 7.40674ZM20.5 9.32861C21.0097 9.32861 21.4986 9.12613 21.859 8.76571C22.2194 8.40529 22.4219 7.91645 22.4219 7.40674V3.56299C22.4219 3.05328 22.2194 2.56444 21.859 2.20402C21.4986 1.8436 21.0097 1.64111 20.5 1.64111C19.9903 1.64111 19.5015 1.8436 19.141 2.20402C18.7806 2.56444 18.5781 3.05328 18.5781 3.56299V7.40674C18.5781 7.91645 18.7806 8.40529 19.141 8.76571C19.5015 9.12613 19.9903 9.32861 20.5 9.32861ZM26.9063 9.32861C27.416 9.32861 27.9048 9.12613 28.2652 8.76571C28.6256 8.40529 28.8281 7.91645 28.8281 7.40674V3.56299C28.8281 3.05328 28.6256 2.56444 28.2652 2.20402C27.9048 1.8436 27.416 1.64111 26.9063 1.64111C26.3965 1.64111 25.9077 1.8436 25.5473 2.20402C25.1869 2.56444 24.9844 3.05328 24.9844 3.56299V7.40674C24.9844 7.91645 25.1869 8.40529 25.5473 8.76571C25.9077 9.12613 26.3965 9.32861 26.9063 9.32861ZM40.2313 17.913L35.875 21.1802V30.4692C35.875 31.9984 35.2676 33.4649 34.1863 34.5462C33.105 35.6274 31.6385 36.2349 30.1094 36.2349H10.8906C9.36149 36.2349 7.89498 35.6274 6.81372 34.5462C5.73246 33.4649 5.12501 31.9984 5.12501 30.4692V21.1802L0.768758 17.913C0.360987 17.6072 0.091408 17.1519 0.0193237 16.6473C-0.0527606 16.1427 0.0785551 15.6301 0.384383 15.2224C0.690211 14.8146 1.1455 14.545 1.65009 14.4729C2.15468 14.4008 2.66724 14.5322 3.07501 14.838L5.12501 16.3755V15.0942C5.12922 14.246 5.46804 13.4337 6.06783 12.8339C6.66762 12.2341 7.47991 11.8953 8.32813 11.8911H32.6719C33.5201 11.8953 34.3324 12.2341 34.9322 12.8339C35.532 13.4337 35.8708 14.246 35.875 15.0942V16.3755L37.925 14.838C38.3328 14.5322 38.8453 14.4008 39.3499 14.4729C39.8545 14.545 40.3098 14.8146 40.6156 15.2224C40.9215 15.6301 41.0528 16.1427 40.9807 16.6473C40.9086 17.1519 40.639 17.6072 40.2313 17.913ZM32.0313 15.7349H8.96876V30.4692C8.96876 30.979 9.17124 31.4678 9.53166 31.8282C9.89208 32.1886 10.3809 32.3911 10.8906 32.3911H30.1094C30.6191 32.3911 31.1079 32.1886 31.4684 31.8282C31.8288 31.4678 32.0313 30.979 32.0313 30.4692V15.7349Z" fill="white"/>
</g>
<defs>
<clipPath id="clip0_4_98">
<rect width="41" height="41" fill="white" transform="translate(0 1.00049)"/>
</clipPath>
</defs>
</svg>
