<svg width="1440" height="380" viewBox="0 0 1440 380" fill="none" xmlns="http://www.w3.org/2000/svg">
<path d="M903 183C903 284.068 821.068 366 720 366C618.932 366 537 284.068 537 183C537 81.9319 618.932 0 720 0C821.068 0 903 81.9319 903 183ZM545.052 183C545.052 279.621 623.379 357.948 720 357.948C816.621 357.948 894.948 279.621 894.948 183C894.948 86.3789 816.621 8.052 720 8.052C623.379 8.052 545.052 86.3789 545.052 183Z" fill="url(#paint0_linear_801_447)"/>
<path d="M720 366C695.968 366 672.172 361.267 649.969 352.07C627.766 342.873 607.593 329.394 590.599 312.401C573.606 295.407 560.127 275.234 550.93 253.031C541.733 230.828 537 207.032 537 183L545.052 183C545.052 205.974 549.577 228.724 558.369 249.95C567.161 271.175 580.048 290.461 596.293 306.707C612.538 322.952 631.825 335.839 653.05 344.631C674.276 353.423 697.025 357.948 720 357.948L720 366Z" fill="#FF6D05"/>
<rect y="358" width="721" height="8" fill="#FFB906"/>
<rect x="720" y="358" width="720" height="8" fill="url(#paint1_linear_801_447)"/>
<rect x="720" y="358" width="720" height="8" fill="#FF6D05"/>
<path d="M720 366C744.032 366 767.828 361.267 790.031 352.07C812.234 342.873 832.407 329.394 849.401 312.401C866.394 295.407 879.873 275.234 889.07 253.031C898.267 230.828 903 207.032 903 183H895.023C895.023 205.984 890.496 228.744 881.7 249.978C872.904 271.213 860.012 290.507 843.76 306.76C827.507 323.012 808.213 335.904 786.978 344.7C765.744 353.496 742.984 358.023 720 358.023L720 366Z" fill="#FFB906"/>
<g filter="url(#filter0_d_801_447)">
<circle cx="166" cy="362" r="8" fill="white"/>
<circle cx="166" cy="362" r="7" stroke="#FFB906" stroke-width="2"/>
</g>
<g filter="url(#filter1_d_801_447)">
<circle cx="390" cy="362" r="8" fill="white"/>
<circle cx="390" cy="362" r="7" stroke="#FFB906" stroke-width="2"/>
</g>
<g filter="url(#filter2_d_801_447)">
<circle cx="1274" cy="362" r="8" fill="white"/>
<circle cx="1274" cy="362" r="7" stroke="#FF6D05" stroke-width="2"/>
</g>
<g filter="url(#filter3_d_801_447)">
<circle cx="1050" cy="362" r="8" fill="white"/>
<circle cx="1050" cy="362" r="7" stroke="#FF6D05" stroke-width="2"/>
</g>
<g filter="url(#filter4_d_801_447)">
<circle cx="899" cy="195" r="8" fill="white"/>
<circle cx="899" cy="195" r="7" stroke="#FFB906" stroke-width="2"/>
</g>
<g filter="url(#filter5_d_801_447)">
<circle cx="8" cy="8" r="8" transform="matrix(1 0 0 -1 533 203)" fill="white"/>
<circle cx="8" cy="8" r="7" transform="matrix(1 0 0 -1 533 203)" stroke="#FE6D06" stroke-width="2"/>
</g>
<mask id="path-18-outside-1_801_447" maskUnits="userSpaceOnUse" x="258.201" y="342.172" width="39.598" height="39.598" fill="black">
<rect fill="white" x="258.201" y="342.172" width="39.598" height="39.598"/>
<path fill-rule="evenodd" clip-rule="evenodd" d="M275.172 347.828C273.609 349.391 273.609 351.923 275.172 353.485L283.657 361.971L275.172 370.456C273.609 372.018 273.609 374.551 275.172 376.113C276.734 377.675 279.266 377.675 280.828 376.113L292.142 364.799C293.704 363.237 293.704 360.704 292.142 359.142L280.828 347.828C279.266 346.266 276.734 346.266 275.172 347.828Z"/>
</mask>
<path fill-rule="evenodd" clip-rule="evenodd" d="M275.172 347.828C273.609 349.391 273.609 351.923 275.172 353.485L283.657 361.971L275.172 370.456C273.609 372.018 273.609 374.551 275.172 376.113C276.734 377.675 279.266 377.675 280.828 376.113L292.142 364.799C293.704 363.237 293.704 360.704 292.142 359.142L280.828 347.828C279.266 346.266 276.734 346.266 275.172 347.828Z" fill="#FFB906"/>
<path d="M275.172 353.485L273.757 354.899L273.757 354.899L275.172 353.485ZM283.657 361.971L285.071 363.385L286.485 361.971L285.071 360.556L283.657 361.971ZM275.172 370.456L273.757 369.042L275.172 370.456ZM280.828 376.113L279.414 374.698L280.828 376.113ZM292.142 364.799L293.556 366.213L292.142 364.799ZM292.142 359.142L293.556 357.728L292.142 359.142ZM280.828 347.828L279.414 349.243L280.828 347.828ZM276.586 352.071C275.805 351.29 275.805 350.024 276.586 349.243L273.757 346.414C271.414 348.757 271.414 352.556 273.757 354.899L276.586 352.071ZM285.071 360.556L276.586 352.071L273.757 354.899L282.243 363.385L285.071 360.556ZM276.586 371.87L285.071 363.385L282.243 360.556L273.757 369.042L276.586 371.87ZM276.586 374.698C275.805 373.917 275.805 372.651 276.586 371.87L273.757 369.042C271.414 371.385 271.414 375.184 273.757 377.527L276.586 374.698ZM279.414 374.698C278.633 375.48 277.367 375.48 276.586 374.698L273.757 377.527C276.101 379.87 279.899 379.87 282.243 377.527L279.414 374.698ZM290.728 363.385L279.414 374.698L282.243 377.527L293.556 366.213L290.728 363.385ZM290.728 360.556C291.509 361.337 291.509 362.604 290.728 363.385L293.556 366.213C295.899 363.87 295.899 360.071 293.556 357.728L290.728 360.556ZM279.414 349.243L290.728 360.556L293.556 357.728L282.243 346.414L279.414 349.243ZM276.586 349.243C277.367 348.462 278.633 348.462 279.414 349.243L282.243 346.414C279.899 344.071 276.101 344.071 273.757 346.414L276.586 349.243Z" fill="white" mask="url(#path-18-outside-1_801_447)"/>
<mask id="path-20-outside-2_801_447" maskUnits="userSpaceOnUse" x="918.172" y="342.172" width="39.598" height="39.598" fill="black">
<rect fill="white" x="918.172" y="342.172" width="39.598" height="39.598"/>
<path fill-rule="evenodd" clip-rule="evenodd" d="M935.142 347.828C933.58 349.391 933.58 351.923 935.142 353.485L943.628 361.971L935.142 370.456C933.58 372.018 933.58 374.551 935.142 376.113C936.704 377.675 939.237 377.675 940.799 376.113L952.113 364.799C953.675 363.237 953.675 360.704 952.113 359.142L940.799 347.828C939.237 346.266 936.704 346.266 935.142 347.828Z"/>
</mask>
<path fill-rule="evenodd" clip-rule="evenodd" d="M935.142 347.828C933.58 349.391 933.58 351.923 935.142 353.485L943.628 361.971L935.142 370.456C933.58 372.018 933.58 374.551 935.142 376.113C936.704 377.675 939.237 377.675 940.799 376.113L952.113 364.799C953.675 363.237 953.675 360.704 952.113 359.142L940.799 347.828C939.237 346.266 936.704 346.266 935.142 347.828Z" fill="url(#paint2_linear_801_447)"/>
<path fill-rule="evenodd" clip-rule="evenodd" d="M935.142 347.828C933.58 349.391 933.58 351.923 935.142 353.485L943.628 361.971L935.142 370.456C933.58 372.018 933.58 374.551 935.142 376.113C936.704 377.675 939.237 377.675 940.799 376.113L952.113 364.799C953.675 363.237 953.675 360.704 952.113 359.142L940.799 347.828C939.237 346.266 936.704 346.266 935.142 347.828Z" fill="#FF6D05"/>
<path d="M935.142 353.485L933.728 354.899L933.728 354.899L935.142 353.485ZM943.628 361.971L945.042 363.385L946.456 361.971L945.042 360.556L943.628 361.971ZM935.142 370.456L933.728 369.042L935.142 370.456ZM940.799 376.113L939.385 374.698L940.799 376.113ZM952.113 364.799L953.527 366.213L952.113 364.799ZM952.113 359.142L953.527 357.728L952.113 359.142ZM940.799 347.828L939.385 349.243L940.799 347.828ZM936.556 352.071C935.775 351.29 935.775 350.024 936.556 349.243L933.728 346.414C931.385 348.757 931.385 352.556 933.728 354.899L936.556 352.071ZM945.042 360.556L936.556 352.071L933.728 354.899L942.213 363.385L945.042 360.556ZM936.556 371.87L945.042 363.385L942.213 360.556L933.728 369.042L936.556 371.87ZM936.556 374.698C935.775 373.917 935.775 372.651 936.556 371.87L933.728 369.042C931.385 371.385 931.385 375.184 933.728 377.527L936.556 374.698ZM939.385 374.698C938.604 375.48 937.338 375.48 936.556 374.698L933.728 377.527C936.071 379.87 939.87 379.87 942.213 377.527L939.385 374.698ZM950.699 363.385L939.385 374.698L942.213 377.527L953.527 366.213L950.699 363.385ZM950.699 360.556C951.48 361.337 951.48 362.604 950.699 363.385L953.527 366.213C955.87 363.87 955.87 360.071 953.527 357.728L950.699 360.556ZM939.385 349.243L950.699 360.556L953.527 357.728L942.213 346.414L939.385 349.243ZM936.556 349.243C937.338 348.462 938.604 348.462 939.385 349.243L942.213 346.414C939.87 344.071 936.071 344.071 933.728 346.414L936.556 349.243Z" fill="white" mask="url(#path-20-outside-2_801_447)"/>
<mask id="path-22-outside-3_801_447" maskUnits="userSpaceOnUse" x="482.201" y="342.172" width="39.598" height="39.598" fill="black">
<rect fill="white" x="482.201" y="342.172" width="39.598" height="39.598"/>
<path fill-rule="evenodd" clip-rule="evenodd" d="M499.172 347.828C497.609 349.391 497.609 351.923 499.172 353.485L507.657 361.971L499.172 370.456C497.609 372.018 497.609 374.551 499.172 376.113C500.734 377.675 503.266 377.675 504.828 376.113L516.142 364.799C517.704 363.237 517.704 360.704 516.142 359.142L504.828 347.828C503.266 346.266 500.734 346.266 499.172 347.828Z"/>
</mask>
<path fill-rule="evenodd" clip-rule="evenodd" d="M499.172 347.828C497.609 349.391 497.609 351.923 499.172 353.485L507.657 361.971L499.172 370.456C497.609 372.018 497.609 374.551 499.172 376.113C500.734 377.675 503.266 377.675 504.828 376.113L516.142 364.799C517.704 363.237 517.704 360.704 516.142 359.142L504.828 347.828C503.266 346.266 500.734 346.266 499.172 347.828Z" fill="#FFB906"/>
<path d="M499.172 353.485L497.757 354.899L497.757 354.899L499.172 353.485ZM507.657 361.971L509.071 363.385L510.485 361.971L509.071 360.556L507.657 361.971ZM499.172 370.456L497.757 369.042L499.172 370.456ZM504.828 376.113L503.414 374.698L504.828 376.113ZM516.142 364.799L517.556 366.213L516.142 364.799ZM516.142 359.142L517.556 357.728L516.142 359.142ZM504.828 347.828L503.414 349.243L504.828 347.828ZM500.586 352.071C499.805 351.29 499.805 350.024 500.586 349.243L497.757 346.414C495.414 348.757 495.414 352.556 497.757 354.899L500.586 352.071ZM509.071 360.556L500.586 352.071L497.757 354.899L506.243 363.385L509.071 360.556ZM500.586 371.87L509.071 363.385L506.243 360.556L497.757 369.042L500.586 371.87ZM500.586 374.698C499.805 373.917 499.805 372.651 500.586 371.87L497.757 369.042C495.414 371.385 495.414 375.184 497.757 377.527L500.586 374.698ZM503.414 374.698C502.633 375.48 501.367 375.48 500.586 374.698L497.757 377.527C500.101 379.87 503.899 379.87 506.243 377.527L503.414 374.698ZM514.728 363.385L503.414 374.698L506.243 377.527L517.556 366.213L514.728 363.385ZM514.728 360.556C515.509 361.337 515.509 362.604 514.728 363.385L517.556 366.213C519.899 363.87 519.899 360.071 517.556 357.728L514.728 360.556ZM503.414 349.243L514.728 360.556L517.556 357.728L506.243 346.414L503.414 349.243ZM500.586 349.243C501.367 348.462 502.633 348.462 503.414 349.243L506.243 346.414C503.899 344.071 500.101 344.071 497.757 346.414L500.586 349.243Z" fill="white" mask="url(#path-22-outside-3_801_447)"/>
<mask id="path-24-outside-4_801_447" maskUnits="userSpaceOnUse" x="1142.2" y="342.172" width="39.598" height="39.598" fill="black">
<rect fill="white" x="1142.2" y="342.172" width="39.598" height="39.598"/>
<path fill-rule="evenodd" clip-rule="evenodd" d="M1159.17 347.828C1157.61 349.391 1157.61 351.923 1159.17 353.485L1167.66 361.971L1159.17 370.456C1157.61 372.018 1157.61 374.551 1159.17 376.113C1160.73 377.675 1163.27 377.675 1164.83 376.113L1176.14 364.799C1177.7 363.237 1177.7 360.704 1176.14 359.142L1164.83 347.828C1163.27 346.266 1160.73 346.266 1159.17 347.828Z"/>
</mask>
<path fill-rule="evenodd" clip-rule="evenodd" d="M1159.17 347.828C1157.61 349.391 1157.61 351.923 1159.17 353.485L1167.66 361.971L1159.17 370.456C1157.61 372.018 1157.61 374.551 1159.17 376.113C1160.73 377.675 1163.27 377.675 1164.83 376.113L1176.14 364.799C1177.7 363.237 1177.7 360.704 1176.14 359.142L1164.83 347.828C1163.27 346.266 1160.73 346.266 1159.17 347.828Z" fill="url(#paint3_linear_801_447)"/>
<path fill-rule="evenodd" clip-rule="evenodd" d="M1159.17 347.828C1157.61 349.391 1157.61 351.923 1159.17 353.485L1167.66 361.971L1159.17 370.456C1157.61 372.018 1157.61 374.551 1159.17 376.113C1160.73 377.675 1163.27 377.675 1164.83 376.113L1176.14 364.799C1177.7 363.237 1177.7 360.704 1176.14 359.142L1164.83 347.828C1163.27 346.266 1160.73 346.266 1159.17 347.828Z" fill="#FF6D05"/>
<path d="M1159.17 353.485L1157.76 354.899L1157.76 354.899L1159.17 353.485ZM1167.66 361.971L1169.07 363.385L1170.49 361.971L1169.07 360.556L1167.66 361.971ZM1159.17 370.456L1157.76 369.042L1159.17 370.456ZM1164.83 376.113L1163.41 374.698L1164.83 376.113ZM1176.14 364.799L1177.56 366.213L1176.14 364.799ZM1176.14 359.142L1177.56 357.728L1176.14 359.142ZM1164.83 347.828L1163.41 349.243L1164.83 347.828ZM1160.59 352.071C1159.8 351.29 1159.8 350.024 1160.59 349.243L1157.76 346.414C1155.41 348.757 1155.41 352.556 1157.76 354.899L1160.59 352.071ZM1169.07 360.556L1160.59 352.071L1157.76 354.899L1166.24 363.385L1169.07 360.556ZM1160.59 371.87L1169.07 363.385L1166.24 360.556L1157.76 369.042L1160.59 371.87ZM1160.59 374.698C1159.8 373.917 1159.8 372.651 1160.59 371.87L1157.76 369.042C1155.41 371.385 1155.41 375.184 1157.76 377.527L1160.59 374.698ZM1163.41 374.698C1162.63 375.48 1161.37 375.48 1160.59 374.698L1157.76 377.527C1160.1 379.87 1163.9 379.87 1166.24 377.527L1163.41 374.698ZM1174.73 363.385L1163.41 374.698L1166.24 377.527L1177.56 366.213L1174.73 363.385ZM1174.73 360.556C1175.51 361.337 1175.51 362.604 1174.73 363.385L1177.56 366.213C1179.9 363.87 1179.9 360.071 1177.56 357.728L1174.73 360.556ZM1163.41 349.243L1174.73 360.556L1177.56 357.728L1166.24 346.414L1163.41 349.243ZM1160.59 349.243C1161.37 348.462 1162.63 348.462 1163.41 349.243L1166.24 346.414C1163.9 344.071 1160.1 344.071 1157.76 346.414L1160.59 349.243Z" fill="white" mask="url(#path-24-outside-4_801_447)"/>
<mask id="path-26-outside-5_801_447" maskUnits="userSpaceOnUse" x="839" y="287" width="28" height="28" fill="black">
<rect fill="white" x="839" y="287" width="28" height="28"/>
<path fill-rule="evenodd" clip-rule="evenodd" d="M841 293C841 295.209 842.791 297 845 297L857 297V309C857 311.209 858.791 313 861 313C863.209 313 865 311.209 865 309V293C865 290.791 863.209 289 861 289H845C842.791 289 841 290.791 841 293Z"/>
</mask>
<path fill-rule="evenodd" clip-rule="evenodd" d="M841 293C841 295.209 842.791 297 845 297L857 297V309C857 311.209 858.791 313 861 313C863.209 313 865 311.209 865 309V293C865 290.791 863.209 289 861 289H845C842.791 289 841 290.791 841 293Z" fill="url(#paint4_linear_801_447)"/>
<path fill-rule="evenodd" clip-rule="evenodd" d="M841 293C841 295.209 842.791 297 845 297L857 297V309C857 311.209 858.791 313 861 313C863.209 313 865 311.209 865 309V293C865 290.791 863.209 289 861 289H845C842.791 289 841 290.791 841 293Z" fill="#FFB906"/>
<path d="M845 297L845 299H845L845 297ZM857 297H859V295L857 295L857 297ZM845 295C843.895 295 843 294.105 843 293H839C839 296.314 841.686 299 845 299V295ZM857 295L845 295L845 299L857 299L857 295ZM859 309V297H855V309H859ZM861 311C859.895 311 859 310.105 859 309H855C855 312.314 857.686 315 861 315V311ZM863 309C863 310.105 862.105 311 861 311V315C864.314 315 867 312.314 867 309H863ZM863 293V309H867V293H863ZM861 291C862.105 291 863 291.895 863 293H867C867 289.686 864.314 287 861 287V291ZM845 291H861V287H845V291ZM843 293C843 291.895 843.895 291 845 291V287C841.686 287 839 289.686 839 293H843Z" fill="white" mask="url(#path-26-outside-5_801_447)"/>
<mask id="path-28-outside-6_801_447" maskUnits="userSpaceOnUse" x="572" y="287" width="28" height="28" fill="black">
<rect fill="white" x="572" y="287" width="28" height="28"/>
<path fill-rule="evenodd" clip-rule="evenodd" d="M594 289C591.791 289 590 290.791 590 293L590 305L578 305C575.791 305 574 306.791 574 309C574 311.209 575.791 313 578 313L594 313C596.209 313 598 311.209 598 309L598 293C598 290.791 596.209 289 594 289Z"/>
</mask>
<path fill-rule="evenodd" clip-rule="evenodd" d="M594 289C591.791 289 590 290.791 590 293L590 305L578 305C575.791 305 574 306.791 574 309C574 311.209 575.791 313 578 313L594 313C596.209 313 598 311.209 598 309L598 293C598 290.791 596.209 289 594 289Z" fill="url(#paint5_linear_801_447)"/>
<path fill-rule="evenodd" clip-rule="evenodd" d="M594 289C591.791 289 590 290.791 590 293L590 305L578 305C575.791 305 574 306.791 574 309C574 311.209 575.791 313 578 313L594 313C596.209 313 598 311.209 598 309L598 293C598 290.791 596.209 289 594 289Z" fill="#FF6D05"/>
<path d="M590 293L588 293V293L590 293ZM590 305L590 307L592 307L592 305L590 305ZM592 293C592 291.895 592.895 291 594 291L594 287C590.686 287 588 289.686 588 293L592 293ZM592 305L592 293L588 293L588 305L592 305ZM578 307L590 307L590 303L578 303L578 307ZM576 309C576 307.895 576.895 307 578 307L578 303C574.686 303 572 305.686 572 309L576 309ZM578 311C576.895 311 576 310.105 576 309L572 309C572 312.314 574.686 315 578 315L578 311ZM594 311L578 311L578 315L594 315L594 311ZM596 309C596 310.105 595.105 311 594 311L594 315C597.314 315 600 312.314 600 309L596 309ZM596 293L596 309L600 309L600 293L596 293ZM594 291C595.105 291 596 291.895 596 293L600 293C600 289.686 597.314 287 594 287L594 291Z" fill="white" mask="url(#path-28-outside-6_801_447)"/>
<mask id="path-30-outside-7_801_447" maskUnits="userSpaceOnUse" x="839" y="49" width="28" height="28" fill="black">
<rect fill="white" x="839" y="49" width="28" height="28"/>
<path fill-rule="evenodd" clip-rule="evenodd" d="M845 75C847.209 75 849 73.2091 849 71L849 59L861 59C863.209 59 865 57.2091 865 55C865 52.7909 863.209 51 861 51L845 51C842.791 51 841 52.7909 841 55L841 71C841 73.2091 842.791 75 845 75Z"/>
</mask>
<path fill-rule="evenodd" clip-rule="evenodd" d="M845 75C847.209 75 849 73.2091 849 71L849 59L861 59C863.209 59 865 57.2091 865 55C865 52.7909 863.209 51 861 51L845 51C842.791 51 841 52.7909 841 55L841 71C841 73.2091 842.791 75 845 75Z" fill="url(#paint6_linear_801_447)"/>
<path fill-rule="evenodd" clip-rule="evenodd" d="M845 75C847.209 75 849 73.2091 849 71L849 59L861 59C863.209 59 865 57.2091 865 55C865 52.7909 863.209 51 861 51L845 51C842.791 51 841 52.7909 841 55L841 71C841 73.2091 842.791 75 845 75Z" fill="#FFB907"/>
<path d="M849 71L851 71V71L849 71ZM849 59L849 57L847 57L847 59L849 59ZM861 59L861 61L861 59ZM861 51L861 49L861 51ZM845 51L845 53L845 51ZM847 71C847 72.1046 846.105 73 845 73L845 77C848.314 77 851 74.3137 851 71L847 71ZM847 59L847 71L851 71L851 59L847 59ZM861 57L849 57L849 61L861 61L861 57ZM863 55C863 56.1046 862.105 57 861 57L861 61C864.314 61 867 58.3137 867 55L863 55ZM861 53C862.105 53 863 53.8954 863 55L867 55C867 51.6863 864.314 49 861 49L861 53ZM845 53L861 53L861 49L845 49L845 53ZM843 55C843 53.8954 843.895 53 845 53L845 49C841.686 49 839 51.6863 839 55L843 55ZM843 71L843 55L839 55L839 71L843 71ZM845 73C843.895 73 843 72.1046 843 71L839 71C839 74.3137 841.686 77 845 77L845 73Z" fill="white" mask="url(#path-30-outside-7_801_447)"/>
<mask id="path-32-outside-8_801_447" maskUnits="userSpaceOnUse" x="575" y="49" width="28" height="28" fill="black">
<rect fill="white" x="575" y="49" width="28" height="28"/>
<path fill-rule="evenodd" clip-rule="evenodd" d="M601 71C601 68.7909 599.209 67 597 67L585 67L585 55C585 52.7909 583.209 51 581 51C578.791 51 577 52.7909 577 55L577 71C577 73.2091 578.791 75 581 75L597 75C599.209 75 601 73.2091 601 71Z"/>
</mask>
<path fill-rule="evenodd" clip-rule="evenodd" d="M601 71C601 68.7909 599.209 67 597 67L585 67L585 55C585 52.7909 583.209 51 581 51C578.791 51 577 52.7909 577 55L577 71C577 73.2091 578.791 75 581 75L597 75C599.209 75 601 73.2091 601 71Z" fill="url(#paint7_linear_801_447)"/>
<path fill-rule="evenodd" clip-rule="evenodd" d="M601 71C601 68.7909 599.209 67 597 67L585 67L585 55C585 52.7909 583.209 51 581 51C578.791 51 577 52.7909 577 55L577 71C577 73.2091 578.791 75 581 75L597 75C599.209 75 601 73.2091 601 71Z" fill="#FF9106"/>
<path d="M597 67L597 65L597 65L597 67ZM585 67L583 67L583 69L585 69L585 67ZM577 71L579 71L577 71ZM581 75L581 73L581 75ZM597 75L597 77L597 75ZM597 69C598.105 69 599 69.8954 599 71L603 71C603 67.6863 600.314 65 597 65L597 69ZM585 69L597 69L597 65L585 65L585 69ZM583 55L583 67L587 67L587 55L583 55ZM581 53C582.105 53 583 53.8954 583 55L587 55C587 51.6863 584.314 49 581 49L581 53ZM579 55C579 53.8954 579.895 53 581 53L581 49C577.686 49 575 51.6863 575 55L579 55ZM579 71L579 55L575 55L575 71L579 71ZM581 73C579.895 73 579 72.1046 579 71L575 71C575 74.3137 577.686 77 581 77L581 73ZM597 73L581 73L581 77L597 77L597 73ZM599 71C599 72.1046 598.105 73 597 73L597 77C600.314 77 603 74.3137 603 71L599 71Z" fill="white" mask="url(#path-32-outside-8_801_447)"/>
<defs>
<filter id="filter0_d_801_447" x="148" y="344" width="36" height="36" filterUnits="userSpaceOnUse" color-interpolation-filters="sRGB">
<feFlood flood-opacity="0" result="BackgroundImageFix"/>
<feColorMatrix in="SourceAlpha" type="matrix" values="0 0 0 0 0 0 0 0 0 0 0 0 0 0 0 0 0 0 127 0" result="hardAlpha"/>
<feOffset/>
<feGaussianBlur stdDeviation="5"/>
<feComposite in2="hardAlpha" operator="out"/>
<feColorMatrix type="matrix" values="0 0 0 0 0 0 0 0 0 0 0 0 0 0 0 0 0 0 0.25 0"/>
<feBlend mode="normal" in2="BackgroundImageFix" result="effect1_dropShadow_801_447"/>
<feBlend mode="normal" in="SourceGraphic" in2="effect1_dropShadow_801_447" result="shape"/>
</filter>
<filter id="filter1_d_801_447" x="372" y="344" width="36" height="36" filterUnits="userSpaceOnUse" color-interpolation-filters="sRGB">
<feFlood flood-opacity="0" result="BackgroundImageFix"/>
<feColorMatrix in="SourceAlpha" type="matrix" values="0 0 0 0 0 0 0 0 0 0 0 0 0 0 0 0 0 0 127 0" result="hardAlpha"/>
<feOffset/>
<feGaussianBlur stdDeviation="5"/>
<feComposite in2="hardAlpha" operator="out"/>
<feColorMatrix type="matrix" values="0 0 0 0 0 0 0 0 0 0 0 0 0 0 0 0 0 0 0.25 0"/>
<feBlend mode="normal" in2="BackgroundImageFix" result="effect1_dropShadow_801_447"/>
<feBlend mode="normal" in="SourceGraphic" in2="effect1_dropShadow_801_447" result="shape"/>
</filter>
<filter id="filter2_d_801_447" x="1256" y="344" width="36" height="36" filterUnits="userSpaceOnUse" color-interpolation-filters="sRGB">
<feFlood flood-opacity="0" result="BackgroundImageFix"/>
<feColorMatrix in="SourceAlpha" type="matrix" values="0 0 0 0 0 0 0 0 0 0 0 0 0 0 0 0 0 0 127 0" result="hardAlpha"/>
<feOffset/>
<feGaussianBlur stdDeviation="5"/>
<feComposite in2="hardAlpha" operator="out"/>
<feColorMatrix type="matrix" values="0 0 0 0 0 0 0 0 0 0 0 0 0 0 0 0 0 0 0.25 0"/>
<feBlend mode="normal" in2="BackgroundImageFix" result="effect1_dropShadow_801_447"/>
<feBlend mode="normal" in="SourceGraphic" in2="effect1_dropShadow_801_447" result="shape"/>
</filter>
<filter id="filter3_d_801_447" x="1032" y="344" width="36" height="36" filterUnits="userSpaceOnUse" color-interpolation-filters="sRGB">
<feFlood flood-opacity="0" result="BackgroundImageFix"/>
<feColorMatrix in="SourceAlpha" type="matrix" values="0 0 0 0 0 0 0 0 0 0 0 0 0 0 0 0 0 0 127 0" result="hardAlpha"/>
<feOffset/>
<feGaussianBlur stdDeviation="5"/>
<feComposite in2="hardAlpha" operator="out"/>
<feColorMatrix type="matrix" values="0 0 0 0 0 0 0 0 0 0 0 0 0 0 0 0 0 0 0.25 0"/>
<feBlend mode="normal" in2="BackgroundImageFix" result="effect1_dropShadow_801_447"/>
<feBlend mode="normal" in="SourceGraphic" in2="effect1_dropShadow_801_447" result="shape"/>
</filter>
<filter id="filter4_d_801_447" x="881" y="177" width="36" height="36" filterUnits="userSpaceOnUse" color-interpolation-filters="sRGB">
<feFlood flood-opacity="0" result="BackgroundImageFix"/>
<feColorMatrix in="SourceAlpha" type="matrix" values="0 0 0 0 0 0 0 0 0 0 0 0 0 0 0 0 0 0 127 0" result="hardAlpha"/>
<feOffset/>
<feGaussianBlur stdDeviation="5"/>
<feComposite in2="hardAlpha" operator="out"/>
<feColorMatrix type="matrix" values="0 0 0 0 0 0 0 0 0 0 0 0 0 0 0 0 0 0 0.25 0"/>
<feBlend mode="normal" in2="BackgroundImageFix" result="effect1_dropShadow_801_447"/>
<feBlend mode="normal" in="SourceGraphic" in2="effect1_dropShadow_801_447" result="shape"/>
</filter>
<filter id="filter5_d_801_447" x="523" y="177" width="36" height="36" filterUnits="userSpaceOnUse" color-interpolation-filters="sRGB">
<feFlood flood-opacity="0" result="BackgroundImageFix"/>
<feColorMatrix in="SourceAlpha" type="matrix" values="0 0 0 0 0 0 0 0 0 0 0 0 0 0 0 0 0 0 127 0" result="hardAlpha"/>
<feOffset/>
<feGaussianBlur stdDeviation="5"/>
<feComposite in2="hardAlpha" operator="out"/>
<feColorMatrix type="matrix" values="0 0 0 0 0 0 0 0 0 0 0 0 0 0 0 0 0 0 0.25 0"/>
<feBlend mode="normal" in2="BackgroundImageFix" result="effect1_dropShadow_801_447"/>
<feBlend mode="normal" in="SourceGraphic" in2="effect1_dropShadow_801_447" result="shape"/>
</filter>
<linearGradient id="paint0_linear_801_447" x1="867" y1="68" x2="648.5" y2="347" gradientUnits="userSpaceOnUse">
<stop stop-color="#FFB906"/>
<stop offset="1" stop-color="#FF6D05"/>
</linearGradient>
<linearGradient id="paint1_linear_801_447" x1="1080" y1="358" x2="1440" y2="358" gradientUnits="userSpaceOnUse">
<stop offset="0.520833" stop-color="#D65800"/>
<stop offset="1" stop-color="#D65800" stop-opacity="0"/>
</linearGradient>
<linearGradient id="paint2_linear_801_447" x1="955" y1="370.456" x2="929.485" y2="370.456" gradientUnits="userSpaceOnUse">
<stop stop-color="#D35B08"/>
<stop offset="0.427692" stop-color="#FF6D06"/>
</linearGradient>
<linearGradient id="paint3_linear_801_447" x1="1179.03" y1="370.456" x2="1153.51" y2="370.456" gradientUnits="userSpaceOnUse">
<stop stop-color="#D35B08"/>
<stop offset="0.427692" stop-color="#FF6D06"/>
</linearGradient>
<linearGradient id="paint4_linear_801_447" x1="871.042" y1="294.958" x2="853" y2="313" gradientUnits="userSpaceOnUse">
<stop stop-color="#D35B08"/>
<stop offset="0.427692" stop-color="#FF6D06"/>
</linearGradient>
<linearGradient id="paint5_linear_801_447" x1="592.042" y1="319.042" x2="574" y2="301" gradientUnits="userSpaceOnUse">
<stop stop-color="#D35B08"/>
<stop offset="0.427692" stop-color="#FF6D06"/>
</linearGradient>
<linearGradient id="paint6_linear_801_447" x1="846.958" y1="44.9584" x2="865" y2="63" gradientUnits="userSpaceOnUse">
<stop stop-color="#D35B08"/>
<stop offset="0.427692" stop-color="#FF6D06"/>
</linearGradient>
<linearGradient id="paint7_linear_801_447" x1="570.958" y1="69.0416" x2="589" y2="51" gradientUnits="userSpaceOnUse">
<stop stop-color="#D35B08"/>
<stop offset="0.427692" stop-color="#FF6D06"/>
</linearGradient>
</defs>
</svg>
