<svg width="450" height="750" viewBox="0 0 450 750" fill="none" xmlns="http://www.w3.org/2000/svg">
<g clip-path="url(#clip0_439_3334)">
<g clip-path="url(#clip1_439_3334)">
<path d="M191.23 198.05C189.287 198.05 187.707 199.626 187.707 201.574C187.707 203.521 189.283 205.097 191.23 205.097C193.173 205.097 194.753 203.521 194.753 201.574C194.749 199.63 193.173 198.05 191.23 198.05ZM191.23 203.912C189.943 203.912 188.892 202.865 188.892 201.574C188.892 200.286 189.939 199.235 191.23 199.235C192.518 199.235 193.568 200.282 193.568 201.574C193.565 202.861 192.518 203.912 191.23 203.912Z" fill="#FFE6D3"/>
<path d="M205.974 129.494H203.826C203.766 129.213 203.518 129 203.217 129H197.937C197.637 129 197.388 129.213 197.333 129.494H176.483C174.303 129.494 172.533 131.263 172.533 133.443V140.829H172.513C172.229 140.829 172 141.011 172 141.232V143.574C172 143.795 172.229 143.977 172.513 143.977H172.533V148.155H172.359C172.162 148.155 172 148.282 172 148.436V150.071C172 150.225 172.162 150.351 172.359 150.351H172.533V154.747H172.359C172.162 154.747 172 154.874 172 155.028V156.663C172 156.817 172.162 156.943 172.359 156.943H172.533V204.01C172.533 206.191 174.303 207.96 176.483 207.96H205.974C208.154 207.96 209.924 206.191 209.924 204.01V133.443C209.924 131.263 208.154 129.494 205.974 129.494ZM208.739 204.01C208.739 205.535 207.499 206.775 205.974 206.775H176.483C174.958 206.775 173.718 205.535 173.718 204.01V133.443C173.718 131.919 174.958 130.679 176.483 130.679H205.974C207.499 130.679 208.739 131.919 208.739 133.443V204.01Z" fill="#FFE6D3"/>
<path d="M175.629 195.649H206.831V140.683H175.629V195.649V195.649ZM176.814 141.868H205.646V194.464H176.814V141.868V141.868Z" fill="#FFE6D3"/>
<path d="M188.742 137.752H193.711C194.035 137.752 194.295 137.515 194.295 137.227C194.295 136.935 194.035 136.702 193.711 136.702H188.742C188.418 136.702 188.158 136.939 188.158 137.227C188.158 137.519 188.422 137.752 188.742 137.752Z" fill="#FFE6D3"/>
</g>
<g clip-path="url(#clip2_439_3334)">
<path d="M49.8339 62.1885C49.8339 60.2453 48.258 58.6654 46.3109 58.6654C44.3638 58.6654 42.7879 60.2413 42.7879 62.1885C42.7879 64.1317 44.3638 65.7115 46.3109 65.7115C48.2541 65.7075 49.8339 64.1317 49.8339 62.1885ZM43.9727 62.1885C43.9727 60.9009 45.0194 59.8503 46.3109 59.8503C47.5985 59.8503 48.649 60.8969 48.649 62.1885C48.649 63.476 47.6024 64.5266 46.3109 64.5266C45.0233 64.5227 43.9727 63.476 43.9727 62.1885Z" fill="#FFE6D3"/>
<path d="M118.391 76.9323L118.391 74.7837C118.671 74.7244 118.884 74.4756 118.884 74.1755L118.884 68.8949C118.884 68.5947 118.671 68.3459 118.391 68.2906L118.391 47.4408C118.391 45.2606 116.621 43.4912 114.441 43.4912L107.055 43.4912L107.055 43.4714C107.055 43.1871 106.874 42.958 106.653 42.958L104.31 42.958C104.089 42.958 103.908 43.1871 103.908 43.4714L103.908 43.4912L99.7289 43.4912L99.7289 43.3174C99.7289 43.1199 99.6026 42.958 99.4485 42.958L97.8134 42.958C97.6594 42.958 97.533 43.1199 97.533 43.3174L97.533 43.4912L93.1371 43.4912L93.1371 43.3174C93.1371 43.1199 93.0107 42.958 92.8567 42.958L91.2215 42.958C91.0675 42.958 90.9411 43.1199 90.9411 43.3174L90.9411 43.4912L43.874 43.4912C41.6938 43.4912 39.9244 45.2606 39.9244 47.4407L39.9244 76.9323C39.9244 79.1124 41.6938 80.8818 43.874 80.8818L114.441 80.8818C116.621 80.8818 118.391 79.1124 118.391 76.9323ZM43.874 79.697C42.3494 79.697 41.1093 78.4568 41.1093 76.9323L41.1093 47.4407C41.1093 45.9162 42.3494 44.676 43.874 44.676L114.441 44.676C115.966 44.676 117.206 45.9162 117.206 47.4408L117.206 76.9323C117.206 78.4568 115.966 79.697 114.441 79.697L43.874 79.697Z" fill="#FFE6D3"/>
<path d="M52.2353 46.5876L52.2353 77.7893L107.202 77.7893L107.202 46.5876L52.2353 46.5876V46.5876ZM106.017 47.7725L106.017 76.6044L53.4201 76.6044L53.4201 47.7725L106.017 47.7725V47.7725Z" fill="#FFE6D3"/>
<path d="M110.132 59.7003L110.132 64.6689C110.132 64.9927 110.369 65.2534 110.657 65.2534C110.95 65.2534 111.183 64.9927 111.183 64.6689L111.183 59.7003C111.183 59.3764 110.946 59.1158 110.657 59.1158C110.365 59.1158 110.132 59.3804 110.132 59.7003Z" fill="#FFE6D3"/>
</g>
<g clip-path="url(#clip3_439_3334)">
<path d="M209.928 373.638H366.332V274.899H209.928V373.638ZM211.113 276.084H365.147V372.453H211.113V276.084Z" fill="#FFE6D3"/>
<path d="M402.34 380.353H374.626V273.319C374.626 269.828 371.798 267 368.306 267H207.953C204.462 267 201.634 269.828 201.634 273.319V380.353H173.789C173.355 380.353 173 380.708 173 381.143V386.012C173 386.34 173.201 386.625 173.489 386.743C176.503 389.014 180.452 390.392 184.777 390.392H391.38C395.728 390.392 399.698 388.998 402.719 386.708C402.964 386.573 403.134 386.317 403.134 386.016V381.143C403.13 380.708 402.774 380.353 402.34 380.353ZM202.819 379.168V378.725V273.319C202.819 270.487 205.122 268.185 207.953 268.185H368.306C371.138 268.185 373.441 270.487 373.441 273.319V378.725V380.353H202.819V379.168ZM398.556 387.758C396.348 388.706 393.896 389.208 391.376 389.208H184.773C182.253 389.208 179.801 388.706 177.593 387.758H177.605C176.906 387.482 176.238 387.158 175.594 386.802H400.555C399.911 387.154 399.243 387.478 398.544 387.758H398.556ZM401.945 385.617H174.184V381.538H401.945V385.617Z" fill="#FFE6D3"/>
</g>
<g clip-path="url(#clip4_439_3334)">
<path d="M220.605 428.431H131.739C129.121 428.431 127 430.511 127 433.078V549.048C127 551.615 129.121 553.695 131.739 553.695H220.605C223.223 553.695 225.344 551.615 225.344 549.048V433.078C225.344 430.511 223.223 428.431 220.605 428.431ZM224.159 549.048C224.159 550.969 222.564 552.533 220.605 552.533H131.739C129.78 552.533 128.185 550.969 128.185 549.048V433.078C128.185 431.157 129.78 429.593 131.739 429.593H220.605C222.564 429.593 224.159 431.157 224.159 433.078V549.048Z" fill="#FFE6D3"/>
<path d="M136.972 438.692V542.078H215.371V438.692H136.972ZM214.187 540.917H138.157V439.854H214.187V540.917Z" fill="#FFE6D3"/>
<path d="M176.172 544.498C174.521 544.498 173.186 545.811 173.186 547.426C173.186 549.044 174.525 550.353 176.172 550.353C177.819 550.353 179.158 549.04 179.158 547.426C179.158 545.811 177.823 544.498 176.172 544.498ZM176.172 549.195C175.177 549.195 174.371 548.401 174.371 547.43C174.371 546.458 175.181 545.664 176.172 545.664C177.167 545.664 177.973 546.458 177.973 547.43C177.973 548.401 177.167 549.195 176.172 549.195Z" fill="#FFE6D3"/>
</g>
<g clip-path="url(#clip5_439_3334)">
<path d="M310.294 550.029V674.311H528.046V550.029H310.294ZM526.862 673.126H311.479V551.214H526.862V673.126Z" fill="#FFE6D3"/>
<path d="M419.433 688.067C416.562 688.067 414.231 690.393 414.231 693.269C414.231 696.14 416.558 698.47 419.433 698.47C422.304 698.47 424.635 696.14 424.635 693.269C424.635 690.397 422.308 688.067 419.433 688.067ZM419.433 697.285C417.217 697.285 415.416 695.484 415.416 693.269C415.416 691.053 417.217 689.252 419.433 689.252C421.649 689.252 423.45 691.053 423.45 693.269C423.45 695.484 421.649 697.285 419.433 697.285Z" fill="#FFE6D3"/>
<path d="M532.92 542H305.95C303.769 542 302 543.769 302 545.95V700.248C302 702.428 303.769 704.197 305.95 704.197H393.105V705.892V708.961C393.022 712.811 392.572 719.198 390.605 721.528C387.71 724.956 381.651 729.759 381.651 729.759C381.651 729.759 380.534 731.647 382.275 732.093C384.021 732.54 393.105 732.366 393.105 732.366H445.899C445.899 732.366 454.983 732.536 456.729 732.093C458.475 731.647 457.353 729.759 457.353 729.759C457.353 729.759 451.298 724.956 448.399 721.528C446.432 719.198 445.982 712.811 445.899 708.961V704.193H532.92C535.1 704.193 536.87 702.424 536.87 700.244V545.95C536.87 543.769 535.1 542 532.92 542ZM447.51 722.346C450.176 725.501 455.299 729.672 456.421 730.573C456.464 730.675 456.5 730.79 456.512 730.873C456.492 730.881 456.468 730.885 456.444 730.893C456.125 730.976 454.829 731.165 449.706 731.165C447.657 731.165 445.939 731.133 445.923 731.133H393.105C393.066 731.133 391.351 731.165 389.298 731.165C384.171 731.165 382.876 730.976 382.556 730.893C382.528 730.885 382.508 730.877 382.489 730.873C382.504 730.79 382.536 730.675 382.579 730.573C383.705 729.668 388.824 725.501 391.49 722.346C393.615 719.83 394.183 713.696 394.286 708.988V704.245H444.71V708.961C444.817 713.696 445.386 719.83 447.51 722.346ZM305.95 543.185H532.92C534.445 543.185 535.685 544.425 535.685 545.95V682.21H303.185V545.95C303.185 544.425 304.425 543.185 305.95 543.185ZM532.92 703.012H305.95C304.425 703.012 303.185 701.772 303.185 700.248V683.395H535.685V700.248C535.685 701.772 534.445 703.012 532.92 703.012Z" fill="#FFE6D3"/>
</g>
<g clip-path="url(#clip6_439_3334)">
<path d="M472.769 156.476L472.769 69.3524C472.769 66.7852 470.648 64.7059 468.029 64.7059L349.74 64.7059C347.121 64.7059 345 66.7852 345 69.3524L345 156.476C345 159.043 347.121 161.122 349.74 161.122L468.029 161.122C470.648 161.122 472.769 159.043 472.769 156.476ZM349.74 159.96C347.781 159.96 346.185 158.396 346.185 156.476L346.185 69.3524C346.185 67.4319 347.781 65.8675 349.74 65.8675L468.029 65.8675C469.988 65.8675 471.584 67.4319 471.584 69.3524L471.584 156.476C471.584 158.396 469.988 159.96 468.029 159.96L349.74 159.96Z" fill="#FFE6D3"/>
<path d="M462.303 74.4832L356.849 74.4832L356.849 151.345L462.303 151.345L462.303 74.4832ZM358.034 150.183L358.034 75.6449L461.118 75.6449L461.118 150.183L358.034 150.183Z" fill="#FFE6D3"/>
<path d="M354.38 112.914C354.38 111.296 353.041 109.987 351.394 109.987C349.744 109.987 348.409 111.299 348.409 112.914C348.409 114.529 349.748 115.841 351.394 115.841C353.041 115.841 354.38 114.533 354.38 112.914ZM349.59 112.914C349.59 111.938 350.399 111.148 351.391 111.148C352.382 111.148 353.192 111.942 353.192 112.914C353.192 113.89 352.382 114.68 351.391 114.68C350.399 114.68 349.59 113.89 349.59 112.914Z" fill="#FFE6D3"/>
</g>
</g>
<defs>
<clipPath id="clip0_439_3334">
<rect width="450" height="750" fill="white"/>
</clipPath>
<clipPath id="clip1_439_3334">
<rect width="37.9239" height="78.96" fill="white" transform="translate(172 129)"/>
</clipPath>
<clipPath id="clip2_439_3334">
<rect width="37.9239" height="78.96" fill="white" transform="translate(118.884 42.958) rotate(90)"/>
</clipPath>
<clipPath id="clip3_439_3334">
<rect width="230.13" height="123.393" fill="white" transform="translate(173 267)"/>
</clipPath>
<clipPath id="clip4_439_3334">
<rect width="98.3445" height="125.264" fill="white" transform="translate(127 428.431)"/>
</clipPath>
<clipPath id="clip5_439_3334">
<rect width="234.87" height="190.401" fill="white" transform="translate(302 542)"/>
</clipPath>
<clipPath id="clip6_439_3334">
<rect width="96.4162" height="127.769" fill="white" transform="translate(472.769 64.7059) rotate(90)"/>
</clipPath>
</defs>
</svg>
