<svg width="43" height="39" viewBox="0 0 43 39" fill="none" xmlns="http://www.w3.org/2000/svg">
<g id="ilustra">
<g id="Group">
<path id="Vector" d="M3.96169 11.9535C3.55107 13.0496 3.34243 14.2101 3.13646 15.3632C2.83783 17.0292 2.53854 18.7139 2.63519 20.404C2.72251 21.9225 3.12846 23.4074 3.66906 24.828C4.31631 26.5295 5.17953 28.1841 6.47004 29.4632C7.29993 30.2858 8.29314 30.9395 9.04637 31.8338C9.74428 32.6618 10.2109 33.6674 10.9121 34.4933C12.3333 36.168 14.5297 36.9148 16.6141 37.5886C18.2099 38.1048 19.8417 38.6264 21.5174 38.5902C24.2438 38.5312 26.7235 37.0147 29.4038 36.5126C30.6749 36.2746 31.9941 36.2639 33.2233 35.8583C34.8298 35.328 36.1476 34.1675 37.3368 32.9588C39.3852 30.8771 41.2723 28.4 41.6309 25.4938C41.7975 24.1402 41.6215 22.7625 41.7829 21.4083C41.9995 19.5848 42.8214 17.8538 42.8621 16.0175C42.8854 14.9516 42.6428 13.8984 42.3595 12.8713C41.5342 9.88127 40.2064 6.81482 37.6314 5.10528C36.1902 4.1486 34.4845 3.70345 32.8473 3.15104C28.7645 1.772 24.7064 -0.391405 20.4249 0.0611211C18.6738 0.246154 17.0014 0.866953 15.3502 1.48239C12.8306 2.42096 10.2269 2.92176 8.67975 5.25411C7.14328 7.57037 5.01555 9.30405 3.96169 11.9535Z" fill="#FFD469"/>
<path id="Vector_2" d="M42.3735 12.8707C41.5483 9.8807 40.2204 6.81425 37.6454 5.10471C37.4068 4.94649 37.1608 4.80169 36.9088 4.66895C38.4533 6.40262 39.3752 8.72626 40.0051 11.007C40.2884 12.0341 40.531 13.0873 40.5077 14.1532C40.4671 15.9895 39.6452 17.7198 39.4285 19.544C39.2679 20.8982 39.4439 22.2759 39.2772 23.6294C38.9193 26.5357 37.0315 29.0128 34.9831 31.0945C33.7939 32.3032 32.4761 33.4637 30.8696 33.994C29.6411 34.3996 28.3219 34.4096 27.0501 34.6483C24.3691 35.1504 21.8901 36.6669 19.1638 36.7259C17.488 36.7621 15.8555 36.2405 14.2604 35.7243C13.1052 35.3509 11.916 34.9547 10.8435 34.3909C10.8715 34.425 10.8988 34.4592 10.9275 34.4928C12.3486 36.1674 14.545 36.9143 16.6294 37.588C18.2252 38.1042 19.857 38.6258 21.5328 38.5896C24.2591 38.5306 26.7388 37.0142 29.4191 36.512C30.6903 36.274 32.0095 36.2633 33.2386 35.8577C34.8451 35.3274 36.1629 34.1669 37.3521 32.9582C39.4005 30.8766 41.2876 28.3994 41.6462 25.4932C41.8129 24.1396 41.6369 22.7619 41.7976 21.4077C42.0142 19.5842 42.8361 17.8532 42.8767 16.017C42.9001 14.951 42.6574 13.8978 42.3735 12.8707Z" fill="#FFBB61"/>
<path id="Vector_3" d="M7.54785 14.6633C7.50186 14.8363 7.44853 15.0166 7.48719 15.1916C7.51385 15.3123 7.58251 15.4188 7.6545 15.5187C8.17444 16.2475 8.93767 16.8187 9.80956 17.0077C10.6814 17.1968 11.654 16.9702 12.2879 16.3393C12.9218 15.7091 13.1511 14.67 12.7572 13.8655C12.1399 12.6058 12.2333 10.4042 10.2682 10.6321C8.1831 10.8748 7.97513 13.0469 7.54785 14.6633Z" fill="#85524A"/>
<path id="Vector_4" d="M24.4357 6.16239C24.4431 6.55592 24.6977 6.90453 24.7477 7.29471C24.797 7.68354 24.649 8.12132 24.867 8.44647C24.995 8.63687 25.219 8.73475 25.4303 8.82123C26.3008 9.17856 27.2194 9.53119 28.1539 9.42728C29.0885 9.32403 30.0257 8.60603 30.0457 7.66142C30.0564 7.15526 29.7897 6.65246 29.3658 6.3796C28.8765 6.06518 28.2339 6.05713 27.7606 5.71925C27.1787 5.30426 26.8761 4.88392 26.1209 4.88526C25.4083 4.8866 24.4197 5.32639 24.4357 6.16239Z" fill="#85524A"/>
<path id="Vector_5" d="M31.6675 24.8503C31.7968 25.518 32.2307 26.1087 32.2814 26.7864C32.2914 26.9185 32.2867 27.0526 32.3221 27.18C32.3761 27.371 32.516 27.5266 32.674 27.6466C33.5046 28.2808 34.7751 27.9885 35.511 27.2443C36.8215 25.9196 37.5354 22.7124 35.383 21.7993C33.6339 21.0578 31.3115 23.014 31.6675 24.8503Z" fill="#85524A"/>
<path id="Vector_6" d="M16.3121 32.9387C16.0755 33.1566 15.8475 33.3999 15.7402 33.7036C15.6328 34.0073 15.6748 34.3847 15.9161 34.5966C16.0335 34.6992 16.1841 34.7535 16.3314 34.8031C17.3646 35.1504 18.4385 35.3736 19.5243 35.4654C19.987 35.505 20.4616 35.5191 20.9062 35.3843C23.0099 34.7448 21.2695 33.2558 20.2236 32.6296C18.9478 31.866 17.4246 31.9143 16.3121 32.9387Z" fill="#85524A"/>
<path id="Vector_7" d="M9.99894 24.3572C9.93228 24.5409 9.89295 24.7414 9.93628 24.9318C10.0149 25.277 10.3482 25.5097 10.6889 25.6008C11.0288 25.6913 11.3874 25.6732 11.7374 25.7061C12.1927 25.749 12.6393 25.8804 13.0452 26.0902C13.2619 26.2022 13.4725 26.3383 13.7111 26.3852C14.3144 26.5039 14.915 25.9608 14.989 25.3474C15.063 24.734 14.7063 24.1273 14.2097 23.7632C12.9526 22.8408 10.6529 22.5605 9.99894 24.3572Z" fill="#85524A"/>
<path id="Vector_8" d="M9.80496 11.2906C9.435 11.4951 9.19637 11.8773 9.03239 12.2681C8.86841 12.659 8.76176 13.0746 8.56978 13.452C8.47313 13.6424 8.35381 13.8255 8.30981 14.034C8.26515 14.2425 8.31781 14.4919 8.49912 14.6031C8.82441 14.8029 9.23436 14.4342 9.60898 14.5039C9.83428 14.5462 10.0196 14.7453 10.2489 14.7412C10.4035 14.7386 10.5415 14.6414 10.6482 14.5287C10.9595 14.2016 11.0848 13.7068 10.9675 13.2704C10.9301 13.1303 10.8695 12.9955 10.8488 12.852C10.8288 12.7079 10.8582 12.5457 10.9701 12.4538C11.0401 12.3968 11.1321 12.3747 11.2061 12.3231C11.8367 11.89 10.4095 10.9561 9.80496 11.2906Z" fill="#A0634D"/>
<path id="Vector_9" d="M25.4689 5.54093C25.2822 5.67702 25.1663 5.94117 25.2722 6.14698C25.3542 6.30654 25.5509 6.40509 25.5755 6.58342C25.5935 6.71214 25.5122 6.8308 25.4622 6.9508C25.3436 7.2364 25.4109 7.59037 25.6255 7.81161C25.8402 8.03284 26.1908 8.10927 26.4774 7.99731C26.6087 7.94569 26.7361 7.83976 26.7441 7.69898C26.7521 7.55082 26.6294 7.43081 26.5827 7.29003C26.4734 6.96086 26.8321 6.63035 27.1767 6.62565C27.522 6.62096 27.8306 6.82543 28.1212 7.01181C28.4118 7.19818 28.7411 7.38187 29.0824 7.33025C29.1344 7.32221 29.1871 7.30813 29.2277 7.27461C29.3064 7.20824 29.3124 7.08287 29.2677 6.98969C29.2231 6.8965 29.1391 6.82946 29.0551 6.76912C28.8311 6.60822 28.5892 6.47347 28.3352 6.36755C28.0572 6.25224 27.7579 6.16843 27.5253 5.97603C26.9087 5.46719 26.3095 4.92885 25.4689 5.54093Z" fill="#A0634D"/>
<path id="Vector_10" d="M11.2161 24.9372C11.2801 24.9325 11.3467 24.9272 11.404 24.8983C11.474 24.8635 11.5227 24.7978 11.5754 24.7408C11.926 24.364 12.4999 24.3151 13.0118 24.3486C13.2331 24.3627 13.5271 24.3385 13.5764 24.1207C13.6218 23.9195 13.4011 23.766 13.2091 23.6936C12.5999 23.4643 11.51 23.2491 10.9261 23.6675C10.3095 24.1099 10.3235 25.0036 11.2161 24.9372Z" fill="#A0634D"/>
<path id="Vector_11" d="M17.1553 32.9217C16.8927 33.1135 16.6394 33.3173 16.3967 33.5338C16.3147 33.6069 16.2281 33.692 16.2188 33.802C16.2061 33.9495 16.3354 34.0681 16.4614 34.1452C16.7767 34.339 17.1666 34.4396 17.5213 34.335C18.0892 34.1667 18.4578 33.5191 19.0471 33.4654C19.5037 33.4239 19.9243 33.7631 20.3829 33.7531C20.7002 33.1142 19.475 32.6006 19.0377 32.4753C18.3558 32.2795 17.7119 32.5155 17.1553 32.9217Z" fill="#A0634D"/>
<path id="Vector_12" d="M32.5846 23.4362C32.492 23.6943 32.5033 23.9772 32.516 24.2514C32.5287 24.531 32.5413 24.8105 32.554 25.0901C32.5673 25.3904 32.582 25.6948 32.6753 25.9804C32.7686 26.266 32.9526 26.5348 33.2239 26.6615C33.4945 26.7882 33.8565 26.7379 34.0365 26.4979C34.1964 26.2848 34.1818 25.9878 34.1278 25.7263C34.0731 25.4648 33.9858 25.2007 34.0231 24.9366C34.0745 24.5765 34.3818 24.2688 34.7404 24.2199C35.1243 24.1669 35.5936 24.3573 35.8569 24.0711C35.9536 23.9658 35.9915 23.8176 36.0042 23.6748C36.2022 21.4987 33.1052 21.9827 32.5846 23.4362Z" fill="#A0634D"/>
<path id="Vector_13" d="M7.66722 11.6264C8.00851 10.8742 8.76375 10.3285 9.58231 10.2433C10.4002 10.1582 11.2508 10.5377 11.7374 11.204C11.8327 11.3348 11.9947 11.4937 12.1247 11.3971C12.2253 11.3227 12.1913 11.1645 12.1387 11.0498C11.9633 10.6697 11.696 10.3392 11.3954 10.0489C11.0908 9.75529 10.7442 9.49651 10.3495 9.34567C9.55165 9.04063 8.60711 9.22298 7.93252 9.74925C7.25794 10.2755 6.854 11.1135 6.78734 11.9696C6.75801 12.3437 6.78867 12.7245 6.71601 13.0926C6.61536 13.6034 6.31806 14.1129 6.46471 14.6131C6.5167 14.7901 6.66402 14.9697 6.846 14.9449C7.27527 14.8859 7.07597 13.9179 7.13329 13.6222C7.25461 12.9846 7.39859 12.2184 7.66722 11.6264Z" fill="#FFBB61"/>
<path id="Vector_14" d="M23.7478 6.22962C23.6379 5.27228 24.4684 4.37058 25.4143 4.21839C26.3608 4.06554 27.3287 4.54019 27.9726 5.25418C28.12 5.41708 28.3106 5.61217 28.5199 5.54714C28.2679 5.21931 28.016 4.89148 27.764 4.56365C27.568 4.30823 27.3654 4.04744 27.0907 3.88051C26.7508 3.67335 26.3368 3.63246 25.9396 3.63044C25.2423 3.62709 24.5197 3.73704 23.9372 4.12118C23.3546 4.50533 22.9439 5.21261 23.0653 5.90313C23.1713 6.50717 23.6499 7.00662 23.7032 7.61737C23.7165 7.77156 23.7025 7.92978 23.7438 8.07861C23.9245 8.73159 24.4831 8.1423 24.3024 7.63279C24.1311 7.15009 23.8118 6.79075 23.7478 6.22962Z" fill="#FFBB61"/>
<path id="Vector_15" d="M9.50895 23.7266C9.91556 23.0455 10.6995 22.6513 11.4854 22.5762C12.2719 22.5011 13.0605 22.7109 13.7897 23.0173C13.8824 22.792 13.6018 22.6023 13.3731 22.5205C12.7259 22.2872 12.0746 22.0526 11.3967 21.9366C10.8901 21.8501 10.3528 21.834 9.87823 22.0318C9.54228 22.1712 9.25631 22.4106 9.00368 22.6727C8.54907 23.144 8.16845 23.7668 8.25044 24.4185C8.30777 24.8737 8.58907 25.2772 8.93969 25.5716C9.27031 25.8491 9.70626 26.1126 10.1129 26.2259C9.48562 25.4502 8.87836 24.7845 9.50895 23.7266Z" fill="#FFBB61"/>
<path id="Vector_16" d="M34.2052 21.2172C34.7938 21.1844 35.4064 21.2601 35.9136 21.5625C36.4209 21.8642 36.8022 22.424 36.7762 23.0166C37.1555 22.5071 37.0128 21.7428 36.6042 21.2575C36.1956 20.7714 35.5857 20.5086 34.9851 20.3088C34.3465 20.097 33.6806 19.9354 33.008 19.9582C32.3354 19.981 31.6515 20.2029 31.1669 20.6722C30.6243 21.1978 30.385 21.9802 30.3697 22.7377C30.3543 23.4953 30.539 24.2414 30.7343 24.9735C30.8556 25.4267 31.1402 26.1923 31.7188 26.1367C31.9401 25.0419 30.677 24.3467 31.1689 23.1353C31.6708 21.897 32.9333 21.2883 34.2052 21.2172Z" fill="#FFBB61"/>
<path id="Vector_17" d="M15.6442 32.4962C17.1393 31.3672 19.3684 31.3471 20.8829 32.4492C20.9409 32.2065 20.7349 31.986 20.5362 31.8372C19.1598 30.8014 17.1873 30.6398 15.6622 31.4369C15.1916 31.683 14.757 32.0195 14.465 32.4647C14.1731 32.9105 14.0371 33.4736 14.1704 33.9905C14.249 34.2949 14.4317 34.5865 14.7143 34.7213C14.9929 34.8547 15.3696 34.795 15.5335 34.5268C15.2582 34.2426 14.8796 34.0482 14.877 33.6111C14.8743 33.1827 15.3342 32.7301 15.6442 32.4962Z" fill="#FFBB61"/>
<path id="Vector_18" opacity="0.25" d="M5.40619 10.222C5.08557 10.5887 4.75627 10.9728 4.62562 11.4434C4.46365 12.0267 4.63296 12.6428 4.69562 13.2448C4.83693 14.6017 4.42965 15.9459 4.16235 17.284C3.89505 18.6215 3.78506 20.0904 4.45565 21.2763C4.48298 21.3253 4.51431 21.3755 4.5643 21.401C4.72961 21.4848 4.86359 21.2421 4.89426 21.0584C5.19222 19.2664 5.49151 17.4597 5.43685 15.6435C5.41552 14.9383 5.34087 14.2297 5.43019 13.5304C5.56684 12.4665 6.07411 11.491 6.59937 10.5578C7.01265 9.82373 7.46993 9.07153 8.1825 8.62705C9.52033 7.79105 11.2521 8.29386 12.8179 8.12022C14.0957 7.97876 15.3136 7.34724 16.1702 6.38319C16.6314 5.86429 16.9914 5.25355 17.504 4.78493C17.9479 4.37934 18.4892 4.0971 19.0351 3.84569C20.8895 2.99293 22.9739 2.44253 24.9677 2.87025C25.6163 3.00969 26.2429 3.2497 26.9001 3.33551C27.5574 3.42132 28.2813 3.32881 28.7739 2.88298C28.4026 2.11134 27.3701 2.03693 26.5248 1.92631C25.157 1.74731 23.8538 1.20026 22.482 1.0588C20.8516 0.8912 19.1911 1.31423 17.7519 2.10263C17.0674 2.47806 16.4195 2.93729 15.6789 3.18467C14.9976 3.41261 14.2684 3.44948 13.5685 3.61038C10.1896 4.3847 7.57458 7.7401 5.40619 10.222Z" fill="white"/>
<g id="Group_2">
<path id="Vector_19" d="M17.0793 14.4159C16.9007 14.8155 16.9134 15.2848 17.0587 15.6978C17.2033 16.1114 17.5013 16.4949 17.9166 16.6276C18.1019 16.6866 18.2992 16.6933 18.4932 16.6933C18.7398 16.6933 18.9944 16.6826 19.2197 16.5807C19.679 16.3742 19.9083 15.8419 19.965 15.3391C20.0023 15.0052 19.9803 14.658 19.845 14.3509C19.7097 14.0439 19.4504 13.7824 19.1271 13.6979C18.3825 13.5055 17.4253 13.643 17.0793 14.4159Z" fill="#1D1E1E"/>
<path id="Vector_20" d="M18.1798 14.2213C17.8905 14.4016 17.6639 14.6825 17.5466 15.0043C17.5199 15.0781 17.4986 15.1599 17.5239 15.2343C17.5446 15.2946 17.5932 15.3409 17.6472 15.3751C17.8179 15.4823 18.0432 15.475 18.2272 15.3925C18.4111 15.3107 18.5591 15.1626 18.6811 15.0017C18.7871 14.8622 18.8791 14.7033 18.8977 14.5284C18.9157 14.3534 18.8451 14.1603 18.6911 14.0765C18.5278 13.988 18.3165 14.0457 18.1758 14.1677L18.1798 14.2213Z" fill="white"/>
</g>
<g id="Group_3">
<path id="Vector_21" d="M25.6309 14.2979C25.4522 14.6974 25.4649 15.1667 25.6102 15.5797C25.7548 15.9933 26.0528 16.3768 26.4681 16.5096C26.6534 16.5685 26.8507 16.5753 27.0447 16.5753C27.2913 16.5753 27.5459 16.5645 27.7713 16.4626C28.2305 16.2561 28.4598 15.7238 28.5165 15.221C28.5538 14.8872 28.5318 14.5399 28.3965 14.2328C28.2612 13.9258 28.0019 13.6643 27.6786 13.5799C26.934 13.3875 25.9768 13.5242 25.6309 14.2979Z" fill="#1D1E1E"/>
<path id="Vector_22" d="M26.7313 14.1027C26.442 14.283 26.2154 14.5639 26.0981 14.8857C26.0714 14.9594 26.0501 15.0412 26.0754 15.1156C26.0961 15.176 26.1448 15.2222 26.1987 15.2564C26.3694 15.3637 26.5947 15.3563 26.7787 15.2739C26.9626 15.1921 27.1106 15.0439 27.2326 14.883C27.3386 14.7429 27.4306 14.5847 27.4493 14.4097C27.4672 14.2347 27.3966 14.0416 27.2426 13.9578C27.0793 13.8694 26.868 13.927 26.7273 14.049L26.7313 14.1027Z" fill="white"/>
</g>
<path id="Vector_23" d="M21.7128 21.5168C22.596 22.1933 23.6259 22.013 23.8832 21.9667C24.3638 21.8809 24.7564 21.4733 25.0303 21.067C25.3043 20.6607 25.4356 20.168 25.4583 19.6772C25.2996 20.0493 24.9803 20.3342 24.6231 20.5206C24.2658 20.707 23.8705 20.8049 23.4765 20.888C22.9293 21.0033 22.4613 21.0201 21.9521 20.7881C21.5308 20.5964 21.1068 20.284 20.8229 19.9173C20.9422 20.0714 20.9742 20.4583 21.0842 20.6527C21.2408 20.9309 21.4608 21.3238 21.7128 21.5168Z" fill="#1D1E1E"/>
<path id="Vector_24" d="M18.2038 11.1609C18.3105 11.1375 18.4471 11.1321 18.5018 11.2273C18.5831 11.3701 18.3845 11.5042 18.2298 11.5578C17.5019 11.8112 17.0813 12.3187 16.4934 12.7465C15.9494 11.9661 17.6999 11.2716 18.2038 11.1609Z" fill="#1D1E1E"/>
<path id="Vector_25" d="M26.3529 11.2215C26.3415 11.3348 26.4229 11.4394 26.5208 11.4964C26.6188 11.5534 26.7322 11.5755 26.8395 11.611C27.3221 11.7706 27.6647 12.1909 28.08 12.4846C28.146 12.5315 28.2186 12.5764 28.2993 12.5818C28.3799 12.5871 28.4699 12.5375 28.4833 12.4571C28.4946 12.3867 28.4479 12.3216 28.4019 12.2673C28.0926 11.8979 27.7274 11.5762 27.3227 11.3167C27.1794 11.2249 26.3942 10.8206 26.3529 11.2215Z" fill="#1D1E1E"/>
<path id="Vector_26" d="M34.5665 12.0324C34.3065 12.3482 34.4072 12.8322 34.6152 13.1848C34.8231 13.5375 35.1244 13.8385 35.2664 14.2233C35.3244 14.3815 35.3544 14.5504 35.4291 14.702C35.5517 14.9507 35.7823 15.1257 36.005 15.2906C36.2136 15.4454 36.4403 15.607 36.6996 15.6124C37.0895 15.6204 37.3961 15.2731 37.5668 14.9205C37.9667 14.0952 38.0434 12.3917 37.0375 11.9164C36.5263 11.6744 34.9411 11.5772 34.5665 12.0324Z" fill="#85524A"/>
<path id="Vector_27" d="M35.5856 13.0434C35.8902 13.2767 35.9296 13.7185 36.1315 14.0457C36.2275 14.2012 36.4102 14.3427 36.5781 14.273C36.6555 14.2408 36.7095 14.1711 36.7594 14.104C36.9274 13.8808 37.0981 13.6522 37.1854 13.386C37.4234 12.6593 36.6701 12.0961 36.0115 11.9949C35.7409 11.9533 35.415 12.009 35.243 12.2624C34.955 12.6874 35.2676 12.7994 35.5856 13.0434Z" fill="#A0634D"/>
<path id="Vector_28" d="M34.2738 11.5949C34.6471 11.1886 35.233 11.0592 35.7823 11.0418C36.0336 11.0337 36.2862 11.0451 36.5315 11.1008C37.3541 11.2865 38.0307 12.0085 38.1667 12.8452C38.4013 12.5951 38.4106 12.1915 38.2693 11.8785C38.128 11.5654 37.8627 11.3274 37.5894 11.1209C36.9241 10.6181 36.1276 10.238 35.295 10.2534C34.8077 10.2628 34.3078 10.4203 33.9645 10.7683C33.7759 10.9593 33.6426 11.1993 33.5326 11.4447C33.4233 11.6887 33.3339 11.9509 33.3473 12.2184C33.3686 12.6434 33.6352 12.9726 33.9279 13.2535C34.0718 13.3916 34.7004 14.0016 34.6831 13.4814C34.6751 13.2414 34.1805 13.0255 34.0705 12.7962C33.8892 12.4181 33.9985 11.8945 34.2738 11.5949Z" fill="#FFBB61"/>
</g>
</g>
</svg>
