<svg width="159" height="203" viewBox="0 0 159 203" fill="none" xmlns="http://www.w3.org/2000/svg">
<g clip-path="url(#clip0_57_12073)">
<path fill-rule="evenodd" clip-rule="evenodd" d="M28.4297 81.8631C24.6825 86.8088 22.9167 93.8204 22.9167 101.5C22.9167 109.18 24.6825 116.191 28.4297 121.137C31.973 125.814 37.7965 129.333 47.6712 129.333C53.4031 129.333 60.7461 126.068 69.7215 119.833C76.9514 114.81 84.5508 108.368 92.4063 101.5C84.5508 94.6322 76.9514 88.1899 69.7215 83.1673C60.7461 76.932 53.4031 73.6667 47.6712 73.6667C37.7965 73.6667 31.973 77.1865 28.4297 81.8631ZM101.5 93.5118C93.2048 86.2387 84.7326 78.984 76.568 73.312C67.2804 66.8599 57.3207 61.6667 47.6712 61.6667C34.4885 61.6667 24.9347 66.6053 18.865 74.6162C12.9994 82.358 10.9167 92.2631 10.9167 101.5C10.9167 110.737 12.9994 120.642 18.865 128.384C24.9347 136.395 34.4885 141.333 47.6712 141.333C57.3207 141.333 67.2804 136.14 76.568 129.688C84.7326 124.016 93.2048 116.761 101.5 109.488C109.795 116.761 118.267 124.016 126.432 129.688C135.72 136.14 145.679 141.333 155.329 141.333C168.512 141.333 178.065 136.395 184.135 128.384C190.001 120.642 192.083 110.737 192.083 101.5C192.083 92.2631 190.001 82.358 184.135 74.6162C178.065 66.6053 168.512 61.6667 155.329 61.6667C145.679 61.6667 135.72 66.8599 126.432 73.312C118.267 78.984 109.795 86.2387 101.5 93.5118ZM110.594 101.5C118.449 108.368 126.049 114.81 133.279 119.833C142.254 126.068 149.597 129.333 155.329 129.333C165.204 129.333 171.027 125.814 174.57 121.137C178.318 116.191 180.083 109.18 180.083 101.5C180.083 93.8204 178.318 86.8088 174.57 81.8631C171.027 77.1865 165.204 73.6667 155.329 73.6667C149.597 73.6667 142.254 76.932 133.279 83.1673C126.049 88.1899 118.449 94.6322 110.594 101.5Z" fill="url(#paint0_linear_57_12073)"/>
</g>
<defs>
<linearGradient id="paint0_linear_57_12073" x1="101.5" y1="61.6667" x2="101.5" y2="141.333" gradientUnits="userSpaceOnUse">
<stop stop-color="#FFB906"/>
<stop offset="1" stop-color="#FF5C00"/>
</linearGradient>
<clipPath id="clip0_57_12073">
<rect width="159" height="203" fill="white"/>
</clipPath>
</defs>
</svg>
