<svg width="54" height="54" viewBox="0 0 54 54" fill="none" xmlns="http://www.w3.org/2000/svg">
<path fill-rule="evenodd" clip-rule="evenodd" d="M28.341 4.59682C25.4137 4.38982 23.1593 6.81532 23.1593 9.56032V11.9296C23.1593 17.9281 19.08 20.4458 16.9178 21.3796C16.5418 21.5343 16.1455 21.6336 15.741 21.6743C15.6742 20.6779 15.2313 19.744 14.5019 19.0618C13.7725 18.3797 12.8112 18.0001 11.8125 18.0001H8.4375C7.39321 18.0001 6.39169 18.4149 5.65327 19.1533C4.91484 19.8918 4.5 20.8933 4.5 21.9376V45.5626C4.5 47.7383 6.264 49.5001 8.4375 49.5001H11.8125C12.7907 49.5002 13.7339 49.1363 14.4584 48.4791C15.183 47.822 15.637 46.9186 15.732 45.9451C17.6175 46.0801 19.4828 46.6111 21.7845 47.2636L23.139 47.6461C26.433 48.5596 30.3682 49.5001 35.613 49.5001C40.536 49.5001 43.9222 49.0411 45.9247 46.4131C46.8742 45.1666 47.3872 43.5893 47.7607 41.8006C48.0937 40.2076 48.3502 38.2681 48.6517 35.9956L48.7665 35.1181C49.4842 29.7496 49.5045 25.7131 48.2648 22.9816C47.6055 21.5326 46.593 20.4503 45.216 19.7618C43.8885 19.0958 42.327 18.8528 40.635 18.8528H36.0225L36.1485 17.8876C36.2047 17.4826 36.261 17.0506 36.3195 16.6006C36.4545 15.5138 36.5828 14.3371 36.5828 13.3651C36.5828 10.5638 36.0832 8.29582 34.5127 6.74782C32.9737 5.22907 30.7597 4.76782 28.341 4.59682V4.59682ZM15.75 42.5656C18.1328 42.7096 20.4277 43.3643 22.7655 44.0326L24.0435 44.3926C27.207 45.2701 30.807 46.1251 35.613 46.1251C40.7363 46.1251 42.372 45.5086 43.2405 44.3678C43.7265 43.7311 44.1135 42.7523 44.4555 41.1098C44.7615 39.6473 45 37.8473 45.3082 35.5366L45.4208 34.6726C46.1408 29.2726 45.99 26.1338 45.1912 24.3788C44.8312 23.5868 44.3475 23.1008 43.7062 22.7791C43.02 22.4348 42.0412 22.2278 40.635 22.2278H35.3025C33.7702 22.2278 32.3933 20.9453 32.5778 19.2398C32.6363 18.6931 32.724 18.0316 32.814 17.3633L32.9715 16.1776C33.1065 15.0931 33.2077 14.1053 33.2077 13.3651C33.2077 10.8338 32.7285 9.72682 32.1435 9.15082C31.5248 8.54332 30.402 8.12707 28.1048 7.96282C27.315 7.90882 26.5343 8.57932 26.5343 9.56032V11.9296C26.5343 19.9171 20.9362 23.3213 18.2542 24.4778C17.4172 24.8378 16.5577 24.9998 15.75 25.0628V42.5678V42.5656ZM8.4375 46.1251C8.28832 46.1251 8.14524 46.0658 8.03975 45.9603C7.93426 45.8548 7.875 45.7118 7.875 45.5626V21.9376C7.875 21.7884 7.93426 21.6453 8.03975 21.5398C8.14524 21.4343 8.28832 21.3751 8.4375 21.3751H11.8125C11.9617 21.3751 12.1048 21.4343 12.2102 21.5398C12.3157 21.6453 12.375 21.7884 12.375 21.9376V45.5626C12.375 45.7118 12.3157 45.8548 12.2102 45.9603C12.1048 46.0658 11.9617 46.1251 11.8125 46.1251H8.4375Z" fill="#222222"/>
<path fill-rule="evenodd" clip-rule="evenodd" d="M28.341 4.59682C25.4137 4.38982 23.1593 6.81532 23.1593 9.56032V11.9296C23.1593 17.9281 19.08 20.4458 16.9178 21.3796C16.5418 21.5343 16.1455 21.6336 15.741 21.6743C15.6742 20.6779 15.2313 19.744 14.5019 19.0618C13.7725 18.3797 12.8112 18.0001 11.8125 18.0001H8.4375C7.39321 18.0001 6.39169 18.4149 5.65327 19.1533C4.91484 19.8918 4.5 20.8933 4.5 21.9376V45.5626C4.5 47.7383 6.264 49.5001 8.4375 49.5001H11.8125C12.7907 49.5002 13.7339 49.1363 14.4584 48.4791C15.183 47.822 15.637 46.9186 15.732 45.9451C17.6175 46.0801 19.4828 46.6111 21.7845 47.2636L23.139 47.6461C26.433 48.5596 30.3682 49.5001 35.613 49.5001C40.536 49.5001 43.9222 49.0411 45.9247 46.4131C46.8742 45.1666 47.3872 43.5893 47.7607 41.8006C48.0937 40.2076 48.3502 38.2681 48.6517 35.9956L48.7665 35.1181C49.4842 29.7496 49.5045 25.7131 48.2648 22.9816C47.6055 21.5326 46.593 20.4503 45.216 19.7618C43.8885 19.0958 42.327 18.8528 40.635 18.8528H36.0225L36.1485 17.8876C36.2047 17.4826 36.261 17.0506 36.3195 16.6006C36.4545 15.5138 36.5828 14.3371 36.5828 13.3651C36.5828 10.5638 36.0832 8.29582 34.5127 6.74782C32.9737 5.22907 30.7597 4.76782 28.341 4.59682V4.59682ZM15.75 42.5656C18.1328 42.7096 20.4277 43.3643 22.7655 44.0326L24.0435 44.3926C27.207 45.2701 30.807 46.1251 35.613 46.1251C40.7363 46.1251 42.372 45.5086 43.2405 44.3678C43.7265 43.7311 44.1135 42.7523 44.4555 41.1098C44.7615 39.6473 45 37.8473 45.3082 35.5366L45.4208 34.6726C46.1408 29.2726 45.99 26.1338 45.1912 24.3788C44.8312 23.5868 44.3475 23.1008 43.7062 22.7791C43.02 22.4348 42.0412 22.2278 40.635 22.2278H35.3025C33.7702 22.2278 32.3933 20.9453 32.5778 19.2398C32.6363 18.6931 32.724 18.0316 32.814 17.3633L32.9715 16.1776C33.1065 15.0931 33.2077 14.1053 33.2077 13.3651C33.2077 10.8338 32.7285 9.72682 32.1435 9.15082C31.5248 8.54332 30.402 8.12707 28.1048 7.96282C27.315 7.90882 26.5343 8.57932 26.5343 9.56032V11.9296C26.5343 19.9171 20.9362 23.3213 18.2542 24.4778C17.4172 24.8378 16.5577 24.9998 15.75 25.0628V42.5678V42.5656ZM8.4375 46.1251C8.28832 46.1251 8.14524 46.0658 8.03975 45.9603C7.93426 45.8548 7.875 45.7118 7.875 45.5626V21.9376C7.875 21.7884 7.93426 21.6453 8.03975 21.5398C8.14524 21.4343 8.28832 21.3751 8.4375 21.3751H11.8125C11.9617 21.3751 12.1048 21.4343 12.2102 21.5398C12.3157 21.6453 12.375 21.7884 12.375 21.9376V45.5626C12.375 45.7118 12.3157 45.8548 12.2102 45.9603C12.1048 46.0658 11.9617 46.1251 11.8125 46.1251H8.4375Z" fill="url(#paint0_linear_101_12387)"/>
<defs>
<linearGradient id="paint0_linear_101_12387" x1="26.8805" y1="4.58447" x2="26.8805" y2="49.5001" gradientUnits="userSpaceOnUse">
<stop stop-color="#FFB906"/>
<stop offset="1" stop-color="#FF5C00"/>
</linearGradient>
</defs>
</svg>
