<svg width="54" height="54" viewBox="0 0 54 54" fill="none" xmlns="http://www.w3.org/2000/svg">
<path d="M15 7.7998H42V10.1248H15V7.7998Z" fill="#222222"/>
<path d="M15 7.7998H42V10.1248H15V7.7998Z" fill="url(#paint0_linear_101_12369)"/>
<path d="M43.5 12H14.79C14.4072 11.9946 14.0295 11.9117 13.6796 11.7563C13.3297 11.6009 13.0149 11.3763 12.7542 11.096C12.4935 10.8156 12.2922 10.4854 12.1626 10.1252C12.033 9.76493 11.9777 9.38218 12 9C11.9981 8.23943 12.2852 7.50655 12.8032 6.9496C13.3211 6.39266 14.0313 6.05324 14.79 6H43.5C43.8978 6 44.2793 5.84196 44.5606 5.56066C44.842 5.27936 45 4.89782 45 4.5C45 4.10218 44.842 3.72064 44.5606 3.43934C44.2793 3.15804 43.8978 3 43.5 3H14.79C13.2354 3.05444 11.7627 3.71054 10.6825 4.82991C9.60227 5.94928 8.99904 7.44443 8.99999 9C8.98548 9.24479 8.98548 9.49021 8.99999 9.735C8.98554 9.85456 8.98554 9.97544 8.99999 10.095V45C8.99904 46.5556 9.60227 48.0507 10.6825 49.1701C11.7627 50.2895 13.2354 50.9456 14.79 51H43.5C43.8978 51 44.2793 50.842 44.5606 50.5607C44.842 50.2794 45 49.8978 45 49.5V13.605C45.0009 13.1969 44.8463 12.8038 44.5676 12.5057C44.289 12.2075 43.9072 12.0267 43.5 12V12ZM42 48H14.79C14.0313 47.9468 13.3211 47.6073 12.8032 47.0504C12.2852 46.4935 11.9981 45.7606 12 45V14.325C12.8529 14.7955 13.8164 15.0286 14.79 15H42V48Z" fill="#222222"/>
<path d="M43.5 12H14.79C14.4072 11.9946 14.0295 11.9117 13.6796 11.7563C13.3297 11.6009 13.0149 11.3763 12.7542 11.096C12.4935 10.8156 12.2922 10.4854 12.1626 10.1252C12.033 9.76493 11.9777 9.38218 12 9C11.9981 8.23943 12.2852 7.50655 12.8032 6.9496C13.3211 6.39266 14.0313 6.05324 14.79 6H43.5C43.8978 6 44.2793 5.84196 44.5606 5.56066C44.842 5.27936 45 4.89782 45 4.5C45 4.10218 44.842 3.72064 44.5606 3.43934C44.2793 3.15804 43.8978 3 43.5 3H14.79C13.2354 3.05444 11.7627 3.71054 10.6825 4.82991C9.60227 5.94928 8.99904 7.44443 8.99999 9C8.98548 9.24479 8.98548 9.49021 8.99999 9.735C8.98554 9.85456 8.98554 9.97544 8.99999 10.095V45C8.99904 46.5556 9.60227 48.0507 10.6825 49.1701C11.7627 50.2895 13.2354 50.9456 14.79 51H43.5C43.8978 51 44.2793 50.842 44.5606 50.5607C44.842 50.2794 45 49.8978 45 49.5V13.605C45.0009 13.1969 44.8463 12.8038 44.5676 12.5057C44.289 12.2075 43.9072 12.0267 43.5 12V12ZM42 48H14.79C14.0313 47.9468 13.3211 47.6073 12.8032 47.0504C12.2852 46.4935 11.9981 45.7606 12 45V14.325C12.8529 14.7955 13.8164 15.0286 14.79 15H42V48Z" fill="url(#paint1_linear_101_12369)"/>
<defs>
<linearGradient id="paint0_linear_101_12369" x1="28.5" y1="7.7998" x2="28.5" y2="10.1248" gradientUnits="userSpaceOnUse">
<stop stop-color="#FFB906"/>
<stop offset="1" stop-color="#FF5C00"/>
</linearGradient>
<linearGradient id="paint1_linear_101_12369" x1="26.9945" y1="3" x2="26.9945" y2="51" gradientUnits="userSpaceOnUse">
<stop stop-color="#FFB906"/>
<stop offset="1" stop-color="#FF5C00"/>
</linearGradient>
</defs>
</svg>
