<svg width="315" height="65" viewBox="0 0 315 65" fill="none" xmlns="http://www.w3.org/2000/svg">
<path d="M74.488 48.432C73.08 48.432 71.992 48.048 71.224 47.28C70.456 46.48 70.072 45.376 70.072 43.968V18.624C70.072 17.184 70.456 16.08 71.224 15.312C72.024 14.544 73.128 14.16 74.536 14.16H86.344C90.184 14.16 93.144 15.152 95.224 17.136C97.336 19.088 98.392 21.792 98.392 25.248C98.392 28.704 97.336 31.424 95.224 33.408C93.144 35.36 90.184 36.336 86.344 36.336H78.904V43.968C78.904 45.376 78.536 46.48 77.8 47.28C77.064 48.048 75.96 48.432 74.488 48.432ZM78.904 29.568H84.808C86.472 29.568 87.752 29.216 88.648 28.512C89.544 27.776 89.992 26.688 89.992 25.248C89.992 23.776 89.544 22.688 88.648 21.984C87.752 21.28 86.472 20.928 84.808 20.928H78.904V29.568ZM105.833 48.432C104.425 48.432 103.337 48.064 102.569 47.328C101.833 46.592 101.465 45.52 101.465 44.112V28.224C101.465 26.848 101.817 25.792 102.521 25.056C103.257 24.32 104.297 23.952 105.641 23.952C106.985 23.952 108.009 24.32 108.713 25.056C109.417 25.792 109.769 26.848 109.769 28.224V30.192H109.289C109.609 28.272 110.425 26.752 111.737 25.632C113.081 24.512 114.745 23.92 116.729 23.856C117.657 23.824 118.345 24.064 118.793 24.576C119.273 25.056 119.529 25.968 119.561 27.312C119.561 28.464 119.321 29.376 118.841 30.048C118.361 30.72 117.449 31.12 116.105 31.248L115.001 31.344C113.305 31.504 112.073 31.984 111.305 32.784C110.537 33.552 110.153 34.704 110.153 36.24V44.112C110.153 45.52 109.785 46.592 109.049 47.328C108.313 48.064 107.241 48.432 105.833 48.432ZM133.807 48.528C131.183 48.528 128.895 48.032 126.943 47.04C124.991 46.048 123.471 44.624 122.383 42.768C121.295 40.912 120.751 38.72 120.751 36.192C120.751 34.272 121.055 32.56 121.663 31.056C122.271 29.52 123.151 28.224 124.303 27.168C125.455 26.08 126.831 25.264 128.431 24.72C130.031 24.144 131.823 23.856 133.807 23.856C136.431 23.856 138.719 24.352 140.671 25.344C142.623 26.336 144.127 27.76 145.183 29.616C146.271 31.44 146.815 33.632 146.815 36.192C146.815 38.08 146.511 39.792 145.903 41.328C145.295 42.864 144.415 44.176 143.263 45.264C142.143 46.32 140.767 47.136 139.135 47.712C137.535 48.256 135.759 48.528 133.807 48.528ZM133.807 42.24C134.671 42.24 135.439 42.032 136.111 41.616C136.783 41.168 137.295 40.512 137.647 39.648C138.031 38.752 138.223 37.6 138.223 36.192C138.223 34.048 137.807 32.512 136.975 31.584C136.143 30.624 135.087 30.144 133.807 30.144C132.943 30.144 132.175 30.352 131.503 30.768C130.831 31.184 130.303 31.84 129.919 32.736C129.535 33.6 129.343 34.752 129.343 36.192C129.343 38.304 129.759 39.84 130.591 40.8C131.423 41.76 132.495 42.24 133.807 42.24ZM162.88 48.528C160.48 48.528 158.496 48.16 156.928 47.424C155.392 46.688 154.24 45.584 153.472 44.112C152.704 42.608 152.32 40.736 152.32 38.496V30.672H150.688C149.664 30.672 148.864 30.4 148.288 29.856C147.744 29.312 147.472 28.528 147.472 27.504C147.472 26.48 147.744 25.712 148.288 25.2C148.864 24.656 149.664 24.384 150.688 24.384H152.32V21.408C152.32 20 152.688 18.928 153.424 18.192C154.16 17.456 155.216 17.088 156.592 17.088C157.968 17.088 159.024 17.456 159.76 18.192C160.496 18.928 160.864 20 160.864 21.408V24.384H164.8C165.856 24.384 166.656 24.656 167.2 25.2C167.776 25.712 168.064 26.48 168.064 27.504C168.064 28.528 167.776 29.312 167.2 29.856C166.656 30.4 165.856 30.672 164.8 30.672H160.864V38.208C160.864 39.392 161.136 40.272 161.68 40.848C162.256 41.392 163.152 41.664 164.368 41.664C164.816 41.664 165.248 41.616 165.664 41.52C166.08 41.424 166.464 41.376 166.816 41.376C167.328 41.344 167.744 41.504 168.064 41.856C168.384 42.176 168.544 42.928 168.544 44.112C168.544 45.072 168.4 45.888 168.112 46.56C167.824 47.2 167.312 47.664 166.576 47.952C166.128 48.112 165.52 48.24 164.752 48.336C163.984 48.464 163.36 48.528 162.88 48.528ZM182.651 48.528C180.027 48.528 177.739 48.032 175.787 47.04C173.835 46.048 172.315 44.624 171.227 42.768C170.139 40.912 169.595 38.72 169.595 36.192C169.595 34.272 169.899 32.56 170.507 31.056C171.115 29.52 171.995 28.224 173.147 27.168C174.299 26.08 175.675 25.264 177.275 24.72C178.875 24.144 180.667 23.856 182.651 23.856C185.275 23.856 187.563 24.352 189.515 25.344C191.467 26.336 192.971 27.76 194.027 29.616C195.115 31.44 195.659 33.632 195.659 36.192C195.659 38.08 195.355 39.792 194.747 41.328C194.139 42.864 193.259 44.176 192.107 45.264C190.987 46.32 189.611 47.136 187.979 47.712C186.379 48.256 184.603 48.528 182.651 48.528ZM182.651 42.24C183.515 42.24 184.283 42.032 184.955 41.616C185.627 41.168 186.139 40.512 186.491 39.648C186.875 38.752 187.067 37.6 187.067 36.192C187.067 34.048 186.651 32.512 185.819 31.584C184.987 30.624 183.931 30.144 182.651 30.144C181.787 30.144 181.019 30.352 180.347 30.768C179.675 31.184 179.147 31.84 178.763 32.736C178.379 33.6 178.187 34.752 178.187 36.192C178.187 38.304 178.603 39.84 179.435 40.8C180.267 41.76 181.339 42.24 182.651 42.24ZM217.238 48.528C213.494 48.528 210.278 47.808 207.59 46.368C204.902 44.928 202.838 42.896 201.398 40.272C199.99 37.648 199.286 34.576 199.286 31.056C199.286 28.432 199.686 26.048 200.486 23.904C201.318 21.76 202.502 19.92 204.038 18.384C205.606 16.848 207.494 15.68 209.702 14.88C211.942 14.048 214.454 13.632 217.238 13.632C218.71 13.632 220.23 13.808 221.798 14.16C223.398 14.48 224.806 14.976 226.022 15.648C226.918 16.128 227.542 16.736 227.894 17.472C228.246 18.208 228.358 18.96 228.23 19.728C228.134 20.496 227.862 21.184 227.414 21.792C226.966 22.4 226.39 22.816 225.686 23.04C224.982 23.232 224.214 23.12 223.382 22.704C222.422 22.256 221.462 21.92 220.502 21.696C219.574 21.44 218.598 21.312 217.574 21.312C215.59 21.312 213.926 21.696 212.582 22.464C211.27 23.2 210.278 24.288 209.606 25.728C208.934 27.168 208.598 28.944 208.598 31.056C208.598 33.168 208.934 34.96 209.606 36.432C210.278 37.872 211.27 38.976 212.582 39.744C213.926 40.48 215.59 40.848 217.574 40.848C218.406 40.848 219.302 40.752 220.262 40.56C221.222 40.336 222.166 40 223.094 39.552C224.054 39.136 224.902 39.024 225.638 39.216C226.406 39.408 227.014 39.792 227.462 40.368C227.942 40.944 228.246 41.616 228.374 42.384C228.502 43.12 228.39 43.856 228.038 44.592C227.718 45.328 227.142 45.92 226.31 46.368C225.19 47.04 223.798 47.568 222.134 47.952C220.502 48.336 218.87 48.528 217.238 48.528ZM242.886 48.528C240.262 48.528 237.974 48.032 236.022 47.04C234.07 46.048 232.55 44.624 231.462 42.768C230.374 40.912 229.83 38.72 229.83 36.192C229.83 34.272 230.134 32.56 230.742 31.056C231.35 29.52 232.23 28.224 233.382 27.168C234.534 26.08 235.91 25.264 237.51 24.72C239.11 24.144 240.902 23.856 242.886 23.856C245.51 23.856 247.798 24.352 249.75 25.344C251.702 26.336 253.206 27.76 254.262 29.616C255.35 31.44 255.894 33.632 255.894 36.192C255.894 38.08 255.59 39.792 254.982 41.328C254.374 42.864 253.494 44.176 252.342 45.264C251.222 46.32 249.846 47.136 248.214 47.712C246.614 48.256 244.838 48.528 242.886 48.528ZM242.886 42.24C243.75 42.24 244.518 42.032 245.19 41.616C245.862 41.168 246.374 40.512 246.726 39.648C247.11 38.752 247.302 37.6 247.302 36.192C247.302 34.048 246.886 32.512 246.054 31.584C245.222 30.624 244.166 30.144 242.886 30.144C242.022 30.144 241.254 30.352 240.582 30.768C239.91 31.184 239.382 31.84 238.998 32.736C238.614 33.6 238.422 34.752 238.422 36.192C238.422 38.304 238.838 39.84 239.67 40.8C240.502 41.76 241.574 42.24 242.886 42.24ZM271.761 48.528C269.137 48.528 266.849 48.032 264.897 47.04C262.945 46.048 261.425 44.624 260.337 42.768C259.249 40.912 258.705 38.72 258.705 36.192C258.705 34.272 259.009 32.56 259.617 31.056C260.225 29.52 261.105 28.224 262.257 27.168C263.409 26.08 264.785 25.264 266.385 24.72C267.985 24.144 269.777 23.856 271.761 23.856C274.385 23.856 276.673 24.352 278.625 25.344C280.577 26.336 282.081 27.76 283.137 29.616C284.225 31.44 284.769 33.632 284.769 36.192C284.769 38.08 284.465 39.792 283.857 41.328C283.249 42.864 282.369 44.176 281.217 45.264C280.097 46.32 278.721 47.136 277.089 47.712C275.489 48.256 273.713 48.528 271.761 48.528ZM271.761 42.24C272.625 42.24 273.393 42.032 274.065 41.616C274.737 41.168 275.249 40.512 275.601 39.648C275.985 38.752 276.177 37.6 276.177 36.192C276.177 34.048 275.761 32.512 274.929 31.584C274.097 30.624 273.041 30.144 271.761 30.144C270.897 30.144 270.129 30.352 269.457 30.768C268.785 31.184 268.257 31.84 267.873 32.736C267.489 33.6 267.297 34.752 267.297 36.192C267.297 38.304 267.713 39.84 268.545 40.8C269.377 41.76 270.449 42.24 271.761 42.24ZM292.908 48.432C291.564 48.432 290.524 48.064 289.788 47.328C289.052 46.592 288.684 45.52 288.684 44.112V18.048C288.684 16.64 289.052 15.568 289.788 14.832C290.524 14.096 291.564 13.728 292.908 13.728C294.284 13.728 295.34 14.096 296.076 14.832C296.844 15.568 297.228 16.64 297.228 18.048V33.888H297.324L303.18 26.784C303.98 25.824 304.716 25.12 305.388 24.672C306.092 24.192 307.036 23.952 308.22 23.952C309.404 23.952 310.316 24.24 310.956 24.816C311.596 25.392 311.932 26.112 311.964 26.976C311.996 27.84 311.644 28.704 310.908 29.568L304.572 37.056V34.08L311.676 43.008C312.38 43.904 312.668 44.784 312.54 45.648C312.412 46.48 311.996 47.152 311.292 47.664C310.62 48.176 309.756 48.432 308.7 48.432C307.42 48.432 306.396 48.208 305.628 47.76C304.86 47.28 304.092 46.544 303.324 45.552L297.324 38.16H297.228V44.112C297.228 46.992 295.788 48.432 292.908 48.432Z" fill="#FF5C00"/>
<path d="M74.488 48.432C73.08 48.432 71.992 48.048 71.224 47.28C70.456 46.48 70.072 45.376 70.072 43.968V18.624C70.072 17.184 70.456 16.08 71.224 15.312C72.024 14.544 73.128 14.16 74.536 14.16H86.344C90.184 14.16 93.144 15.152 95.224 17.136C97.336 19.088 98.392 21.792 98.392 25.248C98.392 28.704 97.336 31.424 95.224 33.408C93.144 35.36 90.184 36.336 86.344 36.336H78.904V43.968C78.904 45.376 78.536 46.48 77.8 47.28C77.064 48.048 75.96 48.432 74.488 48.432ZM78.904 29.568H84.808C86.472 29.568 87.752 29.216 88.648 28.512C89.544 27.776 89.992 26.688 89.992 25.248C89.992 23.776 89.544 22.688 88.648 21.984C87.752 21.28 86.472 20.928 84.808 20.928H78.904V29.568ZM105.833 48.432C104.425 48.432 103.337 48.064 102.569 47.328C101.833 46.592 101.465 45.52 101.465 44.112V28.224C101.465 26.848 101.817 25.792 102.521 25.056C103.257 24.32 104.297 23.952 105.641 23.952C106.985 23.952 108.009 24.32 108.713 25.056C109.417 25.792 109.769 26.848 109.769 28.224V30.192H109.289C109.609 28.272 110.425 26.752 111.737 25.632C113.081 24.512 114.745 23.92 116.729 23.856C117.657 23.824 118.345 24.064 118.793 24.576C119.273 25.056 119.529 25.968 119.561 27.312C119.561 28.464 119.321 29.376 118.841 30.048C118.361 30.72 117.449 31.12 116.105 31.248L115.001 31.344C113.305 31.504 112.073 31.984 111.305 32.784C110.537 33.552 110.153 34.704 110.153 36.24V44.112C110.153 45.52 109.785 46.592 109.049 47.328C108.313 48.064 107.241 48.432 105.833 48.432ZM133.807 48.528C131.183 48.528 128.895 48.032 126.943 47.04C124.991 46.048 123.471 44.624 122.383 42.768C121.295 40.912 120.751 38.72 120.751 36.192C120.751 34.272 121.055 32.56 121.663 31.056C122.271 29.52 123.151 28.224 124.303 27.168C125.455 26.08 126.831 25.264 128.431 24.72C130.031 24.144 131.823 23.856 133.807 23.856C136.431 23.856 138.719 24.352 140.671 25.344C142.623 26.336 144.127 27.76 145.183 29.616C146.271 31.44 146.815 33.632 146.815 36.192C146.815 38.08 146.511 39.792 145.903 41.328C145.295 42.864 144.415 44.176 143.263 45.264C142.143 46.32 140.767 47.136 139.135 47.712C137.535 48.256 135.759 48.528 133.807 48.528ZM133.807 42.24C134.671 42.24 135.439 42.032 136.111 41.616C136.783 41.168 137.295 40.512 137.647 39.648C138.031 38.752 138.223 37.6 138.223 36.192C138.223 34.048 137.807 32.512 136.975 31.584C136.143 30.624 135.087 30.144 133.807 30.144C132.943 30.144 132.175 30.352 131.503 30.768C130.831 31.184 130.303 31.84 129.919 32.736C129.535 33.6 129.343 34.752 129.343 36.192C129.343 38.304 129.759 39.84 130.591 40.8C131.423 41.76 132.495 42.24 133.807 42.24ZM162.88 48.528C160.48 48.528 158.496 48.16 156.928 47.424C155.392 46.688 154.24 45.584 153.472 44.112C152.704 42.608 152.32 40.736 152.32 38.496V30.672H150.688C149.664 30.672 148.864 30.4 148.288 29.856C147.744 29.312 147.472 28.528 147.472 27.504C147.472 26.48 147.744 25.712 148.288 25.2C148.864 24.656 149.664 24.384 150.688 24.384H152.32V21.408C152.32 20 152.688 18.928 153.424 18.192C154.16 17.456 155.216 17.088 156.592 17.088C157.968 17.088 159.024 17.456 159.76 18.192C160.496 18.928 160.864 20 160.864 21.408V24.384H164.8C165.856 24.384 166.656 24.656 167.2 25.2C167.776 25.712 168.064 26.48 168.064 27.504C168.064 28.528 167.776 29.312 167.2 29.856C166.656 30.4 165.856 30.672 164.8 30.672H160.864V38.208C160.864 39.392 161.136 40.272 161.68 40.848C162.256 41.392 163.152 41.664 164.368 41.664C164.816 41.664 165.248 41.616 165.664 41.52C166.08 41.424 166.464 41.376 166.816 41.376C167.328 41.344 167.744 41.504 168.064 41.856C168.384 42.176 168.544 42.928 168.544 44.112C168.544 45.072 168.4 45.888 168.112 46.56C167.824 47.2 167.312 47.664 166.576 47.952C166.128 48.112 165.52 48.24 164.752 48.336C163.984 48.464 163.36 48.528 162.88 48.528ZM182.651 48.528C180.027 48.528 177.739 48.032 175.787 47.04C173.835 46.048 172.315 44.624 171.227 42.768C170.139 40.912 169.595 38.72 169.595 36.192C169.595 34.272 169.899 32.56 170.507 31.056C171.115 29.52 171.995 28.224 173.147 27.168C174.299 26.08 175.675 25.264 177.275 24.72C178.875 24.144 180.667 23.856 182.651 23.856C185.275 23.856 187.563 24.352 189.515 25.344C191.467 26.336 192.971 27.76 194.027 29.616C195.115 31.44 195.659 33.632 195.659 36.192C195.659 38.08 195.355 39.792 194.747 41.328C194.139 42.864 193.259 44.176 192.107 45.264C190.987 46.32 189.611 47.136 187.979 47.712C186.379 48.256 184.603 48.528 182.651 48.528ZM182.651 42.24C183.515 42.24 184.283 42.032 184.955 41.616C185.627 41.168 186.139 40.512 186.491 39.648C186.875 38.752 187.067 37.6 187.067 36.192C187.067 34.048 186.651 32.512 185.819 31.584C184.987 30.624 183.931 30.144 182.651 30.144C181.787 30.144 181.019 30.352 180.347 30.768C179.675 31.184 179.147 31.84 178.763 32.736C178.379 33.6 178.187 34.752 178.187 36.192C178.187 38.304 178.603 39.84 179.435 40.8C180.267 41.76 181.339 42.24 182.651 42.24ZM217.238 48.528C213.494 48.528 210.278 47.808 207.59 46.368C204.902 44.928 202.838 42.896 201.398 40.272C199.99 37.648 199.286 34.576 199.286 31.056C199.286 28.432 199.686 26.048 200.486 23.904C201.318 21.76 202.502 19.92 204.038 18.384C205.606 16.848 207.494 15.68 209.702 14.88C211.942 14.048 214.454 13.632 217.238 13.632C218.71 13.632 220.23 13.808 221.798 14.16C223.398 14.48 224.806 14.976 226.022 15.648C226.918 16.128 227.542 16.736 227.894 17.472C228.246 18.208 228.358 18.96 228.23 19.728C228.134 20.496 227.862 21.184 227.414 21.792C226.966 22.4 226.39 22.816 225.686 23.04C224.982 23.232 224.214 23.12 223.382 22.704C222.422 22.256 221.462 21.92 220.502 21.696C219.574 21.44 218.598 21.312 217.574 21.312C215.59 21.312 213.926 21.696 212.582 22.464C211.27 23.2 210.278 24.288 209.606 25.728C208.934 27.168 208.598 28.944 208.598 31.056C208.598 33.168 208.934 34.96 209.606 36.432C210.278 37.872 211.27 38.976 212.582 39.744C213.926 40.48 215.59 40.848 217.574 40.848C218.406 40.848 219.302 40.752 220.262 40.56C221.222 40.336 222.166 40 223.094 39.552C224.054 39.136 224.902 39.024 225.638 39.216C226.406 39.408 227.014 39.792 227.462 40.368C227.942 40.944 228.246 41.616 228.374 42.384C228.502 43.12 228.39 43.856 228.038 44.592C227.718 45.328 227.142 45.92 226.31 46.368C225.19 47.04 223.798 47.568 222.134 47.952C220.502 48.336 218.87 48.528 217.238 48.528ZM242.886 48.528C240.262 48.528 237.974 48.032 236.022 47.04C234.07 46.048 232.55 44.624 231.462 42.768C230.374 40.912 229.83 38.72 229.83 36.192C229.83 34.272 230.134 32.56 230.742 31.056C231.35 29.52 232.23 28.224 233.382 27.168C234.534 26.08 235.91 25.264 237.51 24.72C239.11 24.144 240.902 23.856 242.886 23.856C245.51 23.856 247.798 24.352 249.75 25.344C251.702 26.336 253.206 27.76 254.262 29.616C255.35 31.44 255.894 33.632 255.894 36.192C255.894 38.08 255.59 39.792 254.982 41.328C254.374 42.864 253.494 44.176 252.342 45.264C251.222 46.32 249.846 47.136 248.214 47.712C246.614 48.256 244.838 48.528 242.886 48.528ZM242.886 42.24C243.75 42.24 244.518 42.032 245.19 41.616C245.862 41.168 246.374 40.512 246.726 39.648C247.11 38.752 247.302 37.6 247.302 36.192C247.302 34.048 246.886 32.512 246.054 31.584C245.222 30.624 244.166 30.144 242.886 30.144C242.022 30.144 241.254 30.352 240.582 30.768C239.91 31.184 239.382 31.84 238.998 32.736C238.614 33.6 238.422 34.752 238.422 36.192C238.422 38.304 238.838 39.84 239.67 40.8C240.502 41.76 241.574 42.24 242.886 42.24ZM271.761 48.528C269.137 48.528 266.849 48.032 264.897 47.04C262.945 46.048 261.425 44.624 260.337 42.768C259.249 40.912 258.705 38.72 258.705 36.192C258.705 34.272 259.009 32.56 259.617 31.056C260.225 29.52 261.105 28.224 262.257 27.168C263.409 26.08 264.785 25.264 266.385 24.72C267.985 24.144 269.777 23.856 271.761 23.856C274.385 23.856 276.673 24.352 278.625 25.344C280.577 26.336 282.081 27.76 283.137 29.616C284.225 31.44 284.769 33.632 284.769 36.192C284.769 38.08 284.465 39.792 283.857 41.328C283.249 42.864 282.369 44.176 281.217 45.264C280.097 46.32 278.721 47.136 277.089 47.712C275.489 48.256 273.713 48.528 271.761 48.528ZM271.761 42.24C272.625 42.24 273.393 42.032 274.065 41.616C274.737 41.168 275.249 40.512 275.601 39.648C275.985 38.752 276.177 37.6 276.177 36.192C276.177 34.048 275.761 32.512 274.929 31.584C274.097 30.624 273.041 30.144 271.761 30.144C270.897 30.144 270.129 30.352 269.457 30.768C268.785 31.184 268.257 31.84 267.873 32.736C267.489 33.6 267.297 34.752 267.297 36.192C267.297 38.304 267.713 39.84 268.545 40.8C269.377 41.76 270.449 42.24 271.761 42.24ZM292.908 48.432C291.564 48.432 290.524 48.064 289.788 47.328C289.052 46.592 288.684 45.52 288.684 44.112V18.048C288.684 16.64 289.052 15.568 289.788 14.832C290.524 14.096 291.564 13.728 292.908 13.728C294.284 13.728 295.34 14.096 296.076 14.832C296.844 15.568 297.228 16.64 297.228 18.048V33.888H297.324L303.18 26.784C303.98 25.824 304.716 25.12 305.388 24.672C306.092 24.192 307.036 23.952 308.22 23.952C309.404 23.952 310.316 24.24 310.956 24.816C311.596 25.392 311.932 26.112 311.964 26.976C311.996 27.84 311.644 28.704 310.908 29.568L304.572 37.056V34.08L311.676 43.008C312.38 43.904 312.668 44.784 312.54 45.648C312.412 46.48 311.996 47.152 311.292 47.664C310.62 48.176 309.756 48.432 308.7 48.432C307.42 48.432 306.396 48.208 305.628 47.76C304.86 47.28 304.092 46.544 303.324 45.552L297.324 38.16H297.228V44.112C297.228 46.992 295.788 48.432 292.908 48.432Z" fill="url(#paint0_linear_1_17)"/>
<g clip-path="url(#clip0_1_17)">
<path d="M16.625 11.75V6.5C16.625 5.80381 16.9016 5.13613 17.3938 4.64384C17.8861 4.15156 18.5538 3.875 19.25 3.875C19.9462 3.875 20.6139 4.15156 21.1061 4.64384C21.5984 5.13613 21.875 5.80381 21.875 6.5V11.75C21.875 12.4462 21.5984 13.1139 21.1061 13.6062C20.6139 14.0984 19.9462 14.375 19.25 14.375C18.5538 14.375 17.8861 14.0984 17.3938 13.6062C16.9016 13.1139 16.625 12.4462 16.625 11.75ZM28 14.375C28.6962 14.375 29.3639 14.0984 29.8561 13.6062C30.3484 13.1139 30.625 12.4462 30.625 11.75V6.5C30.625 5.80381 30.3484 5.13613 29.8561 4.64384C29.3639 4.15156 28.6962 3.875 28 3.875C27.3038 3.875 26.6361 4.15156 26.1438 4.64384C25.6516 5.13613 25.375 5.80381 25.375 6.5V11.75C25.375 12.4462 25.6516 13.1139 26.1438 13.6062C26.6361 14.0984 27.3038 14.375 28 14.375ZM36.75 14.375C37.4462 14.375 38.1139 14.0984 38.6061 13.6062C39.0984 13.1139 39.375 12.4462 39.375 11.75V6.5C39.375 5.80381 39.0984 5.13613 38.6061 4.64384C38.1139 4.15156 37.4462 3.875 36.75 3.875C36.0538 3.875 35.3861 4.15156 34.8938 4.64384C34.4016 5.13613 34.125 5.80381 34.125 6.5V11.75C34.125 12.4462 34.4016 13.1139 34.8938 13.6062C35.3861 14.0984 36.0538 14.375 36.75 14.375ZM54.95 26.1L49 30.5625V43.25C49 45.3386 48.1703 47.3416 46.6935 48.8185C45.2166 50.2953 43.2136 51.125 41.125 51.125H14.875C12.7864 51.125 10.7834 50.2953 9.30653 48.8185C7.82968 47.3416 7 45.3386 7 43.25V30.5625L1.05 26.1C0.493041 25.6823 0.124835 25.0604 0.026378 24.3712C-0.0720785 23.682 0.107279 22.982 0.524995 22.425C0.942711 21.868 1.56457 21.4998 2.25376 21.4014C2.94296 21.3029 3.64304 21.4823 4.2 21.9L7 24V22.25C7.00575 21.0914 7.46853 19.982 8.28776 19.1628C9.10699 18.3435 10.2164 17.8807 11.375 17.875H44.625C45.7835 17.8807 46.893 18.3435 47.7122 19.1628C48.5315 19.982 48.9942 21.0914 49 22.25V24L51.8 21.9C52.3569 21.4823 53.057 21.3029 53.7462 21.4014C54.4354 21.4998 55.0573 21.868 55.475 22.425C55.8927 22.982 56.0721 23.682 55.9736 24.3712C55.8752 25.0604 55.507 25.6823 54.95 26.1ZM43.75 23.125H12.25V43.25C12.25 43.9462 12.5266 44.6139 13.0188 45.1062C13.5111 45.5984 14.1788 45.875 14.875 45.875H41.125C41.8212 45.875 42.4889 45.5984 42.9811 45.1062C43.4734 44.6139 43.75 43.9462 43.75 43.25V23.125Z" fill="#FF5C00"/>
<path d="M16.625 11.75V6.5C16.625 5.80381 16.9016 5.13613 17.3938 4.64384C17.8861 4.15156 18.5538 3.875 19.25 3.875C19.9462 3.875 20.6139 4.15156 21.1061 4.64384C21.5984 5.13613 21.875 5.80381 21.875 6.5V11.75C21.875 12.4462 21.5984 13.1139 21.1061 13.6062C20.6139 14.0984 19.9462 14.375 19.25 14.375C18.5538 14.375 17.8861 14.0984 17.3938 13.6062C16.9016 13.1139 16.625 12.4462 16.625 11.75ZM28 14.375C28.6962 14.375 29.3639 14.0984 29.8561 13.6062C30.3484 13.1139 30.625 12.4462 30.625 11.75V6.5C30.625 5.80381 30.3484 5.13613 29.8561 4.64384C29.3639 4.15156 28.6962 3.875 28 3.875C27.3038 3.875 26.6361 4.15156 26.1438 4.64384C25.6516 5.13613 25.375 5.80381 25.375 6.5V11.75C25.375 12.4462 25.6516 13.1139 26.1438 13.6062C26.6361 14.0984 27.3038 14.375 28 14.375ZM36.75 14.375C37.4462 14.375 38.1139 14.0984 38.6061 13.6062C39.0984 13.1139 39.375 12.4462 39.375 11.75V6.5C39.375 5.80381 39.0984 5.13613 38.6061 4.64384C38.1139 4.15156 37.4462 3.875 36.75 3.875C36.0538 3.875 35.3861 4.15156 34.8938 4.64384C34.4016 5.13613 34.125 5.80381 34.125 6.5V11.75C34.125 12.4462 34.4016 13.1139 34.8938 13.6062C35.3861 14.0984 36.0538 14.375 36.75 14.375ZM54.95 26.1L49 30.5625V43.25C49 45.3386 48.1703 47.3416 46.6935 48.8185C45.2166 50.2953 43.2136 51.125 41.125 51.125H14.875C12.7864 51.125 10.7834 50.2953 9.30653 48.8185C7.82968 47.3416 7 45.3386 7 43.25V30.5625L1.05 26.1C0.493041 25.6823 0.124835 25.0604 0.026378 24.3712C-0.0720785 23.682 0.107279 22.982 0.524995 22.425C0.942711 21.868 1.56457 21.4998 2.25376 21.4014C2.94296 21.3029 3.64304 21.4823 4.2 21.9L7 24V22.25C7.00575 21.0914 7.46853 19.982 8.28776 19.1628C9.10699 18.3435 10.2164 17.8807 11.375 17.875H44.625C45.7835 17.8807 46.893 18.3435 47.7122 19.1628C48.5315 19.982 48.9942 21.0914 49 22.25V24L51.8 21.9C52.3569 21.4823 53.057 21.3029 53.7462 21.4014C54.4354 21.4998 55.0573 21.868 55.475 22.425C55.8927 22.982 56.0721 23.682 55.9736 24.3712C55.8752 25.0604 55.507 25.6823 54.95 26.1ZM43.75 23.125H12.25V43.25C12.25 43.9462 12.5266 44.6139 13.0188 45.1062C13.5111 45.5984 14.1788 45.875 14.875 45.875H41.125C41.8212 45.875 42.4889 45.5984 42.9811 45.1062C43.4734 44.6139 43.75 43.9462 43.75 43.25V23.125Z" fill="url(#paint1_linear_1_17)"/>
</g>
<defs>
<linearGradient id="paint0_linear_1_17" x1="339.459" y1="77.8774" x2="30.7442" y2="3.89176" gradientUnits="userSpaceOnUse">
<stop stop-color="#FF5F04"/>
<stop offset="1" stop-color="#FFC805"/>
</linearGradient>
<linearGradient id="paint1_linear_1_17" x1="61.5229" y1="60.4859" x2="-11.7844" y2="55.0285" gradientUnits="userSpaceOnUse">
<stop stop-color="#FF5F04"/>
<stop offset="1" stop-color="#FFC805"/>
</linearGradient>
<clipPath id="clip0_1_17">
<rect y="3" width="56" height="56" fill="white"/>
</clipPath>
</defs>
</svg>
