<svg width="450" height="768" viewBox="0 0 450 768" fill="none" xmlns="http://www.w3.org/2000/svg">
<g clip-path="url(#clip0_439_3333)">
<g clip-path="url(#clip1_439_3333)">
<path d="M251.605 192.899H162.74C160.121 192.899 158 195.123 158 197.868V321.879C158 324.624 160.121 326.848 162.74 326.848H251.605C254.224 326.848 256.345 324.624 256.345 321.879V197.868C256.345 195.123 254.224 192.899 251.605 192.899ZM255.16 321.879C255.16 323.933 253.564 325.606 251.605 325.606H162.74C160.781 325.606 159.185 323.933 159.185 321.879V197.868C159.185 195.814 160.781 194.142 162.74 194.142H251.605C253.564 194.142 255.16 195.814 255.16 197.868V321.879Z" fill="#FFE6D3"/>
<path d="M167.973 203.872V314.426H246.372V203.872H167.973ZM245.187 313.184H169.157V205.114H245.187V313.184Z" fill="#FFE6D3"/>
<path d="M207.172 317.014C205.521 317.014 204.186 318.418 204.186 320.144C204.186 321.875 205.525 323.275 207.172 323.275C208.819 323.275 210.158 321.871 210.158 320.144C210.158 318.418 208.823 317.014 207.172 317.014ZM207.172 322.037C206.177 322.037 205.371 321.188 205.371 320.149C205.371 319.109 206.181 318.26 207.172 318.26C208.167 318.26 208.973 319.109 208.973 320.149C208.973 321.188 208.167 322.037 207.172 322.037Z" fill="#FFE6D3"/>
</g>
<g clip-path="url(#clip2_439_3333)">
<path d="M128.093 104.726C126.15 104.726 124.57 106.302 124.57 108.249C124.57 110.196 126.146 111.772 128.093 111.772C130.036 111.772 131.616 110.196 131.616 108.249C131.612 106.306 130.036 104.726 128.093 104.726ZM128.093 110.587C126.805 110.587 125.755 109.541 125.755 108.249C125.755 106.961 126.801 105.911 128.093 105.911C129.38 105.911 130.431 106.958 130.431 108.249C130.427 109.537 129.38 110.587 128.093 110.587Z" fill="#FFE6D3"/>
<path d="M142.837 36.169H140.688C140.629 35.8886 140.38 35.6753 140.08 35.6753H134.799C134.499 35.6753 134.25 35.8886 134.195 36.169L113.345 36.169C111.165 36.169 109.396 37.9384 109.396 40.1186V47.5043H109.376C109.092 47.5043 108.862 47.686 108.862 47.9071V50.2492C108.862 50.4704 109.092 50.6521 109.376 50.6521H109.396V54.8308H109.222C109.024 54.8308 108.862 54.9571 108.862 55.1112V56.7463C108.862 56.9003 109.024 57.0267 109.222 57.0267H109.396V61.4226H109.222C109.024 61.4226 108.862 61.549 108.862 61.703V63.3382C108.862 63.4922 109.024 63.6186 109.222 63.6186H109.396V110.686C109.396 112.866 111.165 114.635 113.345 114.635H142.837C145.017 114.635 146.786 112.866 146.786 110.686V40.1186C146.786 37.9384 145.017 36.169 142.837 36.169ZM145.601 110.686C145.601 112.21 144.361 113.45 142.837 113.45H113.345C111.821 113.45 110.58 112.21 110.58 110.686L110.58 40.1186C110.58 38.594 111.821 37.3539 113.345 37.3539L142.837 37.3539C144.361 37.3539 145.601 38.594 145.601 40.1186V110.686Z" fill="#FFE6D3"/>
<path d="M112.492 102.325H143.694V47.3584L112.492 47.3584L112.492 102.325V102.325ZM113.677 48.5432L142.509 48.5432V101.14H113.677L113.677 48.5432V48.5432Z" fill="#FFE6D3"/>
<path d="M125.605 44.4278H130.573C130.897 44.4278 131.158 44.1908 131.158 43.9025C131.158 43.6102 130.897 43.3772 130.573 43.3772H125.605C125.281 43.3772 125.02 43.6141 125.02 43.9025C125.02 44.1947 125.285 44.4278 125.605 44.4278Z" fill="#FFE6D3"/>
</g>
<g clip-path="url(#clip3_439_3333)">
<path d="M442.918 197.41L442.918 104.246C442.918 101.501 440.797 99.2776 438.179 99.2776L319.889 99.2776C317.27 99.2776 315.149 101.501 315.149 104.246L315.149 197.41C315.149 200.155 317.27 202.379 319.889 202.379L438.179 202.379C440.797 202.379 442.918 200.155 442.918 197.41ZM319.889 201.137C317.93 201.137 316.334 199.464 316.334 197.41L316.334 104.246C316.334 102.193 317.93 100.52 319.889 100.52L438.179 100.52C440.138 100.52 441.733 102.193 441.733 104.246L441.733 197.41C441.733 199.464 440.138 201.137 438.179 201.137L319.889 201.137Z" fill="#FFE6D3"/>
<path d="M432.452 109.733L326.998 109.733L326.998 191.924L432.452 191.924L432.452 109.733ZM328.183 190.682L328.183 110.975L431.267 110.975L431.267 190.682L328.183 190.682Z" fill="#FFE6D3"/>
<path d="M324.53 150.828C324.53 149.098 323.191 147.698 321.544 147.698C319.893 147.698 318.558 149.102 318.558 150.828C318.558 152.555 319.897 153.959 321.544 153.959C323.191 153.959 324.53 152.559 324.53 150.828ZM319.739 150.828C319.739 149.785 320.548 148.94 321.54 148.94C322.531 148.94 323.341 149.789 323.341 150.828C323.341 151.872 322.531 152.716 321.54 152.716C320.548 152.716 319.739 151.872 319.739 150.828Z" fill="#FFE6D3"/>
</g>
<g clip-path="url(#clip4_439_3333)">
<path d="M78.8656 309.103L78.8656 215.939C78.8656 213.194 76.7447 210.97 74.1261 210.97L-44.1638 210.97C-46.7824 210.97 -48.9033 213.194 -48.9033 215.939L-48.9033 309.103C-48.9033 311.848 -46.7824 314.072 -44.1638 314.072L74.1261 314.072C76.7447 314.072 78.8656 311.848 78.8656 309.103ZM-44.1638 312.829C-46.1228 312.829 -47.7184 311.157 -47.7184 309.103L-47.7184 215.939C-47.7184 213.885 -46.1228 212.213 -44.1638 212.213L74.1261 212.213C76.0851 212.213 77.6807 213.885 77.6807 215.939L77.6807 309.103C77.6807 311.157 76.0851 312.829 74.1261 312.829L-44.1638 312.829Z" fill="#FFE6D3"/>
<path d="M68.399 221.426L-37.0547 221.426L-37.0547 303.617L68.399 303.617L68.399 221.426ZM-35.8699 302.374L-35.8699 222.668L67.2142 222.668L67.2142 302.374L-35.8699 302.374Z" fill="#FFE6D3"/>
</g>
<g clip-path="url(#clip5_439_3333)">
<path d="M86.5673 498.74H242.971V400H86.5673V498.74ZM87.7521 401.185H241.786V497.555H87.7521V401.185Z" fill="#FFE6D3"/>
<path d="M278.979 505.454H251.265V398.42C251.265 394.929 248.437 392.101 244.945 392.101H84.5925C81.1011 392.101 78.2732 394.929 78.2732 398.42V505.454H50.4286C49.9942 505.454 49.6387 505.809 49.6387 506.244V511.114C49.6387 511.442 49.8402 511.726 50.1285 511.844C53.142 514.115 57.0916 515.494 61.4164 515.494H268.019C272.367 515.494 276.337 514.1 279.358 511.809C279.603 511.675 279.773 511.418 279.773 511.118V506.244C279.769 505.809 279.413 505.454 278.979 505.454ZM79.4581 504.269V503.827V398.42C79.4581 395.589 81.7607 393.286 84.5925 393.286H244.945C247.777 393.286 250.08 395.589 250.08 398.42V503.827V505.454H79.4581V504.269ZM275.195 512.859C272.987 513.807 270.535 514.309 268.015 514.309H61.4124C58.8926 514.309 56.4399 513.807 54.2321 512.859H54.2439C53.5449 512.583 52.8774 512.259 52.2336 511.904H277.194C276.55 512.255 275.882 512.579 275.183 512.859H275.195ZM278.584 510.719H50.8236V506.639H278.584V510.719Z" fill="#FFE6D3"/>
</g>
<g clip-path="url(#clip6_439_3333)">
<path d="M161.909 637.23C161.909 635.287 160.333 633.707 158.386 633.707C156.439 633.707 154.863 635.283 154.863 637.23C154.863 639.174 156.439 640.753 158.386 640.753C160.33 640.749 161.909 639.174 161.909 637.23ZM156.048 637.23C156.048 635.943 157.095 634.892 158.386 634.892C159.674 634.892 160.724 635.939 160.724 637.23C160.724 638.518 159.678 639.568 158.386 639.568C157.099 639.565 156.048 638.518 156.048 637.23Z" fill="#FFE6D3"/>
<path d="M230.466 651.974L230.466 649.826C230.747 649.766 230.96 649.518 230.96 649.217L230.96 643.937C230.96 643.637 230.747 643.388 230.466 643.333L230.466 622.483C230.466 620.303 228.697 618.533 226.517 618.533L219.131 618.533L219.131 618.513C219.131 618.229 218.949 618 218.728 618L216.386 618C216.165 618 215.983 618.229 215.983 618.513L215.983 618.533L211.805 618.533L211.805 618.359C211.805 618.162 211.678 618 211.524 618L209.889 618C209.735 618 209.609 618.162 209.609 618.359L209.609 618.533L205.213 618.533L205.213 618.359C205.213 618.162 205.086 618 204.932 618L203.297 618C203.143 618 203.017 618.162 203.017 618.359L203.017 618.533L155.95 618.533C153.769 618.533 152 620.303 152 622.483L152 651.974C152 654.154 153.769 655.924 155.95 655.924L226.517 655.924C228.697 655.924 230.466 654.154 230.466 651.974ZM155.95 654.739C154.425 654.739 153.185 653.499 153.185 651.974L153.185 622.483C153.185 620.958 154.425 619.718 155.95 619.718L226.517 619.718C228.041 619.718 229.282 620.958 229.282 622.483L229.282 651.974C229.282 653.499 228.041 654.739 226.517 654.739L155.95 654.739Z" fill="#FFE6D3"/>
<path d="M164.311 621.63L164.311 652.832L219.277 652.832L219.277 621.63L164.311 621.63V621.63ZM218.092 622.815L218.092 651.647L165.496 651.647L165.496 622.815L218.092 622.815V622.815Z" fill="#FFE6D3"/>
<path d="M222.208 634.742L222.208 639.711C222.208 640.035 222.445 640.295 222.733 640.295C223.025 640.295 223.258 640.035 223.258 639.711L223.258 634.742C223.258 634.418 223.021 634.158 222.733 634.158C222.441 634.158 222.208 634.422 222.208 634.742Z" fill="#FFE6D3"/>
</g>
</g>
<defs>
<clipPath id="clip0_439_3333">
<rect width="450" height="802" fill="white"/>
</clipPath>
<clipPath id="clip1_439_3333">
<rect width="98.3445" height="133.949" fill="white" transform="translate(158 192.899)"/>
</clipPath>
<clipPath id="clip2_439_3333">
<rect width="37.9239" height="78.96" fill="white" transform="translate(108.863 35.6752)"/>
</clipPath>
<clipPath id="clip3_439_3333">
<rect width="103.101" height="127.769" fill="white" transform="translate(442.918 99.2776) rotate(90)"/>
</clipPath>
<clipPath id="clip4_439_3333">
<rect width="103.101" height="127.769" fill="white" transform="translate(78.8656 210.97) rotate(90)"/>
</clipPath>
<clipPath id="clip5_439_3333">
<rect width="230.13" height="123.393" fill="white" transform="translate(49.6387 392.101)"/>
</clipPath>
<clipPath id="clip6_439_3333">
<rect width="37.9239" height="78.96" fill="white" transform="translate(230.96 618) rotate(90)"/>
</clipPath>
</defs>
</svg>
